<svg width="308" height="71" viewBox="0 0 308 71" fill="none" xmlns="http://www.w3.org/2000/svg">
<path fill-rule="evenodd" clip-rule="evenodd" d="M70.8214 8.95959C70.8214 4.03048 66.7848 0 61.8483 0H23.5772C23.4432 1.42018 23.3747 2.85948 23.3747 4.31457C23.3747 15.3588 27.3198 25.483 33.8793 33.3588H34.1596V32.8171H34.702V32.2759H35.2447V31.7342H35.7866V31.1923H36.3291V30.6514H36.871V30.1097H37.4135V29.5678H37.9554V29.0269H38.4981V28.4852H39.0398V27.9433H39.5825V27.4024H40.1249V26.8607H40.6668V26.3187H41.2093V25.7778H41.752V25.2359H42.2939V24.695H42.8363V24.1541H43.379V23.6121H43.9207V23.0705H44.4634V22.5296H46.09V23.0705H46.6324V23.6121V24.6952V25.2362H46.09V25.7781H45.548V26.319H45.0053V26.8609H44.4637V27.4026H43.921V27.9435H43.3793V28.4855H42.8366V29.0271H42.2942V29.568H41.7522V30.11H41.2095V30.6517H40.6671V31.1926H40.1252V31.7345H39.5827V32.2762H39.04V32.8173H38.4983V33.359H37.9556V33.8999H37.4137V34.4411H36.8713V34.9828H36.3293V35.5245H35.8032C44.1011 44.294 55.8577 49.7655 68.8944 49.7655C69.5401 49.7655 70.1824 49.7525 70.8217 49.7258L70.8214 8.95959ZM55.3107 26.8599V27.9428V28.4847H54.769V29.0264V29.5673H54.2263V30.1092V30.6509H53.6847V31.1918H53.142V31.7337H52.6003V32.2754H52.0576V32.8166H51.5159V33.3583H50.9732V33.8992H50.4305V34.4403H49.8889V34.982H49.3462V35.5237H48.8037V36.0649H48.2618V36.6065H47.7191V37.1485H47.1766V37.6894H46.6347V38.2311H46.0923V38.773H44.4657V38.2311H43.923V36.6063V36.0646H44.4657V35.5234H45.0074V34.9818H45.5501V34.4401H46.092V33.8989H46.6345V33.358H47.1764V32.8163H47.7188V32.2752H48.2615V31.7335H48.8035V31.1916H49.3459V30.6506H49.8886V30.109H50.4303V29.567H50.973V29.0261H51.5157V28.4844V27.9425H52.0573V27.4016V26.8599H52.6V25.7768V25.2349H53.1417V22.5283H52.6V21.9863V20.9035H52.0573V20.3616V19.8199H51.5157V19.279H50.973V18.737H50.4303V18.1954H49.8886V17.6542H49.3459H48.8035V17.1125H48.2615H47.7188V16.5716H47.1764H43.9225H42.8379V17.1125H41.7532H41.2105V17.6542H40.6681V18.1954H40.1262V18.737H39.5837H39.041V19.279V19.8199H38.4994H37.9567V20.3616H37.4147V20.9035H36.8723V21.4444V21.9861H36.3304V22.528H35.7879H35.246V23.0689V23.6106H34.7033V24.1525H34.1608H33.6189V24.6935H33.0765V25.2344H32.5338V25.7763H31.4491V25.2344H30.9064V24.6935H30.3648V23.6104H30.9064V23.0687H31.4491V22.5278H31.9918V21.9858H32.5335V21.4442V20.9032H33.0762V20.3613H33.6187V19.8196H34.1606V19.2787H34.703H35.2457V18.7368H35.7877V18.1951H36.3301V17.6539H36.872V17.1123V16.5714H37.4145H37.9564V16.0302V15.4885H38.4991H39.0408V14.9468H39.5835V14.4057H40.1259H40.6678H41.2103V13.864H41.753H42.8376V13.3221H43.3803H47.1759H47.7183V13.864H48.8032H49.3456V14.4057H49.8883H50.43V14.9468H50.9727H51.5154V15.4885H52.0571V16.0302H52.5998V16.5714H53.1415V17.1123H53.6842V17.6539H54.2258V18.1951V18.7368H54.7685V19.2787V19.8196H55.3102V20.3613V21.4444H55.8529V22.5283V25.7771V26.8602L55.3107 26.8599Z" fill="#FFC000"/>
<path d="M55.3107 26.8599L55.8529 26.8602V25.7771V22.5283V21.4444H55.3102V20.3613V19.8196H54.7685V19.2787V18.7368H54.2258V18.1951V17.6539H53.6842V17.1123H53.1415V16.5714H52.5998V16.0302H52.0571V15.4885H51.5154V14.9468H50.9727H50.43V14.4057H49.8883H49.3456V13.864H48.8032H47.7183V13.3221H47.1759H43.3803H42.8376V13.864H41.753H41.2103V14.4057H40.6678H40.1259H39.5835V14.9468H39.0408V15.4885H38.4991H37.9564V16.0302V16.5714H37.4145H36.872V17.1123V17.6539H36.3301V18.1951H35.7877V18.7368H35.2457V19.2787H34.703H34.1606V19.8196H33.6187V20.3613H33.0762V20.9032H32.5335V21.4442V21.9858H31.9918V22.5278H31.4491V23.0687H30.9064V23.6104H30.3648V24.6935H30.9064V25.2344H31.4491V25.7763H32.5338V25.2344H33.0765V24.6935H33.6189V24.1525H34.1608H34.7033V23.6106H35.246V23.0689V22.528H35.7879H36.3304V21.9861H36.8723V21.4444V20.9035H37.4147V20.3616H37.9567V19.8199H38.4994H39.041V19.279V18.737H39.5837H40.1262V18.1954H40.6681V17.6542H41.2105V17.1125H41.7532H42.8379V16.5716H43.9225H47.1764H47.7188V17.1125H48.2615H48.8035V17.6542H49.3459H49.8886V18.1954H50.4303V18.737H50.973V19.279H51.5157V19.8199H52.0573V20.3616V20.9035H52.6V21.9863V22.5283H53.1417V25.2349H52.6V25.7768V26.8599H52.0573V27.4016V27.9425H51.5157V28.4844V29.0261H50.973V29.567H50.4303V30.109H49.8886V30.6506H49.3459V31.1916H48.8035V31.7335H48.2615V32.2752H47.7188V32.8163H47.1764V33.358H46.6345V33.8989H46.092V34.4401H45.5501V34.9818H45.0074V35.5234H44.4657V36.0646H43.923V36.6063V38.2311H44.4657V38.773H46.0923V38.2311H46.6347V37.6894H47.1766V37.1485H47.7191V36.6065H48.2618V36.0649H48.8037V35.5237H49.3462V34.982H49.8889V34.4403H50.4305V33.8992H50.9732V33.3583H51.5159V32.8166H52.0576V32.2754H52.6003V31.7337H53.142V31.1918H53.6847V30.6509H54.2263V30.1092V29.5673H54.769V29.0264V28.4847H55.3107V27.9428V26.8599Z" fill="white"/>
<path d="M30.4015 54.2381V54.8037H29.834H29.2664V55.3706H28.6997H27.5654V55.9372H26.998H22.4603V55.3706H21.3259H20.7585H20.1919V54.8037H19.6242H19.0565V54.2381H18.4899V53.6712H17.9233V53.1045H17.3556H16.7889V52.5386H16.2215V51.973V51.4061H15.6539V50.8405H15.0872V50.2736V49.7069H14.5196V49.141V48.5744H13.9521V47.4419V46.3086H13.3855V42.3454H13.9521V41.2118V40.6459H14.5196V40.0793V39.5126H15.0872V38.9468V38.3801H15.6539V37.8135H16.2215V37.2476H16.7889V36.6809V36.1143H17.3556V35.5484H17.9233V34.9825H18.4899V34.4159H19.0565V33.85H19.6242H20.1919V33.2834H20.7585V32.7164H21.3259V32.1508H21.8936V31.5839V31.0173H22.4603H23.0279V30.4514V29.8847H23.5953V29.3181H24.162H25.2973H25.864V29.8847H26.4314V30.4514V31.5839H25.864V32.1508H25.2973V32.7164H24.7296V33.2834H24.162V33.85V34.4159H23.5953H23.0279V34.9825H22.4603V35.5484H21.8936V36.1143V36.6809H21.3259V37.2476H20.7585H20.1919V37.8135V38.3801H19.6242V38.9468H19.0565H18.4899V39.5126V40.0793H17.9233V40.6459H17.3556V41.7785V42.3454H16.7889V43.4779V46.3088V46.8755H17.3556V47.4421V48.008V48.5747H17.9233V49.1413H18.4899V49.7072V50.2738H19.0565V50.8407H19.6242H20.1919V51.4064H20.7585V51.9733H21.3259H21.8936V52.5389H23.5953H26.998H27.5654V51.9733H28.1321H28.6997V51.4064H29.2664H29.834V50.8407H30.4015V50.2738H30.9684V49.7072H31.5358V49.1413H32.1034V48.5747H32.6701V48.008H33.2375V47.4421H33.8052V46.8755H34.3718V46.3088H34.9395V45.743H35.5061V45.1763H36.0738V44.6094H36.6404V44.0438H37.2078V43.4779H37.7747V42.911H39.4765V43.4779H40.0439V44.0438V45.1763V45.743H39.4765V46.3088H38.9098V46.8755H38.3422V47.4421H37.7747V48.008H37.2078V48.5747H36.6404V49.1413H36.0738V49.7072H35.5061V50.2738H34.9395V50.8407H34.3718V51.4064H33.8052V51.9733H33.2375V52.5389H32.6701V53.1048H32.1034V53.6714H31.5358H30.9684V54.2383L30.4015 54.2381Z" fill="white"/>
<path fill-rule="evenodd" clip-rule="evenodd" d="M68.9953 52.1412C55.3619 52.1412 43.0674 46.4189 34.3889 37.2481H34.3716V37.814H33.8049V38.3806H33.2372V38.9473H32.6698V39.5132H32.1032V40.0798H31.5355V40.6464H30.9681V41.2123H30.4012V41.779H29.8338V42.3459H29.2661V42.9115H28.6995V43.4784H28.1318V44.0443H27.5652V44.6099H26.9978V45.1768H26.4309V45.7435H25.8634H25.2968V46.3093H24.1615V45.7435H23.5948V45.1768H23.0274V44.0443H23.5948V43.4784H24.1615V42.9115H24.7291V42.3459H25.2968V41.779H25.8634V41.2123H26.4309V40.6464H26.9978V40.0798H27.5652V39.5132H28.1318V38.9473H28.6995V38.3806H29.2661V37.814H29.8338V37.2481H30.4012V36.6814H30.9681V36.1148H31.5355V35.5489H32.1032V34.983H32.3766C25.5167 26.7468 21.3909 16.1591 21.3909 4.60859C21.3909 3.087 21.4628 1.58147 21.6029 0.0963135H9.38381C4.22131 0.0963135 0 4.31151 0 9.46611V61.6302C0 66.7848 4.22131 71 9.38381 71H61.6266C66.7891 71 71.0107 66.7848 71.0107 61.6302V52.0991C70.3424 52.1274 69.6705 52.1412 68.9953 52.1412ZM30.4015 54.8037V54.2381L30.9684 54.2383V53.6714H31.5358H32.1034V53.1048H32.6701V52.5389H33.2375V51.9733H33.8052V51.4064H34.3718V50.8407H34.9395V50.2738H35.5061V49.7072H36.0738V49.1413H36.6404V48.5747H37.2078V48.008H37.7747V47.4421H38.3422V46.8755H38.9098V46.3088H39.4765V45.743H40.0439V45.1763V44.0438V43.4779H39.4765V42.911H37.7747V43.4779H37.2078V44.0438H36.6404V44.6094H36.0738V45.1763H35.5061V45.743H34.9395V46.3088H34.3718V46.8755H33.8052V47.4421H33.2375V48.008H32.6701V48.5747H32.1034V49.1413H31.5358V49.7072H30.9684V50.2738H30.4015V50.8407H29.834V51.4064H29.2664H28.6997V51.9733H28.1321H27.5654V52.5389H26.998H23.5953H21.8936V51.9733H21.3259H20.7585V51.4064H20.1919V50.8407H19.6242H19.0565V50.2738H18.4899V49.7072V49.1413H17.9233V48.5747H17.3556V48.008V47.4421V46.8755H16.7889V46.3088V43.4779V42.3454H17.3556V41.7785V40.6459H17.9233V40.0793H18.4899V39.5126V38.9468H19.0565H19.6242V38.3801H20.1919V37.8135V37.2476H20.7585H21.3259V36.6809H21.8936V36.1143V35.5484H22.4603V34.9825H23.0279V34.4159H23.5953H24.162V33.85V33.2834H24.7296V32.7164H25.2973V32.1508H25.864V31.5839H26.4314V30.4514V29.8847H25.864V29.3181H25.2973H24.162H23.5953V29.8847H23.0279V30.4514V31.0173H22.4603H21.8936V31.5839V32.1508H21.3259V32.7164H20.7585V33.2834H20.1919V33.85H19.6242H19.0565V34.4159H18.4899V34.9825H17.9233V35.5484H17.3556V36.1143H16.7889V36.6809V37.2476H16.2215V37.8135H15.6539V38.3801H15.0872V38.9468V39.5126H14.5196V40.0793V40.6459H13.9521V41.2118V42.3454H13.3855V46.3086H13.9521V47.4419V48.5744H14.5196V49.141V49.7069H15.0872V50.2736V50.8405H15.6539V51.4061H16.2215V51.973V52.5386H16.7889V53.1045H17.3556H17.9233V53.6712H18.4899V54.2381H19.0565V54.8037H19.6242H20.1919V55.3706H20.7585H21.3259H22.4603V55.9372H26.998H27.5654V55.3706H28.6997H29.2664V54.8037H29.834H30.4015Z" fill="#0505DD"/>
<path d="M110.528 20.4H112.572V40H110.528V20.4ZM98.264 40H96.192V20.4H98.264V40ZM110.724 30.956H98.04V29.136H110.724V30.956ZM127.761 40V36.752L127.677 36.22V30.788C127.677 29.5373 127.323 28.576 126.613 27.904C125.923 27.232 124.887 26.896 123.505 26.896C122.553 26.896 121.648 27.0547 120.789 27.372C119.931 27.6893 119.203 28.1093 118.605 28.632L117.709 27.148C118.456 26.5133 119.352 26.028 120.397 25.692C121.443 25.3373 122.544 25.16 123.701 25.16C125.605 25.16 127.071 25.636 128.097 26.588C129.143 27.5213 129.665 28.9493 129.665 30.872V40H127.761ZM122.693 40.14C121.592 40.14 120.631 39.9627 119.809 39.608C119.007 39.2347 118.391 38.7307 117.961 38.096C117.532 37.4427 117.317 36.696 117.317 35.856C117.317 35.0907 117.495 34.4 117.849 33.784C118.223 33.1493 118.82 32.6453 119.641 32.272C120.481 31.88 121.601 31.684 123.001 31.684H128.069V33.168H123.057C121.639 33.168 120.649 33.42 120.089 33.924C119.548 34.428 119.277 35.0533 119.277 35.8C119.277 36.64 119.604 37.312 120.257 37.816C120.911 38.32 121.825 38.572 123.001 38.572C124.121 38.572 125.083 38.32 125.885 37.816C126.707 37.2933 127.304 36.5467 127.677 35.576L128.125 36.948C127.752 37.9187 127.099 38.6933 126.165 39.272C125.251 39.8507 124.093 40.14 122.693 40.14ZM135.065 40V25.3H136.969V29.304L136.773 28.604C137.184 27.484 137.874 26.6347 138.845 26.056C139.816 25.4587 141.02 25.16 142.457 25.16V27.092C142.382 27.092 142.308 27.092 142.233 27.092C142.158 27.0733 142.084 27.064 142.009 27.064C140.46 27.064 139.246 27.54 138.369 28.492C137.492 29.4253 137.053 30.76 137.053 32.496V40H135.065ZM151.8 40.14C150.4 40.14 149.14 39.8227 148.02 39.188C146.918 38.5533 146.05 37.676 145.416 36.556C144.781 35.4173 144.464 34.1107 144.464 32.636C144.464 31.1427 144.781 29.836 145.416 28.716C146.05 27.596 146.918 26.728 148.02 26.112C149.14 25.4773 150.4 25.16 151.8 25.16C153.088 25.16 154.236 25.4493 155.244 26.028C156.27 26.6067 157.082 27.456 157.68 28.576C158.296 29.6773 158.604 31.0307 158.604 32.636C158.604 34.2227 158.305 35.576 157.708 36.696C157.11 37.816 156.298 38.6747 155.272 39.272C154.264 39.8507 153.106 40.14 151.8 40.14ZM151.94 38.376C152.985 38.376 153.918 38.1427 154.74 37.676C155.58 37.1907 156.233 36.5187 156.7 35.66C157.185 34.7827 157.428 33.7747 157.428 32.636C157.428 31.4787 157.185 30.4707 156.7 29.612C156.233 28.7533 155.58 28.0907 154.74 27.624C153.918 27.1387 152.985 26.896 151.94 26.896C150.913 26.896 149.989 27.1387 149.168 27.624C148.346 28.0907 147.693 28.7533 147.208 29.612C146.722 30.4707 146.48 31.4787 146.48 32.636C146.48 33.7747 146.722 34.7827 147.208 35.66C147.693 36.5187 148.346 37.1907 149.168 37.676C149.989 38.1427 150.913 38.376 151.94 38.376ZM157.484 40V35.576L157.68 32.608L157.4 29.64V19.224H159.388V40H157.484ZM170.916 40.14C169.498 40.14 168.219 39.8227 167.08 39.188C165.96 38.5347 165.074 37.648 164.42 36.528C163.767 35.3893 163.44 34.092 163.44 32.636C163.44 31.1613 163.767 29.864 164.42 28.744C165.074 27.624 165.96 26.7467 167.08 26.112C168.2 25.4773 169.479 25.16 170.916 25.16C172.372 25.16 173.66 25.4773 174.78 26.112C175.919 26.7467 176.806 27.624 177.44 28.744C178.094 29.864 178.42 31.1613 178.42 32.636C178.42 34.092 178.094 35.3893 177.44 36.528C176.806 37.648 175.919 38.5347 174.78 39.188C173.642 39.8227 172.354 40.14 170.916 40.14ZM170.916 38.376C171.98 38.376 172.923 38.1427 173.744 37.676C174.566 37.1907 175.21 36.5187 175.676 35.66C176.162 34.7827 176.404 33.7747 176.404 32.636C176.404 31.4787 176.162 30.4707 175.676 29.612C175.21 28.7533 174.566 28.0907 173.744 27.624C172.923 27.1387 171.99 26.896 170.944 26.896C169.899 26.896 168.966 27.1387 168.144 27.624C167.323 28.0907 166.67 28.7533 166.184 29.612C165.699 30.4707 165.456 31.4787 165.456 32.636C165.456 33.7747 165.699 34.7827 166.184 35.66C166.67 36.5187 167.323 37.1907 168.144 37.676C168.966 38.1427 169.89 38.376 170.916 38.376ZM182.479 40V25.3H184.383V29.304L184.187 28.604C184.598 27.484 185.288 26.6347 186.259 26.056C187.23 25.4587 188.434 25.16 189.871 25.16V27.092C189.796 27.092 189.722 27.092 189.647 27.092C189.572 27.0733 189.498 27.064 189.423 27.064C187.874 27.064 186.66 27.54 185.783 28.492C184.906 29.4253 184.467 30.76 184.467 32.496V40H182.479ZM201.617 40V36.752L201.533 36.22V30.788C201.533 29.5373 201.178 28.576 200.469 27.904C199.778 27.232 198.742 26.896 197.361 26.896C196.409 26.896 195.503 27.0547 194.645 27.372C193.786 27.6893 193.058 28.1093 192.461 28.632L191.565 27.148C192.311 26.5133 193.207 26.028 194.253 25.692C195.298 25.3373 196.399 25.16 197.557 25.16C199.461 25.16 200.926 25.636 201.953 26.588C202.998 27.5213 203.521 28.9493 203.521 30.872V40H201.617ZM196.549 40.14C195.447 40.14 194.486 39.9627 193.665 39.608C192.862 39.2347 192.246 38.7307 191.817 38.096C191.387 37.4427 191.173 36.696 191.173 35.856C191.173 35.0907 191.35 34.4 191.705 33.784C192.078 33.1493 192.675 32.6453 193.497 32.272C194.337 31.88 195.457 31.684 196.857 31.684H201.925V33.168H196.913C195.494 33.168 194.505 33.42 193.945 33.924C193.403 34.428 193.133 35.0533 193.133 35.8C193.133 36.64 193.459 37.312 194.113 37.816C194.766 38.32 195.681 38.572 196.857 38.572C197.977 38.572 198.938 38.32 199.741 37.816C200.562 37.2933 201.159 36.5467 201.533 35.576L201.981 36.948C201.607 37.9187 200.954 38.6933 200.021 39.272C199.106 39.8507 197.949 40.14 196.549 40.14ZM225.237 40.168C223.762 40.168 222.39 39.9253 221.121 39.44C219.87 38.936 218.778 38.236 217.845 37.34C216.93 36.4253 216.211 35.3707 215.689 34.176C215.185 32.9627 214.933 31.6373 214.933 30.2C214.933 28.7627 215.185 27.4467 215.689 26.252C216.211 25.0387 216.93 23.984 217.845 23.088C218.778 22.1733 219.87 21.4733 221.121 20.988C222.371 20.484 223.743 20.232 225.237 20.232C226.711 20.232 228.074 20.484 229.325 20.988C230.575 21.4733 231.658 22.164 232.573 23.06C233.506 23.956 234.225 25.0107 234.729 26.224C235.251 27.4373 235.513 28.7627 235.513 30.2C235.513 31.6373 235.251 32.9627 234.729 34.176C234.225 35.3893 233.506 36.444 232.573 37.34C231.658 38.236 230.575 38.936 229.325 39.44C228.074 39.9253 226.711 40.168 225.237 40.168ZM225.237 38.32C226.413 38.32 227.495 38.124 228.485 37.732C229.493 37.3213 230.361 36.752 231.089 36.024C231.835 35.2773 232.414 34.4187 232.825 33.448C233.235 32.4587 233.441 31.376 233.441 30.2C233.441 29.024 233.235 27.9507 232.825 26.98C232.414 25.9907 231.835 25.132 231.089 24.404C230.361 23.6573 229.493 23.088 228.485 22.696C227.495 22.2853 226.413 22.08 225.237 22.08C224.061 22.08 222.969 22.2853 221.961 22.696C220.953 23.088 220.075 23.6573 219.329 24.404C218.601 25.132 218.022 25.9907 217.593 26.98C217.182 27.9507 216.977 29.024 216.977 30.2C216.977 31.3573 217.182 32.4307 217.593 33.42C218.022 34.4093 218.601 35.2773 219.329 36.024C220.075 36.752 220.953 37.3213 221.961 37.732C222.969 38.124 224.061 38.32 225.237 38.32ZM239.737 40V25.3H241.641V29.304L241.445 28.604C241.856 27.484 242.546 26.6347 243.517 26.056C244.488 25.4587 245.692 25.16 247.129 25.16V27.092C247.054 27.092 246.98 27.092 246.905 27.092C246.83 27.0733 246.756 27.064 246.681 27.064C245.132 27.064 243.918 27.54 243.041 28.492C242.164 29.4253 241.725 30.76 241.725 32.496V40H239.737ZM258.875 40V36.752L258.791 36.22V30.788C258.791 29.5373 258.436 28.576 257.727 27.904C257.036 27.232 256 26.896 254.619 26.896C253.667 26.896 252.761 27.0547 251.903 27.372C251.044 27.6893 250.316 28.1093 249.719 28.632L248.823 27.148C249.569 26.5133 250.465 26.028 251.511 25.692C252.556 25.3373 253.657 25.16 254.815 25.16C256.719 25.16 258.184 25.636 259.211 26.588C260.256 27.5213 260.779 28.9493 260.779 30.872V40H258.875ZM253.807 40.14C252.705 40.14 251.744 39.9627 250.923 39.608C250.12 39.2347 249.504 38.7307 249.075 38.096C248.645 37.4427 248.431 36.696 248.431 35.856C248.431 35.0907 248.608 34.4 248.963 33.784C249.336 33.1493 249.933 32.6453 250.755 32.272C251.595 31.88 252.715 31.684 254.115 31.684H259.183V33.168H254.171C252.752 33.168 251.763 33.42 251.203 33.924C250.661 34.428 250.391 35.0533 250.391 35.8C250.391 36.64 250.717 37.312 251.371 37.816C252.024 38.32 252.939 38.572 254.115 38.572C255.235 38.572 256.196 38.32 256.999 37.816C257.82 37.2933 258.417 36.5467 258.791 35.576L259.239 36.948C258.865 37.9187 258.212 38.6933 257.279 39.272C256.364 39.8507 255.207 40.14 253.807 40.14ZM272.282 40.14C270.826 40.14 269.52 39.8227 268.362 39.188C267.224 38.5347 266.328 37.648 265.674 36.528C265.021 35.3893 264.694 34.092 264.694 32.636C264.694 31.1613 265.021 29.864 265.674 28.744C266.328 27.624 267.224 26.7467 268.362 26.112C269.52 25.4773 270.826 25.16 272.282 25.16C273.533 25.16 274.662 25.4027 275.67 25.888C276.678 26.3733 277.472 27.1013 278.05 28.072L276.566 29.08C276.062 28.3333 275.437 27.7827 274.69 27.428C273.944 27.0733 273.132 26.896 272.254 26.896C271.209 26.896 270.266 27.1387 269.426 27.624C268.586 28.0907 267.924 28.7533 267.438 29.612C266.953 30.4707 266.71 31.4787 266.71 32.636C266.71 33.7933 266.953 34.8013 267.438 35.66C267.924 36.5187 268.586 37.1907 269.426 37.676C270.266 38.1427 271.209 38.376 272.254 38.376C273.132 38.376 273.944 38.1987 274.69 37.844C275.437 37.4893 276.062 36.948 276.566 36.22L278.05 37.228C277.472 38.18 276.678 38.908 275.67 39.412C274.662 39.8973 273.533 40.14 272.282 40.14ZM281.737 40V19.224H283.725V40H281.737ZM295.5 40.14C293.97 40.14 292.626 39.8227 291.468 39.188C290.311 38.5347 289.406 37.648 288.752 36.528C288.099 35.3893 287.772 34.092 287.772 32.636C287.772 31.18 288.08 29.892 288.696 28.772C289.331 27.652 290.19 26.7747 291.272 26.14C292.374 25.4867 293.606 25.16 294.968 25.16C296.35 25.16 297.572 25.4773 298.636 26.112C299.719 26.728 300.568 27.6053 301.184 28.744C301.8 29.864 302.108 31.1613 302.108 32.636C302.108 32.7293 302.099 32.832 302.08 32.944C302.08 33.0373 302.08 33.14 302.08 33.252H289.284V31.768H301.016L300.232 32.356C300.232 31.292 299.999 30.3493 299.532 29.528C299.084 28.688 298.468 28.0347 297.684 27.568C296.9 27.1013 295.995 26.868 294.968 26.868C293.96 26.868 293.055 27.1013 292.252 27.568C291.45 28.0347 290.824 28.688 290.376 29.528C289.928 30.368 289.704 31.3293 289.704 32.412V32.72C289.704 33.84 289.947 34.8293 290.432 35.688C290.936 36.528 291.627 37.1907 292.504 37.676C293.4 38.1427 294.418 38.376 295.556 38.376C296.452 38.376 297.283 38.2173 298.048 37.9C298.832 37.5827 299.504 37.0973 300.064 36.444L301.184 37.732C300.531 38.516 299.71 39.1133 298.72 39.524C297.75 39.9347 296.676 40.14 295.5 40.14Z" fill="#F5F5F5"/>
</svg>
