<svg width="34" height="34" viewBox="0 0 34 34" fill="none" xmlns="http://www.w3.org/2000/svg">
<path d="M18.4875 27.5117C17.7225 27.5117 16.915 27.4409 16.0367 27.2992L9.3925 26.2509C7.29583 25.9251 5.68083 25.3442 4.47667 24.4942C1.37417 22.3409 1.55833 18.6434 1.955 16.0509L3.00333 9.40672C3.96666 3.31505 7.11166 1.03422 13.2033 1.98339L19.8475 3.03172C22.9783 3.52755 27.1858 4.78839 27.455 10.0726C27.5117 10.9792 27.455 12.0134 27.2567 13.2317L26.2225 19.8759C25.4008 25.0751 22.9783 27.5117 18.4875 27.5117ZM10.6675 3.89589C7.29583 3.89589 5.76583 5.61005 5.1 9.74672L4.05166 16.3909C3.4 20.5701 4.59 21.9867 5.695 22.7659C6.63 23.4317 7.9475 23.8851 9.71833 24.1542L16.3625 25.2026C21.3067 25.9817 23.3467 24.4942 24.1258 19.5359L25.16 12.8917C25.33 11.8292 25.3867 10.9367 25.33 10.1859V10.1717C25.1742 7.19672 23.4883 5.73755 19.5075 5.11422L12.8775 4.08005C12.0558 3.95255 11.3333 3.89589 10.6675 3.89589Z" fill="#FFC000"/>
<path d="M20.7967 32.2292C19.5925 32.2292 18.2325 31.9742 16.66 31.45L10.2708 29.325C6.63 28.1208 4.66083 26.3925 4.06583 23.8708C3.96667 23.4458 4.13667 22.9925 4.505 22.7517C4.87333 22.5108 5.355 22.5108 5.70917 22.7658C6.64417 23.4317 7.9475 23.885 9.71833 24.1542L16.3625 25.2025C21.3067 25.9817 23.3467 24.4942 24.1258 19.5358L25.16 12.8917C25.33 11.8292 25.3867 10.9367 25.33 10.1858C25.3158 9.81751 25.5 9.44918 25.8258 9.23668C26.1517 9.02418 26.5625 9.01001 26.9025 9.19418C30.6992 11.22 31.705 14.4642 30.0617 19.4225L27.9367 25.8117C26.9308 28.815 25.6133 30.6567 23.7717 31.5775C22.8792 32.0167 21.9017 32.2292 20.7967 32.2292ZM8.1175 26.01C8.7975 26.4633 9.70417 26.9025 10.9367 27.3133L17.3258 29.4383C19.7625 30.2458 21.505 30.3167 22.8083 29.6792C24.1117 29.0275 25.1033 27.5825 25.9108 25.1458L28.0358 18.7567C29.1975 15.2433 28.7442 13.3733 27.3983 12.1125C27.37 12.4667 27.3133 12.835 27.2567 13.2317L26.2225 19.8758C25.2592 25.9675 22.1142 28.2483 16.0225 27.3133L9.37833 26.265C8.93917 26.18 8.51417 26.095 8.1175 26.01Z" fill="#FFC000"/>
<path d="M11.6733 13.77C9.7325 13.77 8.14584 12.1833 8.14584 10.2425C8.14584 8.30163 9.7325 6.71497 11.6733 6.71497C13.6142 6.71497 15.2008 8.30163 15.2008 10.2425C15.2008 12.1833 13.6142 13.77 11.6733 13.77ZM11.6733 8.85413C10.9083 8.85413 10.2708 9.47747 10.2708 10.2566C10.2708 11.0358 10.8942 11.6591 11.6733 11.6591C12.4383 11.6591 13.0758 11.0358 13.0758 10.2566C13.0758 9.47747 12.4383 8.85413 11.6733 8.85413Z" fill="#FFC000"/>
</svg>
