<svg width="24" height="24" viewBox="0 0 24 24" fill="none" xmlns="http://www.w3.org/2000/svg">
<path d="M12.02 20.53C9.69001 20.53 7.36001 20.16 5.15001 19.42C4.31001 19.13 3.67001 18.54 3.39001 17.77C3.10001 17 3.20001 16.15 3.66001 15.39L4.81001 13.48C5.05001 13.08 5.27001 12.28 5.27001 11.81V8.92004C5.27001 5.20004 8.30001 2.17004 12.02 2.17004C15.74 2.17004 18.77 5.20004 18.77 8.92004V11.81C18.77 12.27 18.99 13.08 19.23 13.49L20.37 15.39C20.8 16.11 20.88 16.98 20.59 17.77C20.3 18.56 19.67 19.16 18.88 19.42C16.68 20.16 14.35 20.53 12.02 20.53ZM12.02 3.67004C9.13001 3.67004 6.77001 6.02004 6.77001 8.92004V11.81C6.77001 12.54 6.47001 13.62 6.10001 14.25L4.95001 16.16C4.73001 16.53 4.67001 16.92 4.80001 17.25C4.92001 17.59 5.22001 17.85 5.63001 17.99C9.81001 19.39 14.24 19.39 18.42 17.99C18.78 17.87 19.06 17.6 19.19 17.24C19.32 16.88 19.29 16.49 19.09 16.16L17.94 14.25C17.56 13.6 17.27 12.53 17.27 11.8V8.92004C17.27 6.02004 14.92 3.67004 12.02 3.67004Z" fill="#FFC000"/>
<path d="M13.88 3.94005C13.81 3.94005 13.74 3.93005 13.67 3.91005C13.38 3.83005 13.1 3.77005 12.83 3.73005C11.98 3.62005 11.16 3.68005 10.39 3.91005C10.11 4.00005 9.80999 3.91005 9.61999 3.70005C9.42999 3.49005 9.36999 3.19005 9.47999 2.92005C9.88999 1.87005 10.89 1.18005 12.03 1.18005C13.17 1.18005 14.17 1.86005 14.58 2.92005C14.68 3.19005 14.63 3.49005 14.44 3.70005C14.29 3.86005 14.08 3.94005 13.88 3.94005Z" fill="#FFC000"/>
<path d="M12.02 22.8101C11.03 22.8101 10.07 22.4101 9.37 21.7101C8.67 21.0101 8.27 20.0501 8.27 19.0601H9.77C9.77 19.6501 10.01 20.2301 10.43 20.6501C10.85 21.0701 11.43 21.3101 12.02 21.3101C13.26 21.3101 14.27 20.3001 14.27 19.0601H15.77C15.77 21.1301 14.09 22.8101 12.02 22.8101Z" fill="#FFC000"/>
</svg>
