<svg width="360" height="226" viewBox="0 0 360 226" fill="none" xmlns="http://www.w3.org/2000/svg">
<g clip-path="url(#clip0_193_1255)">
<path d="M360 92.8205H359.392V76.1849C359.392 74.9206 359.143 73.6685 358.658 72.5004C358.174 71.3322 357.464 70.2708 356.569 69.3768C355.673 68.4827 354.611 67.7735 353.441 67.2897C352.272 66.8058 351.018 66.5568 349.752 66.5568H314.465C313.199 66.5568 311.945 66.8058 310.776 67.2897C309.606 67.7735 308.544 68.4827 307.648 69.3768C306.753 70.2708 306.043 71.3322 305.559 72.5004C305.074 73.6685 304.825 74.9206 304.825 76.1849V167.449C304.825 168.713 305.074 169.965 305.559 171.133C306.043 172.301 306.753 173.363 307.648 174.257C308.544 175.151 309.606 175.86 310.776 176.344C311.945 176.828 313.199 177.077 314.465 177.077H349.752C351.018 177.077 352.272 176.828 353.441 176.344C354.611 175.86 355.673 175.151 356.569 174.257C357.464 173.363 358.174 172.301 358.658 171.133C359.143 169.965 359.392 168.713 359.392 167.449V104.662H360V92.8205Z" fill="#3F3D56"/>
<path d="M357.341 76.7506V167.882C357.341 169.789 356.582 171.618 355.232 172.967C353.882 174.315 352.05 175.073 350.141 175.073H314.684C313.738 175.073 312.802 174.887 311.929 174.525C311.056 174.164 310.262 173.634 309.594 172.966C308.926 172.298 308.396 171.506 308.034 170.633C307.673 169.761 307.487 168.826 307.487 167.882V76.7506C307.487 74.8443 308.245 73.016 309.595 71.668C310.945 70.32 312.775 69.5626 314.684 69.5626H318.985C318.774 70.0813 318.694 70.6438 318.752 71.2007C318.809 71.7576 319.003 72.2918 319.316 72.7564C319.628 73.2211 320.05 73.6019 320.545 73.8654C321.04 74.1288 321.591 74.2669 322.152 74.2675H342.368C342.929 74.2686 343.482 74.1315 343.978 73.8685C344.473 73.6055 344.896 73.2245 345.209 72.7594C345.522 72.2943 345.716 71.7593 345.772 71.2017C345.829 70.6442 345.748 70.0812 345.535 69.5626H350.141C352.05 69.5625 353.881 70.3197 355.231 71.6676C356.581 73.0156 357.34 74.8439 357.341 76.7506Z" fill="#D0CDE1"/>
<path d="M350.628 116.219H309.411V127.328H350.628V116.219Z" fill="#FFC000"/>
<path d="M352.264 125.368H312.355C312.094 125.368 311.845 125.264 311.661 125.08C311.477 124.897 311.374 124.647 311.373 124.388V114.586C311.374 114.326 311.477 114.077 311.661 113.893C311.845 113.709 312.094 113.606 312.355 113.606H352.264C352.524 113.606 352.773 113.709 352.957 113.893C353.141 114.077 353.245 114.326 353.245 114.586V124.388C353.245 124.647 353.141 124.897 352.957 125.08C352.773 125.264 352.524 125.368 352.264 125.368ZM312.355 114.259C312.268 114.259 312.185 114.294 312.123 114.355C312.062 114.416 312.028 114.499 312.028 114.586V124.388C312.028 124.474 312.062 124.557 312.123 124.619C312.185 124.68 312.268 124.714 312.355 124.714H352.264C352.35 124.714 352.434 124.68 352.495 124.619C352.556 124.557 352.591 124.474 352.591 124.388V114.586C352.591 114.499 352.556 114.416 352.495 114.355C352.434 114.294 352.35 114.259 352.264 114.259H312.355Z" fill="#3F3D56"/>
<path d="M319.224 122.427H313.99V123.081H319.224V122.427Z" fill="#3F3D56"/>
<path d="M326.421 122.427H321.187V123.081H326.421V122.427Z" fill="#3F3D56"/>
<path d="M333.618 122.427H328.384V123.081H333.618V122.427Z" fill="#3F3D56"/>
<path d="M340.814 122.427H335.58V123.081H340.814V122.427Z" fill="#3F3D56"/>
<path d="M348.011 122.427H342.777V123.081H348.011V122.427Z" fill="#3F3D56"/>
<path opacity="0.1" d="M357.341 158.616V167.882C357.341 169.789 356.582 171.618 355.232 172.967C353.882 174.315 352.05 175.073 350.141 175.073H314.684C313.738 175.073 312.802 174.887 311.929 174.525C311.056 174.164 310.262 173.634 309.594 172.966C308.926 172.298 308.396 171.506 308.034 170.633C307.673 169.761 307.487 168.826 307.487 167.882V125.257L357.341 158.616Z" fill="black"/>
<path d="M187.393 150.199H32.6637V226H187.393V150.199Z" fill="#D0CDE1"/>
<path opacity="0.1" d="M148.057 226H33.3179C33.1446 225.999 32.9785 225.93 32.8559 225.808C32.7333 225.686 32.6642 225.52 32.6637 225.347V150.853C32.6642 150.679 32.7333 150.513 32.8559 150.391C32.9785 150.269 33.1446 150.2 33.3179 150.199H34.7704L148.057 226Z" fill="black"/>
<path d="M344.085 160.328H104.304V160.981H344.085V160.328Z" fill="#F5F5F5"/>
<path d="M180.112 1.41073H111.583V0H80.5093V1.41073H11.6977C11.089 1.41073 10.4862 1.53049 9.92381 1.76316C9.36141 1.99583 8.8504 2.33687 8.41996 2.76679C7.98951 3.19671 7.64806 3.7071 7.41511 4.26882C7.18215 4.83055 7.06226 5.4326 7.06226 6.0406V99.7644C7.06225 100.992 7.55063 102.17 8.41995 103.038C9.28927 103.907 10.4683 104.394 11.6977 104.394H180.112C181.342 104.394 182.521 103.907 183.39 103.038C184.259 102.17 184.748 100.992 184.748 99.7644V6.0406C184.748 5.4326 184.628 4.83055 184.395 4.26882C184.162 3.7071 183.82 3.19671 183.39 2.76679C182.959 2.33687 182.448 1.99583 181.886 1.76316C181.324 1.53049 180.721 1.41073 180.112 1.41073Z" fill="#3F3D56"/>
<path d="M178.531 9.59167H13.2783V102.703H178.531V9.59167Z" fill="#D0CDE1"/>
<path d="M95.7637 7.05361C96.6997 7.05361 97.4586 6.29568 97.4586 5.36073C97.4586 4.42578 96.6997 3.66785 95.7637 3.66785C94.8276 3.66785 94.0687 4.42578 94.0687 5.36073C94.0687 6.29568 94.8276 7.05361 95.7637 7.05361Z" fill="#FFC000"/>
<path d="M62.432 44.3392H58.5065C58.2463 44.3389 57.9969 44.2356 57.8129 44.0518C57.6289 43.8681 57.5254 43.6189 57.5251 43.359V39.4383C57.5254 39.1784 57.6289 38.9293 57.8129 38.7455C57.9969 38.5618 58.2463 38.4584 58.5065 38.4581H62.432C62.6922 38.4584 62.9416 38.5618 63.1256 38.7455C63.3096 38.9293 63.4131 39.1784 63.4134 39.4383V43.359C63.4131 43.6189 63.3096 43.8681 63.1256 44.0518C62.9416 44.2356 62.6922 44.3389 62.432 44.3392ZM58.5065 39.1116C58.4198 39.1117 58.3367 39.1462 58.2753 39.2074C58.214 39.2687 58.1795 39.3517 58.1794 39.4383V43.359C58.1795 43.4457 58.214 43.5287 58.2753 43.59C58.3367 43.6512 58.4198 43.6857 58.5065 43.6858H62.432C62.5187 43.6857 62.6019 43.6512 62.6632 43.59C62.7245 43.5287 62.759 43.4457 62.7591 43.359V39.4383C62.759 39.3517 62.7245 39.2687 62.6632 39.2074C62.6019 39.1462 62.5187 39.1117 62.432 39.1116H58.5065Z" fill="#3F3D56"/>
<path d="M132.437 43.6858H57.8523V44.3392H132.437V43.6858Z" fill="#3F3D56"/>
<path d="M130.474 61.6558H113.136V66.8834H130.474V61.6558Z" fill="#FFC000"/>
<path d="M131.782 65.5765H115.753C115.493 65.5763 115.244 65.4729 115.06 65.2891C114.876 65.1054 114.772 64.8562 114.772 64.5964V60.6756C114.772 60.4157 114.876 60.1666 115.06 59.9828C115.244 59.7991 115.493 59.6957 115.753 59.6954H131.782C132.042 59.6957 132.292 59.7991 132.476 59.9828C132.66 60.1666 132.763 60.4157 132.764 60.6756V64.5964C132.763 64.8562 132.66 65.1054 132.476 65.2891C132.292 65.4729 132.042 65.5763 131.782 65.5765ZM115.753 60.3489C115.666 60.349 115.583 60.3835 115.522 60.4447C115.461 60.506 115.426 60.589 115.426 60.6756V64.5964C115.426 64.683 115.461 64.766 115.522 64.8273C115.583 64.8885 115.666 64.923 115.753 64.9231H131.782C131.869 64.923 131.952 64.8885 132.013 64.8273C132.075 64.766 132.109 64.683 132.109 64.5964V60.6756C132.109 60.589 132.075 60.506 132.013 60.4447C131.952 60.3835 131.869 60.349 131.782 60.3489H115.753Z" fill="#3F3D56"/>
<path d="M262.959 67.5369H230.247V90.4078H262.959V67.5369Z" fill="#FFC000"/>
<path d="M266.23 88.6109H234.826C234.479 88.6105 234.147 88.4727 233.901 88.2277C233.656 87.9826 233.518 87.6504 233.518 87.3039V65.7399C233.518 65.3934 233.656 65.0612 233.901 64.8162C234.147 64.5712 234.479 64.4334 234.826 64.433H266.23C266.577 64.4334 266.91 64.5712 267.155 64.8162C267.4 65.0612 267.538 65.3934 267.539 65.7399V87.3039C267.538 87.6504 267.4 87.9826 267.155 88.2277C266.91 88.4727 266.577 88.6105 266.23 88.6109ZM234.826 65.7399V87.3039H266.231L266.23 65.7399H234.826Z" fill="#3F3D56"/>
<path d="M262.632 64.923H261.323C261.323 62.0635 260.186 59.321 258.162 57.299C256.137 55.277 253.391 54.141 250.528 54.141C247.665 54.141 244.919 55.277 242.895 57.299C240.871 59.321 239.733 62.0635 239.733 64.923H238.425C238.425 61.7169 239.7 58.642 241.97 56.3749C244.24 54.1078 247.318 52.8341 250.528 52.8341C253.738 52.8341 256.817 54.1078 259.087 56.3749C261.357 58.642 262.632 61.7169 262.632 64.923Z" fill="#3F3D56"/>
<path d="M253.799 73.9081C253.8 73.3391 253.652 72.7799 253.37 72.2856C253.088 71.7914 252.681 71.3793 252.19 71.0902C251.7 70.8011 251.142 70.645 250.573 70.6373C250.003 70.6295 249.441 70.7705 248.943 71.0462C248.445 71.3219 248.027 71.7228 247.732 72.2092C247.436 72.6956 247.273 73.2506 247.258 73.8194C247.243 74.3882 247.377 74.9509 247.647 75.452C247.917 75.9531 248.313 76.3751 248.796 76.6763V80.1832C248.796 80.4103 248.841 80.6352 248.928 80.8451C249.015 81.055 249.143 81.2457 249.304 81.4063C249.464 81.5669 249.655 81.6943 249.865 81.7812C250.076 81.8682 250.301 81.9129 250.528 81.9129C250.988 81.9129 251.428 81.7307 251.753 81.4063C252.078 81.0819 252.26 80.6419 252.26 80.1832V76.6763C252.731 76.3834 253.119 75.9756 253.389 75.4913C253.658 75.007 253.799 74.4621 253.799 73.9081Z" fill="#3F3D56"/>
<path d="M98.252 183.852H93.0181V184.506H98.252V183.852Z" fill="#3F3D56"/>
<path d="M105.449 183.852H100.215V184.506H105.449V183.852Z" fill="#3F3D56"/>
<path d="M112.645 183.852H107.411V184.506H112.645V183.852Z" fill="#3F3D56"/>
<path d="M119.842 183.852H114.608V184.506H119.842V183.852Z" fill="#3F3D56"/>
<path d="M127.039 183.852H121.805V184.506H127.039V183.852Z" fill="#3F3D56"/>
<path d="M194.263 220.446H40.8418C40.4949 220.445 40.1623 220.308 39.917 220.063C39.6717 219.818 39.5337 219.485 39.5333 219.139V144.645C39.5337 144.298 39.6717 143.966 39.917 143.721C40.1623 143.476 40.4949 143.338 40.8418 143.338H194.263C194.61 143.338 194.942 143.476 195.188 143.721C195.433 143.966 195.571 144.298 195.571 144.645V219.139C195.571 219.485 195.433 219.818 195.188 220.063C194.942 220.308 194.61 220.445 194.263 220.446ZM40.8418 144.645V219.139H194.264L194.263 144.645H40.8418Z" fill="#3F3D56"/>
<path d="M47.7114 155.753C48.7954 155.753 49.6741 154.876 49.6741 153.793C49.6741 152.71 48.7954 151.833 47.7114 151.833C46.6274 151.833 45.7487 152.71 45.7487 153.793C45.7487 154.876 46.6274 155.753 47.7114 155.753Z" fill="#3F3D56"/>
<path d="M54.581 155.753C55.665 155.753 56.5438 154.876 56.5438 153.793C56.5438 152.71 55.665 151.833 54.581 151.833C53.497 151.833 52.6183 152.71 52.6183 153.793C52.6183 154.876 53.497 155.753 54.581 155.753Z" fill="#3F3D56"/>
<path d="M61.4507 155.753C62.5347 155.753 63.4134 154.876 63.4134 153.793C63.4134 152.71 62.5347 151.833 61.4507 151.833C60.3667 151.833 59.4879 152.71 59.4879 153.793C59.4879 154.876 60.3667 155.753 61.4507 155.753Z" fill="#3F3D56"/>
<path d="M132.109 188.426H87.9477C87.6875 188.426 87.438 188.323 87.2541 188.139C87.0701 187.955 86.9666 187.706 86.9663 187.446V176.337C86.9666 176.077 87.0701 175.828 87.2541 175.645C87.438 175.461 87.6875 175.357 87.9477 175.357H132.109C132.37 175.357 132.619 175.461 132.803 175.645C132.987 175.828 133.09 176.077 133.091 176.337V187.446C133.09 187.706 132.987 187.955 132.803 188.139C132.619 188.323 132.37 188.426 132.109 188.426ZM87.9477 176.011C87.8609 176.011 87.7778 176.045 87.7165 176.106C87.6551 176.168 87.6206 176.251 87.6206 176.337V187.446C87.6206 187.533 87.6551 187.616 87.7165 187.677C87.7778 187.738 87.8609 187.773 87.9477 187.773H132.109C132.196 187.773 132.279 187.738 132.341 187.677C132.402 187.616 132.436 187.533 132.437 187.446V176.337C132.436 176.251 132.402 176.168 132.341 176.106C132.279 176.045 132.196 176.011 132.109 176.011H87.9477Z" fill="#3F3D56"/>
<path d="M143.232 188.753C146.484 188.753 149.12 186.12 149.12 182.872C149.12 179.624 146.484 176.991 143.232 176.991C139.98 176.991 137.343 179.624 137.343 182.872C137.343 186.12 139.98 188.753 143.232 188.753Z" fill="#FFC000"/>
<path d="M145.194 188.099C143.965 188.099 142.763 187.735 141.741 187.053C140.719 186.371 139.923 185.402 139.452 184.267C138.982 183.133 138.859 181.885 139.098 180.681C139.338 179.476 139.93 178.37 140.799 177.502C141.669 176.634 142.776 176.043 143.982 175.803C145.187 175.564 146.437 175.687 147.573 176.156C148.709 176.626 149.679 177.422 150.362 178.443C151.045 179.464 151.41 180.664 151.41 181.892C151.408 183.538 150.752 185.115 149.587 186.279C148.422 187.443 146.842 188.098 145.194 188.099ZM145.194 176.337C144.094 176.337 143.019 176.663 142.105 177.273C141.19 177.884 140.477 178.751 140.057 179.766C139.636 180.781 139.526 181.898 139.74 182.975C139.955 184.053 140.484 185.042 141.262 185.819C142.04 186.596 143.031 187.125 144.109 187.339C145.188 187.554 146.306 187.444 147.323 187.023C148.339 186.603 149.207 185.891 149.818 184.978C150.429 184.064 150.755 182.99 150.755 181.892C150.754 180.419 150.167 179.007 149.125 177.966C148.082 176.925 146.669 176.339 145.194 176.337Z" fill="#3F3D56"/>
<path d="M145.282 184.21L142.115 181.047L143.04 180.123L145.107 182.187L150.875 174.001L151.945 174.753L145.282 184.21Z" fill="#3F3D56"/>
<path opacity="0.1" d="M141.894 102.703H13.2783V16.6458L141.894 102.703Z" fill="black"/>
<path d="M189.388 101.009H173.26V99.8479C173.26 99.8177 173.254 99.7878 173.242 99.7599C173.231 99.7319 173.214 99.7066 173.192 99.6852C173.171 99.6638 173.145 99.6469 173.117 99.6353C173.09 99.6238 173.06 99.6178 173.029 99.6178H167.5C167.469 99.6178 167.44 99.6238 167.412 99.6353C167.384 99.6469 167.358 99.6638 167.337 99.6852C167.315 99.7066 167.298 99.7319 167.287 99.7599C167.275 99.7878 167.269 99.8177 167.269 99.8479V101.009H163.813V99.8479C163.813 99.8177 163.807 99.7878 163.796 99.7599C163.784 99.7319 163.767 99.7066 163.746 99.6852C163.724 99.6638 163.699 99.6469 163.671 99.6353C163.643 99.6238 163.613 99.6178 163.583 99.6178H158.053C158.023 99.6178 157.993 99.6238 157.965 99.6353C157.937 99.6469 157.912 99.6638 157.89 99.6852C157.869 99.7066 157.852 99.7319 157.841 99.7599C157.829 99.7878 157.823 99.8177 157.823 99.8479V101.009H154.367V99.8479C154.367 99.8177 154.361 99.7878 154.349 99.7599C154.338 99.7319 154.321 99.7066 154.3 99.6852C154.278 99.6638 154.253 99.6469 154.225 99.6353C154.197 99.6238 154.167 99.6178 154.137 99.6178H148.607C148.577 99.6178 148.547 99.6238 148.519 99.6353C148.491 99.6469 148.466 99.6638 148.444 99.6852C148.423 99.7066 148.406 99.7319 148.394 99.7599C148.383 99.7878 148.377 99.8177 148.377 99.8479V101.009H144.921V99.8479C144.921 99.8177 144.915 99.7878 144.903 99.7599C144.892 99.7319 144.875 99.7066 144.853 99.6852C144.832 99.6638 144.806 99.6469 144.778 99.6353C144.751 99.6238 144.721 99.6178 144.69 99.6178H139.161C139.13 99.6178 139.101 99.6238 139.073 99.6353C139.045 99.6469 139.019 99.6638 138.998 99.6852C138.976 99.7066 138.959 99.7319 138.948 99.7599C138.936 99.7878 138.93 99.8177 138.93 99.8479V101.009H135.474V99.8479C135.474 99.8177 135.468 99.7878 135.457 99.7599C135.445 99.7319 135.428 99.7066 135.407 99.6852C135.385 99.6638 135.36 99.6469 135.332 99.6353C135.304 99.6238 135.274 99.6178 135.244 99.6178H129.714C129.684 99.6178 129.654 99.6238 129.626 99.6353C129.598 99.6469 129.573 99.6638 129.551 99.6852C129.53 99.7066 129.513 99.7319 129.502 99.7599C129.49 99.7878 129.484 99.8177 129.484 99.8479V101.009H126.028V99.8479C126.028 99.8177 126.022 99.7878 126.01 99.7599C125.999 99.7319 125.982 99.7066 125.961 99.6852C125.939 99.6638 125.914 99.6469 125.886 99.6353C125.858 99.6238 125.828 99.6178 125.798 99.6178H120.268C120.238 99.6178 120.208 99.6238 120.18 99.6353C120.152 99.6469 120.127 99.6638 120.105 99.6852C120.084 99.7066 120.067 99.7319 120.055 99.7599C120.044 99.7878 120.038 99.8177 120.038 99.8479V101.009H116.582V99.8479C116.582 99.8177 116.576 99.7878 116.564 99.7599C116.553 99.7319 116.536 99.7066 116.514 99.6852C116.493 99.6638 116.467 99.6469 116.439 99.6353C116.411 99.6238 116.382 99.6178 116.351 99.6178H73.0363C73.0061 99.6178 72.9761 99.6238 72.9482 99.6353C72.9202 99.6469 72.8948 99.6638 72.8734 99.6852C72.852 99.7066 72.8351 99.7319 72.8235 99.7599C72.8119 99.7878 72.8059 99.8177 72.8059 99.8479V101.009H69.35V99.8479C69.35 99.8177 69.344 99.7878 69.3324 99.7599C69.3208 99.7319 69.3039 99.7066 69.2825 99.6852C69.2611 99.6638 69.2357 99.6469 69.2077 99.6353C69.1798 99.6238 69.1498 99.6178 69.1196 99.6178H63.59C63.5597 99.6178 63.5298 99.6238 63.5018 99.6353C63.4739 99.6469 63.4485 99.6638 63.4271 99.6852C63.4057 99.7066 63.3887 99.7319 63.3771 99.7599C63.3656 99.7878 63.3596 99.8177 63.3596 99.8479V101.009H59.9036V99.8479C59.9036 99.8177 59.8977 99.7878 59.8861 99.7599C59.8745 99.7319 59.8575 99.7066 59.8361 99.6852C59.8147 99.6638 59.7893 99.6469 59.7614 99.6353C59.7334 99.6238 59.7035 99.6178 59.6732 99.6178H54.1437C54.1134 99.6178 54.0834 99.6238 54.0555 99.6353C54.0275 99.6469 54.0021 99.6638 53.9807 99.6852C53.9593 99.7066 53.9424 99.7319 53.9308 99.7599C53.9192 99.7878 53.9133 99.8177 53.9133 99.8479V101.009H50.4573V99.8479C50.4573 99.8177 50.4513 99.7878 50.4397 99.7599C50.4282 99.7319 50.4112 99.7066 50.3898 99.6852C50.3684 99.6638 50.343 99.6469 50.3151 99.6353C50.2871 99.6238 50.2571 99.6178 50.2269 99.6178H44.6973C44.6671 99.6178 44.6371 99.6238 44.6092 99.6353C44.5812 99.6469 44.5558 99.6638 44.5344 99.6852C44.513 99.7066 44.496 99.7319 44.4845 99.7599C44.4729 99.7878 44.4669 99.8177 44.4669 99.8479V101.009H41.0109V99.8479C41.0109 99.8177 41.005 99.7878 40.9934 99.7599C40.9818 99.7319 40.9649 99.7066 40.9435 99.6852C40.9221 99.6638 40.8967 99.6469 40.8687 99.6353C40.8408 99.6238 40.8108 99.6178 40.7805 99.6178H35.251C35.2207 99.6178 35.1908 99.6238 35.1628 99.6353C35.1348 99.6469 35.1094 99.6638 35.0881 99.6852C35.0667 99.7066 35.0497 99.7319 35.0381 99.7599C35.0265 99.7878 35.0206 99.8177 35.0206 99.8479V101.009H31.5646V99.8479C31.5646 99.8177 31.5587 99.7878 31.5471 99.7599C31.5355 99.7319 31.5185 99.7066 31.4971 99.6852C31.4757 99.6638 31.4503 99.6469 31.4224 99.6353C31.3944 99.6238 31.3645 99.6178 31.3342 99.6178H25.8046C25.7744 99.6178 25.7444 99.6238 25.7165 99.6353C25.6885 99.6469 25.6631 99.6638 25.6417 99.6852C25.6203 99.7066 25.6034 99.7319 25.5918 99.7599C25.5802 99.7878 25.5742 99.8177 25.5742 99.8479V101.009H22.1183V99.8479C22.1183 99.8177 22.1123 99.7878 22.1007 99.7599C22.0891 99.7319 22.0722 99.7066 22.0508 99.6852C22.0294 99.6638 22.004 99.6469 21.976 99.6353C21.9481 99.6238 21.9181 99.6178 21.8879 99.6178H16.3583C16.328 99.6178 16.2981 99.6238 16.2701 99.6353C16.2422 99.6469 16.2168 99.6638 16.1954 99.6852C16.174 99.7066 16.157 99.7319 16.1454 99.7599C16.1339 99.7878 16.1279 99.8177 16.1279 99.8479V101.009H5.52956C4.80341 101.009 4.08437 101.151 3.41349 101.429C2.74261 101.706 2.13304 102.113 1.61957 102.626C1.1061 103.139 0.698798 103.748 0.420912 104.418C0.143026 105.088 -4.29584e-07 105.806 0 106.531V109.029C3.47034e-06 110.493 0.582582 111.898 1.61958 112.934C2.65657 113.97 4.06303 114.552 5.52956 114.552H189.388C190.114 114.552 190.833 114.409 191.504 114.131C192.175 113.854 192.784 113.447 193.298 112.934C193.811 112.421 194.218 111.812 194.496 111.142C194.774 110.472 194.917 109.754 194.917 109.029V106.531C194.917 105.806 194.774 105.088 194.496 104.418C194.218 103.748 193.811 103.139 193.298 102.626C192.784 102.113 192.175 101.706 191.504 101.429C190.833 101.151 190.114 101.009 189.388 101.009Z" fill="#3F3D56"/>
<path d="M138.979 71.1309H52.6183C52.3581 71.1306 52.1087 71.0273 51.9247 70.8435C51.7407 70.6598 51.6372 70.4106 51.637 70.1507V34.2107C51.6372 33.9508 51.7407 33.7016 51.9247 33.5179C52.1087 33.3341 52.3581 33.2308 52.6183 33.2305H138.979C139.239 33.2308 139.489 33.3341 139.673 33.5179C139.857 33.7016 139.96 33.9508 139.96 34.2107V70.1507C139.96 70.4106 139.857 70.6598 139.673 70.8435C139.489 71.0273 139.239 71.1306 138.979 71.1309ZM52.6183 33.8839C52.5316 33.884 52.4485 33.9185 52.3871 33.9797C52.3258 34.041 52.2913 34.124 52.2912 34.2107V70.1507C52.2913 70.2374 52.3258 70.3204 52.3871 70.3816C52.4485 70.4429 52.5316 70.4774 52.6183 70.4775H138.979C139.066 70.4774 139.149 70.4429 139.21 70.3816C139.272 70.3204 139.306 70.2374 139.306 70.1507V34.2107C139.306 34.124 139.272 34.041 139.21 33.9797C139.149 33.9185 139.066 33.884 138.979 33.8839H52.6183Z" fill="#3F3D56"/>
<path d="M62.432 54.1411H58.5065C58.2463 54.1408 57.9969 54.0375 57.8129 53.8537C57.6289 53.67 57.5254 53.4208 57.5251 53.1609V49.2402C57.5254 48.9803 57.6289 48.7312 57.8129 48.5474C57.9969 48.3637 58.2463 48.2603 58.5065 48.26H62.432C62.6922 48.2603 62.9416 48.3637 63.1256 48.5474C63.3096 48.7312 63.4131 48.9803 63.4134 49.2402V53.1609C63.4131 53.4208 63.3096 53.67 63.1256 53.8537C62.9416 54.0375 62.6922 54.1408 62.432 54.1411ZM58.5065 48.9135C58.4198 48.9136 58.3367 48.948 58.2753 49.0093C58.214 49.0705 58.1795 49.1536 58.1794 49.2402V53.1609C58.1795 53.2476 58.214 53.3306 58.2753 53.3918C58.3367 53.4531 58.4198 53.4876 58.5065 53.4877H62.432C62.5187 53.4876 62.6019 53.4531 62.6632 53.3918C62.7245 53.3306 62.759 53.2476 62.7591 53.1609V49.2402C62.759 49.1536 62.7245 49.0705 62.6632 49.0093C62.6019 48.948 62.5187 48.9136 62.432 48.9135H58.5065Z" fill="#3F3D56"/>
<path d="M132.437 53.4875H57.8523V54.141H132.437V53.4875Z" fill="#3F3D56"/>
<path d="M326.421 88.1207H86.6392V88.7742H326.421V88.1207Z" fill="#F5F5F5"/>
<path d="M86.6392 92.695C89.1685 92.695 91.2189 90.6471 91.2189 88.1208C91.2189 85.5946 89.1685 83.5466 86.6392 83.5466C84.1099 83.5466 82.0594 85.5946 82.0594 88.1208C82.0594 90.6471 84.1099 92.695 86.6392 92.695Z" fill="#3F3D56"/>
<path d="M326.421 92.3682C328.408 92.3682 330.019 90.7591 330.019 88.7742C330.019 86.7893 328.408 85.1802 326.421 85.1802C324.434 85.1802 322.823 86.7893 322.823 88.7742C322.823 90.7591 324.434 92.3682 326.421 92.3682Z" fill="#3F3D56"/>
<path d="M344.086 164.575C346.073 164.575 347.684 162.966 347.684 160.981C347.684 158.996 346.073 157.387 344.086 157.387C342.098 157.387 340.487 158.996 340.487 160.981C340.487 162.966 342.098 164.575 344.086 164.575Z" fill="#3F3D56"/>
<path d="M105.285 164.575C107.273 164.575 108.884 162.966 108.884 160.981C108.884 158.996 107.273 157.387 105.285 157.387C103.298 157.387 101.687 158.996 101.687 160.981C101.687 162.966 103.298 164.575 105.285 164.575Z" fill="#3F3D56"/>
</g>
<defs>
<clipPath id="clip0_193_1255">
<rect width="360" height="226" fill="white"/>
</clipPath>
</defs>
</svg>
