<svg width="186" height="186" viewBox="0 0 186 186" fill="none" xmlns="http://www.w3.org/2000/svg">
<path d="M74.4 160.812C40.3775 160.812 25.1875 145.622 25.1875 111.6V74.4C25.1875 40.3775 40.3775 25.1875 74.4 25.1875H111.6C145.622 25.1875 160.812 40.3775 160.812 74.4C160.812 77.5775 158.177 80.2125 155 80.2125C151.823 80.2125 149.188 77.5775 149.188 74.4C149.188 46.655 139.345 36.8125 111.6 36.8125H74.4C46.655 36.8125 36.8125 46.655 36.8125 74.4V111.6C36.8125 139.345 46.655 149.188 74.4 149.188C77.5775 149.188 80.2125 151.823 80.2125 155C80.2125 158.177 77.5775 160.812 74.4 160.812Z" fill="#F5F5F5"/>
<path d="M61.9222 132.525C60.6822 132.525 59.3647 132.138 58.2797 131.285C51.5372 125.938 48.3597 117.412 48.3597 104.625V81.375C48.3597 58.9 58.8222 48.4375 81.2972 48.4375H104.547C117.335 48.4375 125.782 51.615 131.207 58.3575C133.222 60.8375 132.757 64.5575 130.277 66.495C127.797 68.51 124.077 68.1225 122.14 65.565C120.28 63.1625 116.405 60.0625 104.625 60.0625H81.3747C65.2547 60.0625 60.0622 65.255 60.0622 81.375V104.625C60.0622 116.405 63.2397 120.28 65.5647 122.14C68.0447 124.155 68.5097 127.797 66.4947 130.277C65.3322 131.75 63.6272 132.525 61.9222 132.525Z" fill="#F5F5F5"/>
<path d="M62.0778 36.8125C58.8228 36.8125 56.2653 34.1775 56.2653 31V15.5C56.2653 12.3225 58.9003 9.6875 62.0778 9.6875C65.2553 9.6875 67.8903 12.3225 67.8903 15.5V31C67.8903 34.1775 65.2553 36.8125 62.0778 36.8125Z" fill="#F5F5F5"/>
<path d="M93 36.8125C89.8225 36.8125 87.1875 34.1775 87.1875 31V15.5C87.1875 12.3225 89.8225 9.6875 93 9.6875C96.1775 9.6875 98.8125 12.3225 98.8125 15.5V31C98.8125 34.1775 96.1775 36.8125 93 36.8125Z" fill="#F5F5F5"/>
<path d="M124 36.8125C120.823 36.8125 118.188 34.1775 118.188 31V15.5C118.188 12.3225 120.823 9.6875 124 9.6875C127.177 9.6875 129.812 12.3225 129.812 15.5V31C129.812 34.1775 127.177 36.8125 124 36.8125Z" fill="#F5F5F5"/>
<path d="M170.5 67.8125H155C151.823 67.8125 149.188 65.1775 149.188 62C149.188 58.8225 151.823 56.1875 155 56.1875H170.5C173.677 56.1875 176.312 58.8225 176.312 62C176.312 65.1775 173.755 67.8125 170.5 67.8125Z" fill="#F5F5F5"/>
<path d="M62.0778 176.312C58.9003 176.312 56.2653 173.677 56.2653 170.5V155C56.2653 151.823 58.9003 149.188 62.0778 149.188C65.2553 149.188 67.8903 151.823 67.8903 155V170.5C67.8903 173.677 65.2553 176.312 62.0778 176.312Z" fill="#F5F5F5"/>
<path d="M31 67.8125H15.5C12.3225 67.8125 9.6875 65.255 9.6875 62C9.6875 58.745 12.3225 56.1875 15.5 56.1875H31C34.1775 56.1875 36.8125 58.8225 36.8125 62C36.8125 65.1775 34.255 67.8125 31 67.8125Z" fill="#F5F5F5"/>
<path d="M31 98.8125H15.5C12.3225 98.8125 9.6875 96.1775 9.6875 93C9.6875 89.8225 12.3225 87.1875 15.5 87.1875H31C34.1775 87.1875 36.8125 89.8225 36.8125 93C36.8125 96.1775 34.255 98.8125 31 98.8125Z" fill="#F5F5F5"/>
<path d="M31 129.812H15.5C12.3225 129.812 9.6875 127.177 9.6875 124C9.6875 120.823 12.3225 118.188 15.5 118.188H31C34.1775 118.188 36.8125 120.823 36.8125 124C36.8125 127.177 34.255 129.812 31 129.812Z" fill="#F5F5F5"/>
<path d="M129.504 149.885C119.506 149.885 111.369 141.747 111.369 131.75C111.369 121.752 119.506 113.615 129.504 113.615C139.501 113.615 147.639 121.752 147.639 131.75C147.561 141.747 139.501 149.885 129.504 149.885ZM129.504 125.24C125.939 125.24 122.994 128.185 122.994 131.75C122.994 135.315 125.939 138.26 129.504 138.26C133.069 138.26 136.014 135.315 136.014 131.75C135.936 128.185 133.069 125.24 129.504 125.24Z" fill="#F5F5F5"/>
<path d="M142.599 176.313C138.259 176.313 133.997 174.065 131.672 170.035L131.129 169.183C130.277 167.71 129.579 167.323 129.424 167.245C129.347 167.245 128.572 167.71 127.719 169.183L127.254 169.958C123.689 176.08 115.862 178.095 109.894 174.53L102.919 170.5C99.7419 168.718 97.4944 165.773 96.5644 162.208C95.6344 158.72 96.0994 155 97.8819 151.9C98.7344 150.428 98.7344 149.575 98.6569 149.42C98.5794 149.343 97.8819 148.955 96.1769 148.955C88.6594 148.955 82.5369 142.832 82.5369 135.392V128.185C82.5369 120.668 88.6594 114.623 96.0994 114.623C97.8044 114.623 98.5019 114.158 98.6569 114.08C98.6569 114.003 98.6569 113.15 97.8044 111.678C96.0219 108.5 95.4794 104.858 96.4869 101.37C97.4169 97.8825 99.6644 94.9375 102.842 93.0775L109.894 88.97C115.784 85.4825 123.612 87.4975 127.099 93.5425L127.564 94.395C128.417 95.8675 129.114 96.255 129.269 96.3325C129.347 96.3325 130.122 95.8675 130.974 94.395L131.439 93.62C135.082 87.4975 142.832 85.4825 148.799 89.0475L156.007 93C159.184 94.7825 161.432 97.7275 162.362 101.293C163.292 104.78 162.827 108.5 161.044 111.6C160.192 113.072 160.192 113.925 160.269 114.08C160.347 114.158 161.044 114.545 162.749 114.545C170.267 114.545 176.389 120.668 176.389 128.108V135.315C176.389 142.832 170.267 148.877 162.827 148.877C161.122 148.877 160.424 149.343 160.269 149.42C160.269 149.498 160.269 150.35 161.122 151.823C162.904 155 163.447 158.643 162.439 162.13C161.509 165.618 159.262 168.563 156.084 170.423L149.032 174.53C146.939 175.693 144.769 176.313 142.599 176.313ZM129.502 155.62C134.152 155.62 138.414 158.41 141.282 163.37L141.747 164.223C141.979 164.61 142.599 164.842 143.064 164.532L150.194 160.425C150.814 160.115 151.047 159.495 151.124 159.185C151.202 158.875 151.279 158.333 150.969 157.713C148.102 152.83 147.869 147.715 150.194 143.685C152.519 139.655 157.092 137.33 162.749 137.33C163.834 137.33 164.764 136.4 164.764 135.392V128.185C164.764 127.1 163.834 126.248 162.827 126.248C157.169 126.248 152.519 123.923 150.272 119.893C147.947 115.863 148.257 110.748 151.047 105.865C151.434 105.245 151.357 104.625 151.202 104.393C151.124 104.083 150.892 103.54 150.272 103.153L143.219 99.045C142.677 98.735 142.057 98.9675 141.747 99.4325L141.359 100.13C138.492 105.09 134.229 107.88 129.579 107.88C124.929 107.88 120.667 105.09 117.799 100.13L117.334 99.355C117.102 98.89 116.404 98.735 116.017 98.9675L108.887 103.075C108.267 103.385 108.034 104.005 107.957 104.315C107.879 104.625 107.802 105.167 108.112 105.787C110.979 110.67 111.212 115.785 108.887 119.815C106.562 123.845 101.989 126.17 96.3319 126.17C95.2469 126.17 94.3169 127.1 94.3169 128.108V135.315C94.3169 136.4 95.2469 137.252 96.2544 137.252C101.912 137.252 106.562 139.578 108.809 143.608C111.134 147.638 110.824 152.753 108.034 157.635C107.724 158.255 107.802 158.798 107.879 159.108C107.957 159.418 108.189 159.96 108.809 160.348L115.862 164.455C116.404 164.765 117.024 164.533 117.334 164.068L117.722 163.293C120.512 158.41 124.852 155.62 129.502 155.62Z" fill="#F5F5F5"/>
</svg>
