<svg width="320" height="238" viewBox="0 0 320 238" fill="none" xmlns="http://www.w3.org/2000/svg">
<g clip-path="url(#clip0_193_1257)">
<path d="M294.805 57.8544C258.486 7.24955 181.763 -13.278 106.308 8.83066C66.4175 20.5188 27.9556 43.9378 8.89486 89.2846C-25.1783 170.347 46.3626 196.236 93.1426 204.487C115.763 208.477 137.067 215.179 156.535 224.304C191.561 240.72 253.557 255.267 300.307 186.885C334.191 137.322 318.997 91.5623 294.805 57.8544Z" fill="#F2F2F2"/>
<path d="M84.2374 67.8664C84.1358 67.0621 83.9303 66.2745 83.6261 65.5232C83.5873 65.3811 83.5194 65.2487 83.4267 65.1343C83.334 65.02 83.2185 64.9263 83.0876 64.8591C82.9126 64.8135 82.7292 64.8115 82.5533 64.8531L79.8098 65.2734C79.5802 65.2839 79.3604 65.3694 79.1839 65.5169C78.8266 65.8932 79.1784 66.499 79.1675 67.0181C79.1552 67.6019 78.6372 68.0756 78.0755 68.2324C77.5022 68.3484 76.9108 68.3411 76.3405 68.2109L72.5043 67.614C73.6341 67.2528 74.6397 66.5809 75.4064 65.6749C75.9112 65.0761 76.1798 63.9581 75.4502 63.6746C75.2334 63.615 75.0074 63.5968 74.7839 63.621C73.0459 63.6345 71.6782 62.1815 70.0511 61.5696C69.0097 61.2032 67.8793 61.1759 66.8216 61.4917C65.7638 61.8074 64.8328 62.45 64.1617 63.3275L66.2053 63.4261C66.3975 63.4155 66.5882 63.4664 66.7496 63.5715C67.1975 63.9399 66.6407 64.6476 66.7038 65.2245C66.7857 65.9741 67.7797 66.1341 68.529 66.2099C69.2782 66.2857 70.2287 66.8952 69.8683 67.5573C66.1025 68.8561 62.2703 65.0184 58.3154 65.4909C57.3144 65.6104 56.3692 66.0041 55.3919 66.2517C49.422 67.7641 43.2502 63.7289 37.1516 64.5835C35.7958 64.8149 34.4633 65.1668 33.1698 65.6349C32.3398 65.9078 31.474 66.2027 30.871 66.8356C30.2679 67.4685 30.0383 68.5508 30.6097 69.2125C29.0349 69.3424 27.4496 69.1915 25.9275 68.7669C26.3391 68.996 26.6815 69.3318 26.9188 69.7391C27.1561 70.1464 27.2795 70.6102 27.2761 71.0817C24.8173 71.4831 22.4236 72.2139 20.1594 73.2544C20.582 73.9581 21.0756 74.6164 21.6324 75.2191L18.5197 77.2215C19.5713 77.4868 20.115 78.9227 19.5035 79.8194C20.5939 79.3337 21.2697 78.0772 22.4357 77.8224C23.1996 77.6555 23.9769 77.9684 24.7016 78.2623C25.4263 78.5563 26.2228 78.8413 26.973 78.6207C27.7232 78.4001 28.2766 77.4261 27.7999 76.8055C31.0064 75.8688 34.3203 75.3503 37.6595 75.2631C37.9171 75.2308 38.1783 75.2804 38.4062 75.405C38.8408 75.707 38.7265 76.3592 38.7031 76.8884C38.6797 77.4176 39.0916 78.1131 39.5639 77.8746C39.0082 78.3571 39.4833 79.2655 40.0165 79.7729C40.5496 80.2803 41.1923 80.9804 40.8658 81.6405C40.7807 81.8127 40.6362 81.9506 40.5542 82.1244C40.3122 82.6375 40.6964 83.2356 41.1495 83.5764C41.6026 83.9171 42.1577 84.1553 42.4725 84.6271C42.7872 85.0989 42.6443 85.9248 42.0814 85.9907L40.4816 83.9568C39.935 84.5243 39.5603 85.2354 39.4009 86.0074C41.0974 87.3961 41.3526 90.2225 39.9323 91.8932C39.2065 92.7469 38.1743 93.2657 37.2735 93.9317C36.3727 94.5976 35.5391 95.5459 35.5414 96.6671C35.5453 98.6041 35.3872 100.404 36.1122 102.2C37.4489 105.511 38.9922 108.735 40.733 111.853C41.1902 112.671 41.781 113.568 42.707 113.709C41.5367 110.857 40.4831 107.959 39.5463 105.018C40.1565 105.02 40.8616 105.069 41.2192 105.564C41.5154 105.973 41.4518 106.531 41.5438 107.028C41.6609 107.51 41.856 107.969 42.1216 108.388L47.7104 118.356C48.1737 119.183 48.7052 120.07 49.5906 120.404C50.1567 120.618 50.8117 120.578 51.3328 120.886C51.7412 121.127 52.0163 121.556 52.4327 121.783C53.61 122.426 55.2472 121.193 56.3474 121.961C56.662 122.18 56.8621 122.529 57.152 122.781C58.1682 123.662 59.8351 123.072 61.0081 123.73C61.7641 124.153 62.1559 125 62.5592 125.768C63.5693 127.691 65.2036 129.575 67.3683 129.728C68.0482 129.777 68.7428 129.648 69.4075 129.799C70.0721 129.95 70.7264 130.531 70.6197 131.205C70.4368 132.361 71.0071 133.627 70.854 134.787C70.575 136.9 67.5816 137.828 67.3245 139.944C67.2682 140.407 67.3563 140.885 67.2461 141.339C67.1111 141.895 66.6943 142.347 66.5461 142.9C66.2654 143.946 67.0145 144.988 67.8374 145.693C68.6602 146.397 69.6418 147.004 70.0917 147.99C70.5672 149.032 70.3336 150.247 70.4882 151.382C70.8258 153.86 72.9636 155.698 75.1636 156.882C75.8339 157.243 76.5536 157.593 76.9875 158.219C77.5537 159.036 77.4973 160.113 77.6864 161.09C78.1495 163.481 80.16 165.451 80.2171 167.887C80.2577 169.617 79.2968 171.188 78.7228 172.821C78.1846 174.386 77.9899 176.048 78.1518 177.695C78.3138 179.342 78.8286 180.935 79.6612 182.364C80.0906 183.09 80.6042 183.775 80.908 184.562C81.45 185.967 81.2741 187.563 81.7739 188.983C82.4347 190.861 84.2504 192.412 84.0766 194.395C84.9009 196.109 86.7211 196.951 88.5515 197.461L91.8318 198.375C92.4599 198.55 93.1163 198.727 93.7559 198.6C94.3955 198.473 95.0058 197.941 94.9893 197.289C93.3807 196.926 91.7205 196.539 90.3944 195.558C89.0683 194.576 88.1599 192.828 88.6631 191.256C88.8964 190.527 89.3927 189.685 88.9208 189.082C88.6506 188.737 88.1566 188.647 87.8519 188.333C87.3765 187.842 87.5398 187.017 87.8815 186.425C88.2233 185.833 88.7172 185.304 88.855 184.634C88.9246 184.26 88.8781 183.873 88.7218 183.525C88.5655 183.178 88.3068 182.887 87.9804 182.691C88.5887 182.461 89.1418 182.105 89.6041 181.647C90.0311 181.159 90.2283 180.407 89.8924 179.851C90.8899 179.978 92.0674 180.04 92.7222 179.276C93.2451 178.666 93.2092 177.754 93.0026 176.977C92.796 176.2 92.4468 175.446 92.4359 174.642C94.7368 174.751 97.0428 174.673 99.3311 174.408C99.0002 173.292 98.2483 172.349 97.2347 171.779C98.2711 171.603 99.2153 170.361 99.5427 169.361C99.8701 168.361 99.7866 167.272 99.5842 166.239C99.5065 165.973 99.4958 165.692 99.5532 165.421C99.6699 165.048 100.035 164.821 100.373 164.627L105.517 161.669C105.824 161.515 106.103 161.309 106.34 161.061C106.879 160.427 106.799 159.47 106.523 158.685C106.247 157.899 105.805 157.161 105.699 156.335C105.381 153.866 108.021 152.094 108.912 149.77C109.261 148.858 109.333 147.866 109.4 146.892C109.473 145.845 109.478 144.629 108.676 143.954C107.906 143.307 106.704 143.452 105.898 142.85C105.16 142.299 104.905 141.228 104.099 140.782C103.367 140.378 102.448 140.635 101.634 140.445C100.199 140.11 99.2968 138.455 97.832 138.301C97.0056 138.215 96.0702 138.619 95.3928 138.137C94.7959 137.713 94.772 136.859 94.6584 136.135C94.4593 135.009 93.9205 133.972 93.1145 133.162C92.3085 132.353 91.2741 131.81 90.1506 131.607C89.2985 131.47 88.371 131.522 87.646 131.053C86.912 130.578 86.5754 129.689 85.9988 129.032C85.0695 127.972 83.6059 127.596 82.2349 127.273L76.658 125.96C75.668 125.727 74.3919 125.604 73.8607 126.472C73.7034 126.803 73.5921 127.153 73.5298 127.514C73.3307 128.167 72.9301 128.739 72.3855 129.15C71.8409 129.56 71.1804 129.787 70.4988 129.798C70.0315 129 69.2743 128.413 68.3852 128.161C67.8197 128.003 67.2144 127.985 66.6751 127.753C66.3814 127.61 66.12 127.408 65.9069 127.159C65.6939 126.911 65.5337 126.622 65.4361 126.31C65.3385 125.997 65.3057 125.668 65.3395 125.343C65.3733 125.017 65.4731 124.702 65.6328 124.417C65.9543 123.843 66.0785 123.18 65.9861 122.529C65.8938 121.878 65.59 121.276 65.1218 120.815C64.1734 119.963 62.8015 119.757 61.5298 119.842C61.1967 119.114 61.7536 118.293 62.3537 117.764C62.9539 117.236 63.6826 116.716 63.8133 115.926C64.0188 114.684 62.4359 113.74 61.2341 114.111C60.0322 114.481 59.2651 115.65 58.7581 116.802C58.4671 117.463 58.2198 118.16 57.7608 118.717C57.3019 119.274 56.5629 119.674 55.8638 119.495C54.8742 119.241 54.492 118.064 54.273 117.065C53.9791 115.725 53.6835 114.366 53.7451 112.995C53.8067 111.624 54.2682 110.217 55.2778 109.289C56.9228 107.777 59.4465 107.925 61.6667 108.166C61.1421 107.574 61.2718 106.577 61.833 106.02C62.1292 105.757 62.4852 105.569 62.8701 105.475C63.255 105.38 63.6571 105.381 64.0416 105.477C64.7106 105.616 65.3133 105.977 65.7526 106.501C66.3835 107.271 66.5629 108.311 67.0398 109.185C67.5167 110.06 68.589 110.805 69.4667 110.336C70.2247 109.931 70.3451 108.879 70.1564 108.039C69.9677 107.2 69.567 106.384 69.6353 105.526C69.7657 103.889 71.46 102.904 72.9551 102.23C74.4502 101.556 76.1621 100.65 76.399 99.0255C76.4071 98.7074 76.467 98.3928 76.5764 98.0941C76.7422 97.8302 76.9727 97.6132 77.2458 97.4637C81.6093 94.5764 86.0453 91.6538 91.0325 90.0761C91.292 89.994 91.3224 90.0852 91.5869 90.0209C91.9569 89.8067 91.7117 89.2143 91.3569 88.9756C91.0021 88.737 90.5278 88.5539 90.4378 88.1355C90.3716 87.828 90.5526 87.526 90.5996 87.2149C90.7152 86.4505 89.8019 85.7448 89.0927 86.0504C88.692 85.5191 89.4847 84.9019 90.1257 84.7252C92.0504 84.1948 94.0262 83.8716 96.0194 83.7612C96.2494 83.7245 96.485 83.7647 96.69 83.8754C97.0248 84.1076 96.982 84.6401 96.7448 84.9716C96.5075 85.303 96.1384 85.5111 95.8428 85.7915C95.5198 86.1066 95.2894 86.5045 95.1767 86.9417C95.0641 87.379 95.0736 87.8388 95.2042 88.271C96.2447 88.801 97.376 89.3465 98.5284 89.1598C99.6809 88.9731 100.704 87.6766 100.162 86.6411C99.6576 85.6768 98.1424 85.4593 97.8818 84.4025C97.5767 83.1651 99.3261 82.0646 98.932 80.8528C98.7594 80.3219 98.2311 80.0095 97.8256 79.6262C97.3468 79.1563 97.0211 78.5524 96.8913 77.8938C96.7615 77.2352 96.8336 76.5527 97.0983 75.9359C96.4379 76.0522 95.7593 76.0083 95.1194 75.8078C94.4794 75.6073 93.8969 75.256 93.4205 74.7835C92.5408 73.8946 91.8391 72.4924 90.5899 72.5321C89.4436 72.5686 88.4562 73.9077 87.3844 73.4992C87.1207 73.3987 86.8427 73.1941 86.5872 73.314C86.5034 73.3684 86.4331 73.4412 86.3816 73.5268C86.3301 73.6124 86.2987 73.7087 86.2898 73.8082C86.0174 75.1122 86.486 76.5979 85.7762 77.7247C85.0038 78.9508 83.2173 79.1208 82.2809 80.2265C81.7727 80.8267 81.5757 81.6355 81.1085 82.2683C80.6413 82.9011 79.6497 83.3034 79.089 82.752C79.3646 82.1847 79.4398 81.5407 79.3025 80.9251C79.1651 80.3095 78.8233 79.7588 78.3328 79.3629C77.8123 79.0229 77.2512 78.7496 76.6626 78.5495C76.005 78.2708 75.3794 77.9216 74.7967 77.5082C74.5048 77.3319 74.2677 77.0778 74.1117 76.7743C73.9884 76.3943 74.005 75.9826 74.1586 75.6138C74.4429 74.7976 74.9444 74.0747 75.6091 73.5231C76.2738 72.9715 77.0763 72.6122 77.93 72.4839C78.6765 72.3822 79.5454 72.418 80.0394 71.8485C80.3008 71.5471 80.438 71.0915 80.8174 70.9691C81.0601 70.9203 81.3121 70.9514 81.5357 71.0577L84.3221 72.0397C84.633 72.1803 84.9752 72.2369 85.3147 72.2041C85.4831 72.1814 85.6366 72.0958 85.7445 71.9644C85.8525 71.8331 85.9068 71.6657 85.8966 71.496C85.8076 71.0326 85.0956 70.8103 85.1604 70.343C85.1967 70.1915 85.278 70.0547 85.3936 69.9505C86.3992 68.8788 87.6289 68.043 88.9949 67.5029C90.3608 66.9628 91.8291 66.7318 93.2946 66.8264C93.6463 67.4047 93.0901 68.0896 92.6273 68.5833C92.1645 69.077 91.7926 69.9592 92.3523 70.3392C92.5816 70.4564 92.8368 70.514 93.0942 70.5065C93.7802 70.5995 94.4469 70.802 95.0689 71.1062C96.0318 71.5258 96.9761 71.9849 97.902 72.4834C97.8203 71.8722 97.7422 71.2282 97.9736 70.6566C98.205 70.0851 98.8626 69.6368 99.4371 69.8593C99.9907 70.0739 100.275 70.8078 100.864 70.8751C101.651 70.9648 101.962 69.801 101.633 69.0796C101.304 68.3583 100.654 67.7543 100.599 66.9633C100.563 66.4297 100.766 65.7678 100.34 65.4447C100.188 65.3477 100.016 65.2873 99.8376 65.2684L89.208 63.3098C88.5768 63.1935 87.6648 63.2827 87.6368 63.9247C87.6212 64.283 87.9409 64.6376 87.7993 64.9671C87.6481 65.3188 87.1517 65.2866 86.7901 65.411C86.229 65.604 85.9474 66.2711 86.0013 66.8627C86.1 67.4505 86.3273 68.0092 86.6671 68.4986C85.9757 68.2091 84.9288 68.1559 84.2374 67.8664Z" fill="#3F3D56"/>
<path d="M75.7561 58.8316C75.0858 58.6095 74.3635 58.5992 73.6871 58.802C73.0108 59.0048 72.413 59.411 71.975 59.9654C71.8 60.1962 71.653 60.5143 71.7995 60.7641C72.0096 61.1223 72.5449 60.9808 72.9395 60.8527C73.5195 60.6452 74.1509 60.6301 74.7401 60.8097C75.1107 60.9371 75.4422 61.1622 75.8144 61.2848C75.9956 61.3607 76.1939 61.3857 76.3882 61.3573C76.5826 61.3289 76.7655 61.248 76.9174 61.1234C77.1728 60.8626 77.1889 60.457 77.1893 60.0917C77.207 59.9695 77.1973 59.8448 77.1607 59.7269C77.1242 59.6089 77.0618 59.5006 76.9782 59.4098C76.8292 59.3234 76.6618 59.2738 76.4898 59.2652C76.1047 59.1938 75.7566 58.9901 75.5054 58.6893" fill="#3F3D56"/>
<path d="M79.5889 57.763C79.4389 57.7548 79.2893 57.7854 79.1545 57.8519C79.0197 57.9183 78.9043 58.0183 78.8193 58.1424C78.7343 58.2664 78.6826 58.4102 78.6692 58.56C78.6557 58.7099 78.681 58.8606 78.7426 58.9978C79.2032 59.1236 79.6845 59.155 80.1576 59.0902C80.3936 59.0535 80.6134 58.9477 80.7894 58.7861C80.9655 58.6246 81.0898 58.4144 81.1467 58.1822C80.5897 58.2837 80.0149 58.1738 79.5345 57.8739" fill="#3F3D56"/>
<path d="M92.4483 55.9785C91.1945 56.2454 89.9765 56.6597 88.8197 57.2127C89.365 57.4226 89.8286 57.8024 90.1421 58.296C90.4556 58.7896 90.6024 59.371 90.561 59.9546C90.512 60.1786 90.5177 60.4111 90.5775 60.6324C90.7108 60.9559 91.0969 61.0773 91.4364 61.1604C92.0464 61.3462 92.6833 61.4276 93.3204 61.4011C93.639 61.3844 93.9485 61.2884 94.2208 61.1218C94.4931 60.9552 94.7195 60.7233 94.8798 60.447C94.9721 60.1847 95.0804 59.9284 95.2041 59.6794C96.0178 58.4385 98.4354 59.939 99.3091 58.7396C99.6169 58.317 99.5887 57.6811 99.9899 57.3463C100.198 57.2004 100.438 57.1085 100.69 57.0788C102.447 56.7293 104.222 56.4762 106.006 56.3206C106.852 56.247 107.954 55.9429 107.961 55.0931C104.776 54.4667 101.474 54.9116 98.5671 56.3585C97.5199 56.8836 96.1349 57.9884 95.1262 57.2921C94.7485 57.0314 94.7672 56.3294 94.2474 56.0363C93.716 55.7366 93.0125 55.8585 92.4483 55.9785Z" fill="#3F3D56"/>
<path d="M102.864 57.9289L104.36 58.2166C104.084 58.2044 103.81 58.2511 103.554 58.3536C103.298 58.4561 103.067 58.612 102.876 58.8109C102.686 59.0099 102.539 59.2473 102.447 59.5074C102.356 59.7674 102.32 60.0441 102.343 60.3189C103.744 60.7872 105.27 60.3315 106.745 60.3937C108.22 60.456 109.936 61.5109 109.684 62.9673C109.608 63.4077 109.354 63.8478 109.486 64.2746C109.578 64.5739 109.842 64.7862 109.991 65.0617C110.301 65.636 110.053 66.3623 109.662 66.8843C109.27 67.4063 108.744 67.8228 108.401 68.3775C107.546 69.7572 108.032 71.5409 108.541 73.0823C108.688 73.6647 108.96 74.2082 109.337 74.6751C110.091 75.4779 111.32 75.5477 112.421 75.5638C113.222 75.5755 114.14 75.5359 114.646 74.9145C115.307 74.1031 114.845 72.8372 115.28 71.885C115.676 71.0202 116.683 70.6492 117.596 70.3861C119.269 69.904 120.973 69.4941 122.554 68.766C124.517 67.8618 126.352 66.4527 128.51 66.3363C129.115 66.3037 129.736 66.3752 130.319 66.2092C130.902 66.0431 131.456 65.5383 131.412 64.9328C131.374 64.4155 130.937 64.0357 130.595 63.6457C130.254 63.2558 129.986 62.6561 130.3 62.2435L135.956 61.1857C135.555 60.0917 135.242 58.6509 136.164 57.9388C136.496 57.6818 136.941 57.5791 137.224 57.2685C137.706 56.7391 137.464 55.8271 136.907 55.3769C136.35 54.9267 135.597 54.8221 134.884 54.7628C132.404 54.5566 129.91 54.6929 127.425 54.8292C122.568 55.0958 117.71 55.3624 112.853 55.629C111.875 55.6827 110.746 55.6007 109.849 55.9347C109.09 56.2175 108.55 56.7366 107.682 56.919C106.079 57.2556 104.315 57.0278 102.864 57.9289Z" fill="#3F3D56"/>
<path d="M129.649 69.762C129.497 69.7378 129.341 69.7732 129.214 69.8608C129.13 69.9534 129.08 70.0719 129.072 70.1968C128.976 70.7479 129.091 71.3152 129.394 71.7851C129.549 72.0156 129.762 72.2004 130.012 72.3204C130.262 72.4405 130.54 72.4913 130.816 72.4676C131.489 72.3817 131.985 71.8066 132.604 71.526C133.558 71.0939 137.609 70.4202 134.807 68.9043C133.841 68.3819 133.217 68.843 132.456 69.1871C131.59 69.6307 130.62 69.8295 129.649 69.762Z" fill="#3F3D56"/>
<path d="M154.194 57.073C153.867 57.2069 153.593 57.4455 153.416 57.7516C153.334 57.907 153.315 58.0879 153.363 58.257C153.411 58.426 153.521 58.5702 153.672 58.6597C153.795 58.7041 153.924 58.7247 154.054 58.7204L155.385 58.7602C155.95 58.7771 156.656 58.8976 156.808 59.443C156.92 59.848 156.668 60.3684 156.973 60.6578C157.103 60.7591 157.26 60.8205 157.425 60.8345C157.864 60.9473 158.321 60.9621 158.766 60.8779C159.734 60.6179 159.225 60.0262 159.53 59.4995C159.997 58.6934 159.916 59.1814 160.738 58.7194C161.345 58.3783 162.129 57.7594 161.623 56.8899C160.742 55.3779 155.495 56.4235 154.194 57.073Z" fill="#3F3D56"/>
<path d="M180.455 56.3129L179.683 56.4161C177.941 56.6489 176.188 56.8839 174.51 57.4077C175.237 57.6953 175.999 57.8825 176.776 57.9643C177.203 57.9852 177.628 58.0457 178.045 58.1449C178.786 58.3658 179.532 58.9362 180.249 58.644C180.692 58.4628 180.837 58 181.205 57.7547C181.459 57.5853 182.422 57.3111 182.53 57.1402C183.4 55.7581 181.124 56.2235 180.455 56.3129Z" fill="#3F3D56"/>
<path d="M183.848 59.8288C182.816 60.4066 181.858 61.1087 180.997 61.9194C180.634 62.2611 180.263 62.6861 180.296 63.1838C180.34 63.8454 181.043 64.2291 181.653 64.4876L184.123 65.5346C184.423 65.1118 184.148 64.5281 183.839 64.1126C183.529 63.697 183.161 63.2163 183.298 62.7162C183.454 62.1456 184.149 61.9512 184.732 61.8529C185.681 61.6927 188.242 61.7055 187.934 60.1736C187.572 58.3684 184.801 59.2954 183.848 59.8288Z" fill="#3F3D56"/>
<path d="M183.351 161.983C183.116 162.664 183.094 163.467 183.5 164.062C183.957 164.73 184.87 164.979 185.66 164.81C186.447 164.6 187.149 164.148 187.666 163.519C188.139 162.991 188.528 162.394 188.819 161.747C189.226 160.741 189.513 159.689 189.674 158.615L190.441 154.584C190.612 153.683 190.606 150.92 188.952 151.82C188.5 152.066 187.454 154.008 186.981 154.558C186.127 155.55 186.014 156.513 185.565 157.715C185.002 159.22 183.871 160.475 183.351 161.983Z" fill="#3F3D56"/>
<path d="M270.703 182.613C270.162 182.401 269.636 182.151 269.131 181.864C268.625 183.258 268.355 184.728 268.334 186.211L272.038 184.113C272.595 183.797 273.226 183.359 273.214 182.718C273.219 182.639 273.203 182.56 273.167 182.489C273.131 182.419 273.076 182.359 273.009 182.317C272.927 182.284 272.837 182.273 272.75 182.286C272.201 182.332 271.7 182.603 271.182 182.791C270.664 182.979 270.058 183.078 269.583 182.799" fill="#3F3D56"/>
<path d="M290.237 183.858C289.831 183.969 289.434 184.112 289.05 184.285C288.2 184.718 287.622 185.54 286.857 186.111C286.125 186.656 285.244 186.956 284.38 187.247C284.125 187.472 284.242 187.926 284.518 188.124C284.815 188.293 285.156 188.369 285.496 188.344C286.395 188.364 287.341 188.372 288.128 187.938C288.572 187.65 288.986 187.32 289.367 186.953C290.287 186.184 291.392 185.677 292.486 185.187C292.884 185.036 293.252 184.816 293.573 184.536C294.26 183.858 294.309 182.812 293.318 182.581C292.517 182.395 291 183.611 290.237 183.858Z" fill="#3F3D56"/>
<path d="M298.868 178.213C298.913 177.747 298.851 177.276 298.687 176.837C298.524 176.398 298.262 176.002 297.923 175.679C297.913 176.612 297.885 177.607 297.361 178.378C296.987 178.928 296.401 179.3 295.992 179.824C295.583 180.348 295.401 181.178 295.881 181.638C296.188 181.871 296.562 182 296.947 182.005C297.903 182.118 299.009 182.181 299.679 181.489C300.045 181.112 300.223 180.553 300.669 180.276C300.835 180.206 300.984 180.1 301.104 179.965C301.288 179.671 300.995 179.285 300.666 179.179C300.336 179.074 299.973 179.123 299.642 179.023C299.311 178.923 299.007 178.55 299.177 178.248" fill="#3F3D56"/>
<path d="M283.528 143.991C283.027 144.113 282.508 144.143 281.995 144.081C281.145 143.925 280.482 143.283 279.796 142.756C278.163 141.511 276.178 140.817 274.126 140.773C272.26 140.737 270.376 141.244 268.543 140.89C268.663 141.557 269.233 142.058 269.841 142.355C270.449 142.652 271.12 142.802 271.731 143.093C272.71 143.564 273.486 144.373 273.918 145.371C274.115 145.831 274.238 146.331 274.537 146.733C275.146 147.554 276.301 147.734 277.32 147.667C278.649 147.58 280.038 147.197 281.274 147.693C282.22 148.072 282.897 148.901 283.687 149.546C284.476 150.19 285.589 150.668 286.496 150.203C285.554 149.898 284.734 149.299 284.156 148.494C283.578 147.689 283.272 146.721 283.283 145.729C284.172 145.811 286.734 145.779 286.596 144.266C286.479 142.984 284.292 143.852 283.528 143.991Z" fill="#3F3D56"/>
<path d="M271.892 154.425C272.05 153.558 272.914 152.792 272.645 151.952C272.459 151.372 271.787 151.085 271.178 151.071C270.569 151.057 269.971 151.238 269.363 151.255C268.967 151.234 268.569 151.24 268.174 151.272C266.966 151.471 266.221 152.739 265.082 153.19C264.39 153.464 263.612 153.412 262.892 153.601C261.258 154.031 260.224 155.578 259.081 156.825C257.235 158.831 254.83 160.235 252.177 160.856C251.248 161.072 250.249 161.209 249.51 161.814C248.532 162.614 248.291 163.986 248.074 165.232C247.472 168.673 246.553 172.051 245.329 175.322L249.21 175.818C249.948 175.912 250.712 176.004 251.423 175.786C251.94 175.591 252.429 175.33 252.879 175.009C254.608 173.935 256.542 173.235 258.558 172.957C259.574 172.817 260.64 172.791 261.593 173.17C262.547 173.548 263.365 174.406 263.445 175.43C263.858 175.301 264.297 175.287 264.717 175.39C265.137 175.492 265.521 175.706 265.828 176.01C266.436 176.63 266.834 177.426 266.966 178.284C267.068 178.816 267.171 179.453 267.663 179.676C268.065 179.858 268.526 179.662 268.966 179.627C270.458 179.507 271.697 181.249 273.163 180.949C274.736 180.628 275.122 178.269 276.657 177.796C277.538 177.525 278.774 177.855 279.196 177.034C279.568 176.311 278.826 175.476 278.903 174.666C278.997 173.668 280.172 173.245 281.078 172.819C284.201 171.352 285.683 167.143 284.17 164.038C283.273 162.199 281.509 160.751 281.183 158.731C280.932 157.176 281.544 155.363 280.554 154.139C280.051 153.517 279.198 153.173 278.899 152.431C278.71 151.963 278.786 151.433 278.684 150.939C278.583 150.445 278.152 149.928 277.665 150.056C276.251 150.428 275.8 154.801 275.043 155.864C273.892 157.479 271.53 156.415 271.892 154.425Z" fill="#3F3D56"/>
<path d="M245.758 145.643C245.275 145.507 244.747 145.374 244.284 145.568C243.821 145.762 243.551 146.442 243.922 146.78C246.829 146.666 249.754 146.554 252.636 146.949C255.957 147.405 259.243 148.533 262.579 148.201C260.673 147.638 258.737 147.188 256.779 146.853L253.513 146.229C252.637 146.045 251.752 145.908 250.862 145.818C248.999 145.664 247.589 146.157 245.758 145.643Z" fill="#3F3D56"/>
<path d="M248.668 135.506C248.427 135.486 248.128 135.468 248.003 135.676C247.884 135.875 248.02 136.137 247.956 136.359C247.868 136.663 247.471 136.741 247.157 136.7C246.844 136.658 246.505 136.559 246.227 136.711C246.086 136.807 245.981 136.946 245.926 137.108C245.871 137.27 245.87 137.445 245.923 137.607C246.036 137.929 246.22 138.222 246.46 138.465C246.871 138.983 247.338 139.453 247.855 139.865C248.854 140.604 250.207 140.96 250.837 142.032C250.925 142.239 251.062 142.423 251.235 142.568C251.537 142.76 251.931 142.614 252.256 142.465L253.396 141.944C253.602 141.87 253.785 141.745 253.929 141.581C254.19 141.227 254.03 140.724 253.811 140.343C253.592 139.961 253.313 139.567 253.359 139.13C253.443 138.351 254.444 138.052 254.855 137.386C255.27 136.714 255 135.848 255.048 135.059C255.104 134.137 255.683 132.937 254.751 132.248C253.96 131.662 253.204 132.203 252.635 132.85C251.437 134.213 250.871 135.69 248.668 135.506Z" fill="#3F3D56"/>
<path d="M255.588 121.726C255.978 122.472 256.789 122.917 257.213 123.644C257.674 124.432 257.621 125.449 258.12 126.213C258.632 126.996 259.663 127.412 259.95 128.303C260.263 129.276 259.552 130.458 260.119 131.308C260.225 131.447 260.358 131.562 260.511 131.647C260.664 131.731 260.832 131.783 261.006 131.799C261.18 131.815 261.355 131.795 261.52 131.74C261.686 131.684 261.838 131.595 261.967 131.478C262.206 131.217 262.334 130.873 262.324 130.52C262.313 130.166 262.165 129.83 261.911 129.584C261.575 129.278 261.093 129.145 260.813 128.787C260.667 128.581 260.57 128.344 260.529 128.094C260.376 127.374 260.4 126.627 260.6 125.918C260.675 125.739 260.694 125.54 260.655 125.349C260.528 124.982 260.032 124.956 259.683 124.786C258.891 124.399 258.911 123.28 259.049 122.409C258.957 122.989 256.893 122.002 256.677 121.674C256.248 121.021 256.482 119.762 256.397 119.041C255.47 119.488 255.112 120.813 255.588 121.726Z" fill="#3F3D56"/>
<path d="M234.8 133.207C234.419 132.78 233.845 132.334 233.335 132.591C232.945 132.787 232.838 133.327 232.991 133.736C233.177 134.134 233.463 134.476 233.822 134.728C234.886 135.607 236.032 136.4 236.96 137.421C238.621 139.249 239.501 141.716 241.308 143.4C241.671 143.79 242.152 144.051 242.677 144.142C243.203 144.191 243.794 143.853 243.855 143.328C243.905 142.894 243.603 142.507 243.309 142.186C242.607 141.421 241.838 140.718 241.176 139.919C240.87 139.612 240.677 139.21 240.631 138.779C240.627 138.349 241.019 137.899 241.435 138.005C240.929 137.876 240.554 137.032 239.811 136.873C239.19 136.74 239.04 137.125 238.301 136.808C236.892 136.203 235.787 134.313 234.8 133.207Z" fill="#3F3D56"/>
<path d="M267.907 91.6388C267.503 91.5185 267.106 91.3764 266.717 91.213C265.671 90.8986 264.287 91.6685 264.426 92.7532C264.519 93.474 265.189 93.9599 265.559 94.585C266.107 95.5121 265.961 96.6879 265.673 97.7262C265.602 98.0476 265.467 98.3516 265.277 98.6199C265.011 98.9032 264.692 99.1325 264.339 99.2951C262.927 100.088 261.681 101.148 260.67 102.416C260.561 102.533 260.484 102.677 260.449 102.834C260.399 103.2 260.767 103.467 260.975 103.773C261.436 104.451 261.103 105.364 261.148 106.184C261.141 106.3 261.164 106.416 261.214 106.52C261.264 106.625 261.34 106.715 261.435 106.782C261.713 106.924 262.043 106.683 262.194 106.41C262.695 105.502 262.318 104.044 263.257 103.606C263.434 103.523 263.65 103.488 263.768 103.332C263.956 103.084 263.775 102.717 263.87 102.421C264.013 101.976 264.621 101.956 265.087 101.976C265.89 102.01 266.693 101.903 267.46 101.66C267.76 101.588 268.033 101.43 268.245 101.204C268.526 100.853 268.501 100.355 268.445 99.9086C268.164 97.6851 267.461 95.536 266.373 93.5773C267.198 93.6829 268.095 93.7742 268.807 93.3438C269.205 93.1027 269.683 92.3819 269.486 91.8913C269.173 91.1154 268.608 91.7685 267.907 91.6388Z" fill="#3F3D56"/>
<path d="M162.153 103.868C162.251 104.398 162.348 104.956 162.175 105.466C162.001 105.977 161.455 106.404 160.94 106.247C160.54 106.126 160.309 105.723 160.025 105.416C158.445 103.708 154.881 104.697 153.906 102.585C153.507 101.722 153.778 100.69 153.506 99.7794C153.335 99.2534 152.994 98.7993 152.537 98.4884C152.08 98.1775 151.532 98.0274 150.981 98.0617C150.478 98.1344 149.988 98.2808 149.528 98.496C146.442 99.7333 143.203 100.544 139.9 100.907C139.272 100.946 138.651 101.059 138.05 101.244C136.693 101.737 135.766 102.996 135.107 104.281C134.447 105.566 133.96 106.957 133.076 108.099C132.146 109.298 130.844 110.139 129.629 111.047C129.161 111.349 128.771 111.758 128.492 112.241C128.229 112.782 128.244 113.412 128.264 114.014L128.512 121.324C128.544 122.264 128.584 123.238 129.005 124.079C129.529 125.13 130.566 125.818 131.286 126.746C132.02 127.7 132.402 128.879 132.368 130.082C132.353 130.566 132.305 131.139 132.681 131.442C132.91 131.591 133.178 131.668 133.451 131.664L143.326 132.473C145.064 132.616 146.989 132.85 148.123 134.175C148.658 134.801 149.088 135.7 149.908 135.767C150.26 135.796 150.602 135.651 150.954 135.623C151.841 135.553 152.621 136.227 153.113 136.97C153.857 138.103 154.195 139.455 154.071 140.805C153.991 141.652 153.728 142.476 153.672 143.325C153.456 146.557 156.193 149.365 156.246 152.603C156.277 154.508 155.374 156.288 154.493 157.977C155.914 160.133 154.751 163.003 155.316 165.523C155.853 167.914 157.844 169.786 158.34 172.186C158.567 173.284 158.58 174.636 159.548 175.202C159.972 175.409 160.443 175.503 160.914 175.476C163.758 175.51 166.57 174.869 169.118 173.606C170.315 173.011 171.555 172.124 171.763 170.803C171.932 169.738 171.392 168.547 171.941 167.619C172.588 166.526 174.246 166.612 175.198 165.772C176.742 164.408 175.538 161.807 176.164 159.842C176.726 158.077 178.662 157.138 179.622 155.554C180 154.872 180.271 154.137 180.426 153.373C180.866 151.547 181.139 149.685 181.244 147.81C181.269 146.671 181.353 145.534 181.495 144.403C182.53 137.966 188.885 133.656 190.949 127.472C191.146 126.882 191.238 126.095 190.714 125.761C190.402 125.612 190.049 125.575 189.714 125.656L185.162 126.231C184.596 126.302 183.997 126.369 183.478 126.134C182.958 125.899 182.586 125.241 182.862 124.741C183.635 123.339 182.044 121.567 181.338 120.13C179.435 116.26 177.169 112.58 174.57 109.14C174.404 108.963 174.299 108.736 174.273 108.495L175.565 108.538C175.129 106.971 174.409 105.256 172.889 104.683C172.032 104.36 171.083 104.471 170.169 104.521C167.551 104.665 164.744 104.269 162.153 103.868Z" fill="#3F3D56"/>
<path d="M170.171 68.5546C170.857 69.2831 171.624 70.0555 172.616 70.1825C174.367 70.4068 175.625 68.5938 176.427 67.0191C176.457 67.4206 176.642 67.7946 176.942 68.0616C177.243 68.3287 177.636 68.4677 178.038 68.4491C178.47 68.3763 178.883 68.2148 179.249 67.9748C182.719 66.0765 186.604 65.0707 190.558 65.0478C190.52 64.7479 190.594 64.4446 190.766 64.1964C190.938 63.9481 191.196 63.7726 191.49 63.7035C192.294 63.544 193.018 64.2398 193.406 64.9626C193.794 65.6854 194.035 66.5232 194.651 67.0642C195.267 67.6053 196.46 67.5817 196.703 66.7982C196.937 66.0461 196.154 65.4046 195.504 64.9612C194.854 64.5177 194.169 63.6969 194.607 63.0425C197.928 62.3063 201.27 61.5673 204.669 61.421C205.248 61.4411 205.825 61.3417 206.363 61.1288C206.882 60.8741 207.294 60.296 207.154 59.7349C206.412 59.9095 205.636 59.859 204.923 59.5897C204.21 59.3205 203.593 58.8447 203.151 58.2232C207.868 57.8335 212.884 57.5013 217.063 59.7233C217.565 60.8014 215.009 61.6984 215.693 62.6708C215.911 62.9809 216.348 63.0173 216.727 63.0244C219.631 63.0784 222.552 63.1313 225.424 62.6922C226.473 62.5318 227.533 62.3053 228.587 62.4354C230.342 62.6521 231.843 63.8245 233.57 64.2068C234.272 64.3624 235.06 64.3677 235.653 63.9584C236.245 63.5492 236.5 62.6173 236.014 62.0853C237.64 60.49 240.338 60.8854 242.482 61.6491C244.627 62.4129 246.658 63.6445 248.928 63.8148C250.556 63.9369 252.206 63.4985 253.814 63.7771C254.825 63.9522 255.766 64.4024 256.754 64.679C258.622 65.2021 260.598 65.0917 262.538 65.1169C267.487 65.1836 272.382 66.1576 276.981 67.9905C277.579 68.1855 278.127 68.5098 278.587 68.9404C279.015 69.3992 279.233 70.1121 278.945 70.67L274.193 69.9747C274.641 70.8573 275.799 71.0077 276.74 71.3121C277.681 71.6166 278.656 72.6567 278.091 73.4688C277.071 73.1438 276.148 74.1641 275.633 75.1029C275.118 76.0417 274.491 77.166 273.422 77.2232C272.466 77.2744 271.309 76.4589 270.686 77.187C271.547 78.275 272.285 79.4557 272.885 80.7072C273.501 81.992 273.939 83.6109 273.107 84.7669C272.976 84.9733 272.777 85.1275 272.545 85.2032C271.865 85.3755 271.423 84.5427 270.936 84.0379C270.321 83.4018 269.392 83.2217 268.56 82.9234C267.728 82.6251 266.852 82.0382 266.787 81.1557C266.746 80.6066 267.036 80.0962 267.249 79.5887C267.607 78.7334 267.764 77.8068 267.707 76.8809C267.66 76.1361 267.452 75.3612 266.917 74.8408C266.383 74.3204 265.461 74.1553 264.887 74.6319C264.62 74.8544 264.405 75.2101 264.058 75.2234C263.444 75.2469 262.972 74.175 262.478 74.5409C262.536 74.9308 262.455 75.3287 262.25 75.665C260.776 76.9488 258.511 76.4057 256.61 76.8592C255.707 77.1182 254.841 77.4965 254.037 77.9843C253.737 78.1131 253.481 78.3282 253.302 78.6024C253.065 79.064 253.326 79.6553 253.744 79.9622C254.188 80.2345 254.686 80.4048 255.203 80.4608C257.52 80.9002 259.871 81.5804 261.701 83.0706C263.53 84.5607 264.73 87.0241 264.151 89.3131L259.581 84.9414C259.755 86.777 259.853 88.6176 259.877 90.4633C259.906 90.8237 259.857 91.1861 259.732 91.5254C259.406 92.2458 258.523 92.4882 257.75 92.6473C257.535 92.6882 257.33 92.7742 257.151 92.8998C256.971 93.0253 256.82 93.1874 256.708 93.3756C256.595 93.5637 256.523 93.7736 256.498 93.9913C256.472 94.2091 256.492 94.4299 256.558 94.6392C256.833 95.5363 257.518 96.2357 258.146 96.9326C258.773 97.6296 259.391 98.4216 259.473 99.3564C259.555 100.291 258.851 101.345 257.916 101.28C257.207 101.231 256.681 100.595 256.379 99.9515C256.077 99.3077 255.897 98.5906 255.442 98.0437C254.068 96.3881 250.98 97.0974 249.748 95.3324C249.434 95.689 249.217 96.12 249.116 96.5845C249.015 97.049 249.034 97.5316 249.172 97.9864C249.745 97.6273 250.53 97.961 250.96 98.4828C251.39 99.0047 251.594 99.6737 251.932 100.26C252.388 101.051 253.114 101.752 253.177 102.663C253.161 103.007 253.166 103.353 253.195 103.696C253.308 104.249 253.774 104.645 254.097 105.106C254.849 106.18 254.812 107.655 254.327 108.873C253.843 110.091 252.972 111.109 252.11 112.096C250.604 113.82 249.067 115.534 247.281 116.965C246.772 117.374 246.228 117.775 245.911 118.346C245.593 118.917 245.577 119.719 246.065 120.153C245.716 120.171 245.09 120.343 244.741 120.36C244.619 118.959 244.592 117.551 244.661 116.146C243.285 115.484 241.802 117.256 241.98 118.775C242.157 120.294 243.255 121.513 244.036 122.827C244.607 123.788 245.032 124.909 244.841 126.011C244.65 127.113 243.668 128.129 242.555 128.032C240.785 127.878 240.045 125.333 238.292 125.042C238.138 125.006 237.975 125.022 237.831 125.088C237.571 125.231 237.526 125.58 237.511 125.877C237.439 127.333 237.377 128.848 237.945 130.191C238.776 132.156 240.922 133.806 240.472 135.891C238.047 134.762 236.786 132.039 236.213 129.423C235.641 126.807 235.545 124.061 234.519 121.588C233.739 122.588 232.101 121.761 231.389 120.712C230.714 119.717 230.299 118.566 229.644 117.558C228.989 116.55 227.985 115.647 226.786 115.592C225.528 115.534 224.437 116.398 223.477 117.215C222.688 117.887 221.878 118.585 221.417 119.513C220.746 120.864 220.921 122.456 220.889 123.965C220.854 125.596 220.509 127.316 219.399 128.51C218.289 129.704 216.24 130.12 215.015 129.044C214.376 128.482 214.067 127.643 213.791 126.837C212.462 122.954 211.355 118.998 210.476 114.989C210.271 115.904 209.468 117.083 208.701 116.544C208.529 116.399 208.39 116.219 208.292 116.017C206.862 113.59 204.214 112.134 201.538 111.261C198.862 110.388 196.047 109.981 193.401 109.022C191.918 108.484 190.501 107.778 189.179 106.916C188.842 107.412 188.646 107.99 188.61 108.589C188.574 109.187 188.701 109.784 188.977 110.317C189.564 111.357 190.892 111.96 192.029 111.596C192.616 111.408 193.113 110.999 193.696 110.798C194.279 110.596 195.061 110.695 195.316 111.257C195.56 111.796 195.191 112.447 195.374 113.009C195.653 113.865 196.942 113.931 197.393 114.71C197.729 115.29 197.453 116.06 196.974 116.527C196.495 116.995 195.856 117.251 195.271 117.577C193.374 118.633 192.024 120.437 190.366 121.84C188.708 123.243 186.369 124.267 184.393 123.367C184.864 120.979 182.022 119.226 181.5 116.848C181.328 116.066 181.417 115.234 181.171 114.472C180.816 113.368 179.837 112.609 179.035 111.772C178.061 110.746 177.303 109.535 176.804 108.211C176.306 106.887 176.077 105.476 176.132 104.062C176.175 103.08 176.356 102.081 176.132 101.124C175.909 100.166 175.117 99.2389 174.135 99.2823C171.894 99.3814 169.07 99.5483 167.894 97.6352C167.475 96.9525 167.292 95.9524 167.899 95.4293C168.327 95.0603 168.959 95.0951 169.521 95.1504L174.571 95.6479C175.752 95.7642 177.029 95.8602 178.042 95.2419C179.056 94.6237 179.495 92.9825 178.557 92.2551C177.871 91.7236 176.642 91.7525 176.443 90.9074C176.277 90.2036 177.055 89.4051 176.635 88.817C176.334 88.3952 175.656 88.5122 175.246 88.8284C174.835 89.1445 174.537 89.6069 174.078 89.8462C173.272 90.2661 172.309 89.8665 171.442 89.5949C170.575 89.3233 169.413 89.3002 168.993 90.1065C168.522 91.0082 169.41 92.1897 168.943 93.0933C168.326 94.2878 166.236 93.6078 165.37 94.6353C164.375 95.8144 166.046 97.5726 165.711 99.0789C165.283 99.2912 164.807 99.3887 164.33 99.3619C163.853 99.3351 163.391 99.1848 162.989 98.9258C162.594 98.6567 162.279 98.2855 162.078 97.8515C161.877 97.4175 161.797 96.937 161.847 96.4612C161.93 95.7836 162.283 95.0919 162.046 94.4515C161.855 93.9338 161.336 93.6256 160.854 93.3586L155.946 90.6433C155.49 91.4896 156.066 92.5388 156.787 93.1744C157.507 93.8101 158.41 94.2888 158.883 95.1254C159.182 95.705 159.249 96.3771 159.07 97.0046C158.892 97.632 158.48 98.1675 157.92 98.5015C157.85 98.55 157.77 98.5827 157.687 98.5974C157.603 98.612 157.516 98.6083 157.434 98.5865C157.356 98.5404 157.287 98.4791 157.233 98.4061C157.179 98.3331 157.14 98.25 157.119 98.1617C156.253 95.943 154.953 93.7555 152.874 92.5965C150.796 91.4375 147.809 91.6758 146.446 93.6282C146.123 94.0919 145.905 94.6205 145.623 95.1108C144.125 97.7156 140.913 98.9491 137.912 98.8685C137.618 98.8848 137.326 98.8161 137.071 98.6706C136.586 98.3352 136.608 97.6235 136.682 97.038L136.997 94.5533C137.06 94.0543 137.152 93.5028 137.546 93.1914C138.102 92.7523 138.904 93.0294 139.612 93.0192C140.149 92.994 140.664 92.8044 141.089 92.4759C141.514 92.1474 141.828 91.6959 141.989 91.1828C142.132 90.6645 142.131 90.1171 141.986 89.5993C141.841 89.0816 141.558 88.6132 141.167 88.2447C140.843 87.9395 140.407 87.5561 140.578 87.1447C140.647 87.0309 140.739 86.9335 140.849 86.8593C140.959 86.7852 141.084 86.736 141.215 86.7154C142.487 86.3456 143.831 86.2486 145.081 85.8123C146.332 85.376 147.545 84.4833 147.841 83.1909C147.932 82.7948 147.973 82.3151 148.328 82.1187C148.507 82.0433 148.698 82.0042 148.891 82.0035C149.569 81.9069 150.187 81.5597 150.622 81.0302C151.057 80.5007 151.278 79.8273 151.242 79.1426C151.842 78.7233 152.681 79.0317 153.261 79.4777C153.841 79.9237 154.353 80.5129 155.058 80.7052C156.373 81.0634 157.644 79.8979 159.006 79.8925C159.579 79.8902 160.172 80.0931 160.711 79.8986C161.258 79.7014 161.584 79.1567 162.004 78.7543C162.423 78.3519 163.159 78.1064 163.546 78.5399L163.217 76.094C163.881 76.262 164.573 76.2857 165.247 76.1637C165.921 76.0417 166.561 75.7767 167.125 75.3864L162.863 73.9444C162.714 73.9073 162.577 73.834 162.464 73.7311C162.154 73.397 162.462 72.8763 162.714 72.4965C163.317 71.5879 163.418 70.0913 162.427 69.639C161.75 69.3302 160.973 69.7008 160.324 70.0634L157.213 71.8003C157.114 72.3924 157.837 72.7279 158.285 73.1267C158.556 73.368 158.748 73.6858 158.836 74.0383C158.923 74.3908 158.902 74.7615 158.775 75.1018C158.648 75.4421 158.422 75.736 158.125 75.9449C157.828 76.1538 157.475 76.268 157.113 76.2725C157.318 76.5392 157.46 76.8486 157.529 77.1778C157.598 77.507 157.593 77.8476 157.513 78.1744L155.42 78.3251C155.185 78.3724 154.941 78.3247 154.741 78.1924C154.517 77.9933 154.547 77.6445 154.495 77.3492C154.37 76.6366 153.673 76.1371 152.962 76.009C152.251 75.881 151.523 76.0451 150.819 76.2072C150.52 76.315 150.192 76.3074 149.898 76.1859C149.729 76.0764 149.601 75.9146 149.533 75.7253C149.225 74.9757 149.513 74.0946 150.009 73.4535C150.505 72.8125 151.184 72.3438 151.794 71.8101C153.252 70.5292 154.323 68.8656 154.886 67.0071C156.038 66.5237 157.231 65.8669 158.384 65.3835C160.16 64.4829 162.152 64.0964 164.136 64.2675L168.038 64.3422C169.194 64.3642 170.38 64.3926 171.449 64.8336C172.517 65.2746 173.456 66.2285 173.529 67.3831C173.552 67.5138 173.54 67.6481 173.496 67.7732C173.453 67.8984 173.378 68.0103 173.279 68.0986C173.128 68.1811 172.957 68.2196 172.786 68.21C171.708 68.2479 171.249 68.5167 170.171 68.5546Z" fill="#3F3D56"/>
<path d="M139.068 80.8C139.22 80.6555 139.33 80.4717 139.385 80.2689C139.44 80.066 139.438 79.8519 139.379 79.6501C139.008 79.5068 138.605 79.47 138.214 79.5439C137.823 79.6177 137.461 79.7994 137.168 80.0683C136.937 80.3024 136.737 80.5661 136.575 80.8526C136.063 81.6902 135.609 82.6908 135.906 83.6271C135.93 83.7292 135.975 83.8255 136.037 83.9102C136.098 83.9949 136.177 84.0664 136.266 84.1205C136.4 84.174 136.543 84.1965 136.686 84.1864C137.251 84.1856 137.816 84.1508 138.376 84.0822C138.721 84.0401 139.12 83.9427 139.254 83.6219C139.428 83.2003 139.005 82.7231 139.129 82.2835C139.21 82.087 139.333 81.9105 139.489 81.7665C139.567 81.694 139.626 81.6043 139.663 81.5047C139.7 81.4051 139.713 81.2982 139.702 81.1926C139.652 80.9864 139.337 80.8694 139.223 81.0486" fill="#3F3D56"/>
<path d="M141.997 76.9975C141.495 76.8821 140.978 76.8496 140.466 76.9012C140.353 76.8978 140.24 76.9234 140.14 76.9755C140.042 77.0475 139.971 77.1501 139.939 77.267C139.83 77.6148 139.857 77.9905 140.013 78.3195C140.169 78.6485 140.443 78.9065 140.781 79.0422C140.965 79.0845 141.141 79.1554 141.303 79.2523C141.736 79.5888 141.46 80.2766 141.542 80.8193C141.634 81.4287 142.223 81.9403 142.115 82.547C142.03 83.0251 141.52 83.4036 141.602 83.8822C141.688 84.3835 142.324 84.5341 142.83 84.5742C143.123 84.6257 143.425 84.591 143.7 84.4744C143.975 84.2862 144.17 84.0028 144.248 83.6787C144.456 83.0609 144.543 82.409 144.505 81.7583C144.503 81.4624 144.429 81.1715 144.289 80.9107C144.136 80.7042 143.967 80.5104 143.783 80.3313C142.813 79.2014 143.835 77.516 141.997 76.9975Z" fill="#3F3D56"/>
<path opacity="0.8" d="M269.567 165.51C269.567 165.51 195.265 122.805 163.277 130.896C163.277 130.896 95.4847 138.201 87.6279 154.272C87.6279 154.272 66.078 86.8423 58.2213 84.5946" stroke="#6C63FF" stroke-width="2" stroke-miterlimit="10"/>
<path opacity="0.8" d="M87.6279 154.272C100.086 121.007 212.325 84.1451 212.325 84.1451C196.388 88.1909 163.277 130.897 163.277 130.897C163.277 130.897 93.2399 79.8746 58.2213 84.5947C58.2213 84.5947 212.438 89.6519 269.567 165.511" stroke="#6C63FF" stroke-width="2" stroke-miterlimit="10"/>
<g filter="url(#filter0_f_193_1257)">
<path d="M58.2212 87.8538C60.0189 87.8538 61.4762 86.3946 61.4762 84.5947C61.4762 82.7947 60.0189 81.3356 58.2212 81.3356C56.4236 81.3356 54.9663 82.7947 54.9663 84.5947C54.9663 86.3946 56.4236 87.8538 58.2212 87.8538Z" fill="#FFC000"/>
</g>
<g filter="url(#filter1_f_193_1257)">
<path d="M87.6279 157.531C89.4255 157.531 90.8828 156.072 90.8828 154.272C90.8828 152.472 89.4255 151.013 87.6279 151.013C85.8302 151.013 84.3729 152.472 84.3729 154.272C84.3729 156.072 85.8302 157.531 87.6279 157.531Z" fill="#FFC000"/>
</g>
<g filter="url(#filter2_f_193_1257)">
<path d="M212.325 87.4042C214.123 87.4042 215.58 85.9451 215.58 84.1451C215.58 82.3451 214.123 80.886 212.325 80.886C210.528 80.886 209.071 82.3451 209.071 84.1451C209.071 85.9451 210.528 87.4042 212.325 87.4042Z" fill="#FFC000"/>
</g>
<g filter="url(#filter3_f_193_1257)">
<path d="M269.567 168.77C271.365 168.77 272.822 167.311 272.822 165.511C272.822 163.711 271.365 162.251 269.567 162.251C267.77 162.251 266.312 163.711 266.312 165.511C266.312 167.311 267.77 168.77 269.567 168.77Z" fill="#FFC000"/>
</g>
<g filter="url(#filter4_f_193_1257)">
<path d="M163.277 134.156C165.075 134.156 166.532 132.697 166.532 130.897C166.532 129.097 165.075 127.637 163.277 127.637C161.479 127.637 160.022 129.097 160.022 130.897C160.022 132.697 161.479 134.156 163.277 134.156Z" fill="#FFC000"/>
</g>
</g>
<defs>
<filter id="filter0_f_193_1257" x="50.9663" y="77.3356" width="14.5099" height="14.5182" filterUnits="userSpaceOnUse" color-interpolation-filters="sRGB">
<feFlood flood-opacity="0" result="BackgroundImageFix"/>
<feBlend mode="normal" in="SourceGraphic" in2="BackgroundImageFix" result="shape"/>
<feGaussianBlur stdDeviation="2" result="effect1_foregroundBlur_193_1257"/>
</filter>
<filter id="filter1_f_193_1257" x="80.3729" y="147.013" width="14.5099" height="14.5182" filterUnits="userSpaceOnUse" color-interpolation-filters="sRGB">
<feFlood flood-opacity="0" result="BackgroundImageFix"/>
<feBlend mode="normal" in="SourceGraphic" in2="BackgroundImageFix" result="shape"/>
<feGaussianBlur stdDeviation="2" result="effect1_foregroundBlur_193_1257"/>
</filter>
<filter id="filter2_f_193_1257" x="205.071" y="76.886" width="14.5099" height="14.5182" filterUnits="userSpaceOnUse" color-interpolation-filters="sRGB">
<feFlood flood-opacity="0" result="BackgroundImageFix"/>
<feBlend mode="normal" in="SourceGraphic" in2="BackgroundImageFix" result="shape"/>
<feGaussianBlur stdDeviation="2" result="effect1_foregroundBlur_193_1257"/>
</filter>
<filter id="filter3_f_193_1257" x="262.312" y="158.251" width="14.5099" height="14.5182" filterUnits="userSpaceOnUse" color-interpolation-filters="sRGB">
<feFlood flood-opacity="0" result="BackgroundImageFix"/>
<feBlend mode="normal" in="SourceGraphic" in2="BackgroundImageFix" result="shape"/>
<feGaussianBlur stdDeviation="2" result="effect1_foregroundBlur_193_1257"/>
</filter>
<filter id="filter4_f_193_1257" x="156.022" y="123.637" width="14.5099" height="14.5182" filterUnits="userSpaceOnUse" color-interpolation-filters="sRGB">
<feFlood flood-opacity="0" result="BackgroundImageFix"/>
<feBlend mode="normal" in="SourceGraphic" in2="BackgroundImageFix" result="shape"/>
<feGaussianBlur stdDeviation="2" result="effect1_foregroundBlur_193_1257"/>
</filter>
<clipPath id="clip0_193_1257">
<rect width="320" height="238" fill="white"/>
</clipPath>
</defs>
</svg>
