<svg width="219" height="33" viewBox="0 0 219 33" fill="none" xmlns="http://www.w3.org/2000/svg">
<path d="M52.722 9.27934H54.474V26.0793H52.722V9.27934ZM42.21 26.0793H40.434V9.27934H42.21V26.0793ZM52.89 18.3273H42.018V16.7673H52.89V18.3273ZM67.4934 26.0793V23.2953L67.4214 22.8393V18.1833C67.4214 17.1113 67.1174 16.2873 66.5094 15.7113C65.9174 15.1353 65.0294 14.8473 63.8454 14.8473C63.0294 14.8473 62.2534 14.9833 61.5174 15.2553C60.7814 15.5273 60.1574 15.8873 59.6454 16.3353L58.8774 15.0633C59.5174 14.5193 60.2854 14.1033 61.1814 13.8153C62.0774 13.5113 63.0214 13.3593 64.0134 13.3593C65.6454 13.3593 66.9014 13.7673 67.7814 14.5833C68.6774 15.3833 69.1254 16.6073 69.1254 18.2553V26.0793H67.4934ZM63.1494 26.1993C62.2054 26.1993 61.3814 26.0473 60.6774 25.7433C59.9894 25.4233 59.4614 24.9913 59.0934 24.4473C58.7254 23.8873 58.5414 23.2473 58.5414 22.5273C58.5414 21.8713 58.6934 21.2793 58.9974 20.7513C59.3174 20.2073 59.8294 19.7753 60.5334 19.4553C61.2534 19.1193 62.2134 18.9513 63.4134 18.9513H67.7574V20.2233H63.4614C62.2454 20.2233 61.3974 20.4393 60.9174 20.8713C60.4534 21.3033 60.2214 21.8393 60.2214 22.4793C60.2214 23.1993 60.5014 23.7753 61.0614 24.2073C61.6214 24.6393 62.4054 24.8553 63.4134 24.8553C64.3734 24.8553 65.1974 24.6393 65.8854 24.2073C66.5894 23.7593 67.1014 23.1193 67.4214 22.2873L67.8054 23.4633C67.4854 24.2953 66.9254 24.9593 66.1254 25.4553C65.3414 25.9513 64.3494 26.1993 63.1494 26.1993ZM73.7537 26.0793V13.4793H75.3857V16.9113L75.2177 16.3113C75.5697 15.3513 76.1617 14.6233 76.9937 14.1273C77.8257 13.6153 78.8577 13.3593 80.0897 13.3593V15.0153C80.0257 15.0153 79.9617 15.0153 79.8977 15.0153C79.8337 14.9993 79.7697 14.9913 79.7057 14.9913C78.3777 14.9913 77.3377 15.3993 76.5857 16.2153C75.8337 17.0153 75.4577 18.1593 75.4577 19.6473V26.0793H73.7537ZM88.0978 26.1993C86.8978 26.1993 85.8178 25.9273 84.8578 25.3833C83.9138 24.8393 83.1698 24.0873 82.6258 23.1273C82.0818 22.1513 81.8098 21.0313 81.8098 19.7673C81.8098 18.4873 82.0818 17.3673 82.6258 16.4073C83.1698 15.4473 83.9138 14.7033 84.8578 14.1753C85.8178 13.6313 86.8978 13.3593 88.0978 13.3593C89.2018 13.3593 90.1858 13.6073 91.0498 14.1033C91.9298 14.5993 92.6258 15.3273 93.1378 16.2873C93.6658 17.2313 93.9298 18.3913 93.9298 19.7673C93.9298 21.1273 93.6738 22.2873 93.1618 23.2473C92.6498 24.2073 91.9538 24.9433 91.0738 25.4553C90.2098 25.9513 89.2178 26.1993 88.0978 26.1993ZM88.2178 24.6873C89.1138 24.6873 89.9138 24.4873 90.6178 24.0873C91.3378 23.6713 91.8978 23.0953 92.2978 22.3593C92.7138 21.6073 92.9218 20.7433 92.9218 19.7673C92.9218 18.7753 92.7138 17.9113 92.2978 17.1753C91.8978 16.4393 91.3378 15.8713 90.6178 15.4713C89.9138 15.0553 89.1138 14.8473 88.2178 14.8473C87.3378 14.8473 86.5458 15.0553 85.8418 15.4713C85.1378 15.8713 84.5778 16.4393 84.1618 17.1753C83.7458 17.9113 83.5378 18.7753 83.5378 19.7673C83.5378 20.7433 83.7458 21.6073 84.1618 22.3593C84.5778 23.0953 85.1378 23.6713 85.8418 24.0873C86.5458 24.4873 87.3378 24.6873 88.2178 24.6873ZM92.9698 26.0793V22.2873L93.1378 19.7433L92.8978 17.1993V8.27134H94.6018V26.0793H92.9698ZM104.483 26.1993C103.267 26.1993 102.171 25.9273 101.195 25.3833C100.235 24.8233 99.4754 24.0633 98.9154 23.1033C98.3554 22.1273 98.0754 21.0153 98.0754 19.7673C98.0754 18.5033 98.3554 17.3913 98.9154 16.4313C99.4754 15.4713 100.235 14.7193 101.195 14.1753C102.155 13.6313 103.251 13.3593 104.483 13.3593C105.731 13.3593 106.835 13.6313 107.795 14.1753C108.771 14.7193 109.531 15.4713 110.075 16.4313C110.635 17.3913 110.915 18.5033 110.915 19.7673C110.915 21.0153 110.635 22.1273 110.075 23.1033C109.531 24.0633 108.771 24.8233 107.795 25.3833C106.819 25.9273 105.715 26.1993 104.483 26.1993ZM104.483 24.6873C105.395 24.6873 106.203 24.4873 106.907 24.0873C107.611 23.6713 108.163 23.0953 108.563 22.3593C108.979 21.6073 109.187 20.7433 109.187 19.7673C109.187 18.7753 108.979 17.9113 108.563 17.1753C108.163 16.4393 107.611 15.8713 106.907 15.4713C106.203 15.0553 105.403 14.8473 104.507 14.8473C103.611 14.8473 102.811 15.0553 102.107 15.4713C101.403 15.8713 100.843 16.4393 100.427 17.1753C100.011 17.9113 99.8034 18.7753 99.8034 19.7673C99.8034 20.7433 100.011 21.6073 100.427 22.3593C100.843 23.0953 101.403 23.6713 102.107 24.0873C102.811 24.4873 103.603 24.6873 104.483 24.6873ZM114.394 26.0793V13.4793H116.026V16.9113L115.858 16.3113C116.21 15.3513 116.802 14.6233 117.634 14.1273C118.466 13.6153 119.498 13.3593 120.73 13.3593V15.0153C120.666 15.0153 120.602 15.0153 120.538 15.0153C120.474 14.9993 120.41 14.9913 120.346 14.9913C119.018 14.9913 117.978 15.3993 117.226 16.2153C116.474 17.0153 116.098 18.1593 116.098 19.6473V26.0793H114.394ZM130.798 26.0793V23.2953L130.726 22.8393V18.1833C130.726 17.1113 130.422 16.2873 129.814 15.7113C129.222 15.1353 128.334 14.8473 127.15 14.8473C126.334 14.8473 125.558 14.9833 124.822 15.2553C124.086 15.5273 123.462 15.8873 122.95 16.3353L122.182 15.0633C122.822 14.5193 123.59 14.1033 124.486 13.8153C125.382 13.5113 126.326 13.3593 127.318 13.3593C128.95 13.3593 130.206 13.7673 131.086 14.5833C131.982 15.3833 132.43 16.6073 132.43 18.2553V26.0793H130.798ZM126.454 26.1993C125.51 26.1993 124.686 26.0473 123.982 25.7433C123.294 25.4233 122.766 24.9913 122.398 24.4473C122.03 23.8873 121.846 23.2473 121.846 22.5273C121.846 21.8713 121.998 21.2793 122.302 20.7513C122.622 20.2073 123.134 19.7753 123.838 19.4553C124.558 19.1193 125.518 18.9513 126.718 18.9513H131.062V20.2233H126.766C125.55 20.2233 124.702 20.4393 124.222 20.8713C123.758 21.3033 123.526 21.8393 123.526 22.4793C123.526 23.1993 123.806 23.7753 124.366 24.2073C124.926 24.6393 125.71 24.8553 126.718 24.8553C127.678 24.8553 128.502 24.6393 129.19 24.2073C129.894 23.7593 130.406 23.1193 130.726 22.2873L131.11 23.4633C130.79 24.2953 130.23 24.9593 129.43 25.4553C128.646 25.9513 127.654 26.1993 126.454 26.1993ZM151.044 26.2233C149.78 26.2233 148.604 26.0153 147.516 25.5993C146.444 25.1673 145.508 24.5673 144.708 23.7993C143.924 23.0153 143.308 22.1113 142.86 21.0873C142.428 20.0473 142.212 18.9113 142.212 17.6793C142.212 16.4473 142.428 15.3193 142.86 14.2953C143.308 13.2553 143.924 12.3513 144.708 11.5833C145.508 10.7993 146.444 10.1993 147.516 9.78335C148.588 9.35135 149.764 9.13534 151.044 9.13534C152.308 9.13534 153.476 9.35135 154.548 9.78335C155.62 10.1993 156.548 10.7913 157.332 11.5593C158.132 12.3273 158.748 13.2313 159.18 14.2713C159.628 15.3113 159.852 16.4473 159.852 17.6793C159.852 18.9113 159.628 20.0473 159.18 21.0873C158.748 22.1273 158.132 23.0313 157.332 23.7993C156.548 24.5673 155.62 25.1673 154.548 25.5993C153.476 26.0153 152.308 26.2233 151.044 26.2233ZM151.044 24.6393C152.052 24.6393 152.98 24.4713 153.828 24.1353C154.692 23.7833 155.436 23.2953 156.06 22.6713C156.7 22.0313 157.196 21.2953 157.548 20.4633C157.9 19.6153 158.076 18.6873 158.076 17.6793C158.076 16.6713 157.9 15.7513 157.548 14.9193C157.196 14.0713 156.7 13.3353 156.06 12.7113C155.436 12.0713 154.692 11.5833 153.828 11.2473C152.98 10.8953 152.052 10.7193 151.044 10.7193C150.036 10.7193 149.1 10.8953 148.236 11.2473C147.372 11.5833 146.62 12.0713 145.98 12.7113C145.356 13.3353 144.86 14.0713 144.492 14.9193C144.14 15.7513 143.964 16.6713 143.964 17.6793C143.964 18.6713 144.14 19.5913 144.492 20.4393C144.86 21.2873 145.356 22.0313 145.98 22.6713C146.62 23.2953 147.372 23.7833 148.236 24.1353C149.1 24.4713 150.036 24.6393 151.044 24.6393ZM163.472 26.0793V13.4793H165.104V16.9113L164.936 16.3113C165.288 15.3513 165.88 14.6233 166.712 14.1273C167.544 13.6153 168.576 13.3593 169.808 13.3593V15.0153C169.744 15.0153 169.68 15.0153 169.616 15.0153C169.552 14.9993 169.488 14.9913 169.424 14.9913C168.096 14.9913 167.056 15.3993 166.304 16.2153C165.552 17.0153 165.176 18.1593 165.176 19.6473V26.0793H163.472ZM179.876 26.0793V23.2953L179.804 22.8393V18.1833C179.804 17.1113 179.5 16.2873 178.892 15.7113C178.3 15.1353 177.412 14.8473 176.228 14.8473C175.412 14.8473 174.636 14.9833 173.9 15.2553C173.164 15.5273 172.54 15.8873 172.028 16.3353L171.26 15.0633C171.9 14.5193 172.668 14.1033 173.564 13.8153C174.46 13.5113 175.404 13.3593 176.396 13.3593C178.028 13.3593 179.284 13.7673 180.164 14.5833C181.06 15.3833 181.508 16.6073 181.508 18.2553V26.0793H179.876ZM175.532 26.1993C174.588 26.1993 173.764 26.0473 173.06 25.7433C172.372 25.4233 171.844 24.9913 171.476 24.4473C171.108 23.8873 170.924 23.2473 170.924 22.5273C170.924 21.8713 171.076 21.2793 171.38 20.7513C171.7 20.2073 172.212 19.7753 172.916 19.4553C173.636 19.1193 174.596 18.9513 175.796 18.9513H180.14V20.2233H175.844C174.628 20.2233 173.78 20.4393 173.3 20.8713C172.836 21.3033 172.604 21.8393 172.604 22.4793C172.604 23.1993 172.884 23.7753 173.444 24.2073C174.004 24.6393 174.788 24.8553 175.796 24.8553C176.756 24.8553 177.58 24.6393 178.268 24.2073C178.972 23.7593 179.484 23.1193 179.804 22.2873L180.188 23.4633C179.868 24.2953 179.308 24.9593 178.508 25.4553C177.724 25.9513 176.732 26.1993 175.532 26.1993ZM191.369 26.1993C190.121 26.1993 189.001 25.9273 188.009 25.3833C187.033 24.8233 186.265 24.0633 185.705 23.1033C185.145 22.1273 184.865 21.0153 184.865 19.7673C184.865 18.5033 185.145 17.3913 185.705 16.4313C186.265 15.4713 187.033 14.7193 188.009 14.1753C189.001 13.6313 190.121 13.3593 191.369 13.3593C192.441 13.3593 193.409 13.5673 194.273 13.9833C195.137 14.3993 195.817 15.0233 196.313 15.8553L195.041 16.7193C194.609 16.0793 194.073 15.6073 193.433 15.3033C192.793 14.9993 192.097 14.8473 191.345 14.8473C190.449 14.8473 189.641 15.0553 188.921 15.4713C188.201 15.8713 187.633 16.4393 187.217 17.1753C186.801 17.9113 186.593 18.7753 186.593 19.7673C186.593 20.7593 186.801 21.6233 187.217 22.3593C187.633 23.0953 188.201 23.6713 188.921 24.0873C189.641 24.4873 190.449 24.6873 191.345 24.6873C192.097 24.6873 192.793 24.5353 193.433 24.2313C194.073 23.9273 194.609 23.4633 195.041 22.8393L196.313 23.7033C195.817 24.5193 195.137 25.1433 194.273 25.5753C193.409 25.9913 192.441 26.1993 191.369 26.1993ZM199.472 26.0793V8.27134H201.176V26.0793H199.472ZM211.27 26.1993C209.958 26.1993 208.806 25.9273 207.814 25.3833C206.822 24.8233 206.046 24.0633 205.486 23.1033C204.926 22.1273 204.646 21.0153 204.646 19.7673C204.646 18.5193 204.91 17.4153 205.438 16.4553C205.982 15.4953 206.718 14.7433 207.646 14.1993C208.59 13.6393 209.646 13.3593 210.814 13.3593C211.998 13.3593 213.046 13.6313 213.958 14.1753C214.886 14.7033 215.614 15.4553 216.142 16.4313C216.67 17.3913 216.934 18.5033 216.934 19.7673C216.934 19.8473 216.926 19.9353 216.91 20.0313C216.91 20.1113 216.91 20.1993 216.91 20.2953H205.942V19.0233H215.998L215.326 19.5273C215.326 18.6153 215.126 17.8073 214.726 17.1033C214.342 16.3833 213.814 15.8233 213.142 15.4233C212.47 15.0233 211.694 14.8233 210.814 14.8233C209.95 14.8233 209.174 15.0233 208.486 15.4233C207.798 15.8233 207.262 16.3833 206.878 17.1033C206.494 17.8233 206.302 18.6473 206.302 19.5753V19.8393C206.302 20.7993 206.51 21.6473 206.926 22.3833C207.358 23.1033 207.95 23.6713 208.702 24.0873C209.47 24.4873 210.342 24.6873 211.318 24.6873C212.086 24.6873 212.798 24.5513 213.454 24.2793C214.126 24.0073 214.702 23.5913 215.182 23.0313L216.142 24.1353C215.582 24.8073 214.878 25.3193 214.03 25.6713C213.198 26.0233 212.278 26.1993 211.27 26.1993Z" fill="#F5F5F5"/>
<path fill-rule="evenodd" clip-rule="evenodd" d="M32.4535 4.14511C32.4535 1.88661 30.6039 0.0396729 28.3416 0.0396729H10.8045C10.7427 0.690152 10.7113 1.3501 10.7113 2.01686C10.7113 7.07757 12.5189 11.7169 15.5248 15.3259H15.6531V15.0775H15.9019V14.8295H16.1507V14.5812H16.399V14.3328H16.6478V14.0848H16.8962V13.8364H17.1449V13.588H17.3933V13.34H17.6421V13.0917H17.8904V12.8433H18.1392V12.5953H18.388V12.3469H18.6363V12.0985H18.8851V11.8505H19.1338V11.6021H19.3818V11.3541H19.6306V11.1061H19.8794V10.8578H20.1277V10.6094H20.3765V10.3614H21.1216V10.6094H21.3704V10.8578V11.3541V11.6021H21.1216V11.8505H20.8733V12.0985H20.6245V12.3469H20.3761V12.5953H20.1274V12.8433H19.879V13.0917H19.6302V13.34H19.3815V13.588H19.1335V13.8364H18.8847V14.0848H18.636V14.3328H18.3876V14.5812H18.1388V14.8295H17.8901V15.0775H17.6417V15.3259H17.3929V15.5739H17.1445V15.8219H16.8958V16.0703H16.6474V16.3187H16.4062C20.2084 20.337 25.5962 22.8443 31.5702 22.8443C31.8659 22.8443 32.1601 22.8382 32.4531 22.8261V4.14511H32.4535ZM25.3463 12.3477V12.844V13.0924H25.098V13.3408V13.5888H24.8492V13.8372V14.0856H24.6008V14.3335H24.3521V14.5819H24.1037V14.8303H23.8549V15.0783H23.6066V15.3267H23.3578V15.5747H23.109V15.8227H22.8607V16.0711H22.6119V16.3194H22.3631V16.5674H22.1148V16.8158H21.866V17.0642H21.6173V17.3122H21.3689V17.5606H21.1201V17.809H20.375V17.5606H20.1262V16.8162V16.5678H20.375V16.3198H20.6234V16.0714H20.8721V15.8231H21.1205V15.5751H21.3693V15.3271H21.6176V15.0787H21.8664V14.8307H22.1151V14.5823H22.3635V14.3339H22.6123V14.0859H22.861V13.8376H23.1094V13.5892H23.3582V13.3412H23.6069V13.0928V12.8444H23.8553V12.5964V12.348H24.1041V11.8517V11.6033H24.3524V10.3629H24.1041V10.1145V9.61814H23.8553V9.36977V9.12177H23.6069V8.87377H23.3582V8.62539H23.1094V8.37701H22.861V8.12901H22.6123H22.3635V7.88063H22.1151H21.8664V7.63263H21.6176H20.1266H19.6295V7.88063H19.1327H18.884V8.12901H18.6352V8.37701H18.3868V8.62539H18.1381H17.8893V8.87377V9.12177H17.6409H17.3922V9.36977H17.1438V9.61814H16.895V9.86615V10.1145H16.6467V10.3629H16.3979H16.1495V10.6109V10.8593H15.9008V11.1077H15.652H15.4036V11.3557H15.1549V11.6037H14.9061V11.852H14.409V11.6037H14.1602V11.3557H13.9118V10.8593H14.1602V10.6109H14.409V10.3629H14.6577V10.1145H14.9061V9.86615V9.61814H15.1549V9.36977H15.4036V9.12177H15.652V8.87377H15.9008H16.1495V8.62539H16.3979V8.37701H16.6467V8.12901H16.895V7.88063V7.63263H17.1438H17.3922V7.38463V7.13625H17.6409H17.8893V6.88788H18.1381V6.63988H18.3868H18.6352H18.884V6.3915H19.1327H19.6295V6.14312H19.8782H21.6176H21.8664V6.3915H22.3635H22.6123V6.63988H22.861H23.1094V6.88788H23.3582H23.6069V7.13625H23.8553V7.38463H24.1041V7.63263H24.3524V7.88063H24.6012V8.12901H24.8496V8.37701V8.62539H25.0983V8.87377V9.12177H25.3467V9.36977V9.86615H25.5955V10.3629V11.8517V12.348H25.3467L25.3463 12.3477Z" fill="#FFC000"/>
<path fill-rule="evenodd" clip-rule="evenodd" d="M31.6168 23.9325C25.3691 23.9325 19.7355 21.3101 15.7588 17.1078H15.7508V17.3671H15.4911V17.6269H15.231V17.8866H14.9709V18.146H14.7111V18.4057H14.451V18.6654H14.1909V18.9252H13.9312V19.1849H13.671V19.4446H13.4105V19.704H13.1508V19.9637H12.8907V20.2231H12.631V20.4825H12.3708V20.7422H12.1111V21.0019H11.851H11.5912V21.2613H11.071V21.0019H10.8113V20.7422H10.5512V20.2231H10.8113V19.9637H11.071V19.704H11.3311V19.4446H11.5912V19.1849H11.851V18.9252H12.1111V18.6654H12.3708V18.4057H12.631V18.146H12.8907V17.8866H13.1508V17.6269H13.4105V17.3671H13.671V17.1078H13.9312V16.848H14.1909V16.5883H14.451V16.3289H14.7111V16.0696H14.8361C11.6927 12.2954 9.80224 7.44372 9.80224 2.15091C9.80224 1.45349 9.83518 0.764008 9.89955 0.0836182H4.30005C1.9344 0.0836182 0 2.01499 0 4.37723V28.2806C0 30.6429 1.9344 32.5746 4.30005 32.5746H28.2398C30.6055 32.5746 32.5402 30.6429 32.5402 28.2806V23.9132C32.2335 23.9264 31.9261 23.9325 31.6164 23.9325H31.6168ZM13.9315 24.8934V25.1528H13.6714H13.4109V25.4125H13.1512H12.6313V25.6723H12.3712H10.2918V25.4125H9.77195H9.51184H9.2521V25.1528H8.99198H8.73187V24.8934H8.47213V24.6333H8.21239V24.3736H7.95228H7.69254V24.1142H7.43242V23.8549V23.5951H7.17231V23.3358H6.91219V23.076V22.8163H6.65207V22.5569V22.2972H6.39196V21.7781V21.2586H6.13222V19.4427H6.39196V18.9233V18.6635H6.65207V18.4038V18.1441H6.91219V17.8847V17.625H7.17231V17.3652H7.43242V17.1059H7.69254V16.8461V16.5864H7.95228V16.327H8.21239V16.0677H8.47213V15.8079H8.73187V15.5486H8.99198H9.2521V15.2888H9.51184V15.0291H9.77195V14.7698H10.0321V14.51V14.2503H10.2918H10.5523V13.9909V13.7312H10.8124V13.4714H11.0722H11.5924H11.8521V13.7312H12.1122V13.9909V14.51H11.8521V14.7698H11.5924V15.0291H11.3323V15.2888H11.0722V15.5486V15.8079H10.8124H10.5523V16.0677H10.2918V16.327H10.0321V16.5864V16.8461H9.77195V17.1059H9.51184H9.2521V17.3652V17.625H8.99198V17.8847H8.73187H8.47213V18.1441V18.4038H8.21239V18.6635H7.95228V19.183V19.4427H7.69254V19.9618V21.259V21.5188H7.95228V21.7785V22.0378V22.2976H8.21239V22.5573H8.47213V22.8167V23.0764H8.73187V23.3362H8.99198H9.2521V23.5955H9.51184V23.8553H9.77195H10.0321V24.1146H10.812H12.3712H12.6313V23.8553H12.8911H13.1512V23.5955H13.4109H13.6714V23.3362H13.9315V23.0764H14.1913V22.8167H14.4514V22.5573H14.7115V22.2976H14.9712V22.0378H15.2314V21.7785H15.4915V21.5188H15.7512V21.259H16.0113V20.9997H16.2711V20.7399H16.5312V20.4802H16.7909V20.2208H17.0514V19.9615H17.3111V19.7017H18.0907V19.9615H18.3509V20.2208V20.7399V20.9997H18.0907V21.259H17.831V21.5188H17.5709V21.7785H17.3108V22.0378H17.051V22.2976H16.7905V22.5573H16.5308V22.8167H16.2707V23.0764H16.0109V23.3362H15.7508V23.5955H15.4911V23.8553H15.231V24.1146H14.9709V24.374H14.7111V24.6337H14.451H14.1909V24.8938H13.9312L13.9315 24.8934Z" fill="#0505DD"/>
</svg>
