<svg width="106" height="106" viewBox="0 0 106 106" fill="none" xmlns="http://www.w3.org/2000/svg">
<path fill-rule="evenodd" clip-rule="evenodd" d="M105.439 13.339C105.439 6.00057 99.4291 0 92.0796 0H35.1017C34.9022 2.11437 34.8002 4.25718 34.8002 6.42351C34.8002 22.8662 40.6737 37.9391 50.4394 49.6645H50.8567V48.858H51.6643V48.0523H52.4722V47.2459H53.2791V46.439H54.0866V45.6337H54.8935V44.8273H55.7011V44.0205H56.5079V43.2151H57.3159V42.4087H58.1223V41.6019H58.9303V40.7966H59.7379V39.9901H60.5447V39.1833H61.3523V38.378H62.1602V37.5712H62.9671V36.7658H63.7746V35.9605H64.5826V35.1537H65.3891V34.3473H66.197V33.5419H68.6186V34.3473H69.4262V35.1537V36.7662V37.5715H68.6186V38.3784H67.8118V39.1837H67.0039V39.9905H66.1974V40.7969H65.3894V41.6023H64.583V42.4091H63.775V43.2155H62.9674V44.0208H62.1606V44.8277H61.3526V45.6341H60.5451V46.4394H59.7382V47.2463H58.9306V48.0527H58.1227V48.8584H57.3162V49.6648H56.5083V50.4701H55.7014V51.2758H54.8939V52.0823H54.087V52.8887H53.3037C65.6576 65.9448 83.1609 74.0908 102.57 74.0908C103.531 74.0908 104.487 74.0715 105.439 74.0316V13.3394L105.439 13.339ZM82.3465 39.989V41.6011V42.4079H81.54V43.2144V44.0197H80.7321V44.8265V45.633H79.9256V46.4383H79.1176V47.2451H78.3112V48.0516H77.5032V48.8573H76.6968V49.6637H75.8888V50.469H75.0809V51.2747H74.2744V52.0811H73.4664V52.8876H72.6589V53.6933H71.852V54.4997H71.0441V55.3066H70.2365V56.1119H69.4296V56.9183H68.6221V57.7251H66.2004V56.9183H65.3925V54.4994V53.6929H66.2004V52.8872H67.0069V52.0808H67.8149V51.2743H68.6217V50.4686H69.4293V49.6633H70.2361V48.8569H71.0437V48.0512H71.8516V47.2447H72.6585V46.4379H73.4661V45.6326H74.274V44.8261H75.0805V44.0193H75.8884V43.214H76.6964V42.4076V41.6007H77.5028V40.7954V39.989H78.3108V38.3765V37.5696H79.1173V33.5401H78.3108V32.7332V31.1211H77.5028V30.3143V29.5078H76.6964V28.7025H75.8884V27.8957H75.0805V27.0892H74.274V26.2835H73.4661H72.6585V25.4771H71.8516H71.0437V24.6718H70.2361H65.3917H63.7769V25.4771H62.1621H61.3542V26.2835H60.5466V27.0892H59.7398V27.8957H58.9322H58.1242V28.7025V29.5078H57.3178H56.5098V30.3143H55.703V31.1211H54.8954V31.9264V32.7328H54.0885V33.5397H53.281H52.4741V34.345V35.1514H51.6662V35.9583H50.8586H50.0518V36.7636H49.2442V37.5689H48.4362V38.3757H46.8214V37.5689H46.0134V36.7636H45.207V35.151H46.0134V34.3446H46.8214V33.5393H47.6294V32.7325H48.4358V31.926V31.1207H49.2438V30.3139H50.0514V29.5074H50.8582V28.7021H51.6658H52.4738V27.8953H53.2806V27.0888H54.0882V26.2832H54.895V25.4767V24.6714H55.7026H56.5094V23.8657V23.0593H57.3174H58.1238V22.2528H58.9318V21.4471H59.7394H60.5462H61.3538V20.6407H62.1617H63.7765V19.8338H64.5845H70.2353H71.0429V20.6407H72.6581H73.4657V21.4471H74.2736H75.0801V22.2528H75.8881H76.696V23.0593H77.5025V23.8657H78.3104V24.6714H79.1169V25.4767H79.9249V26.2832H80.7313V27.0888V27.8953H81.5393V28.7021V29.5074H82.3457V30.3139V31.9264H83.1537V33.5401V38.3768V39.9894H82.3457L82.3465 39.989Z" fill="#FFC000"/>
<path fill-rule="evenodd" clip-rule="evenodd" d="M102.72 77.6277C82.4227 77.6277 64.1187 69.1084 51.1981 55.4549H51.1723V56.2974H50.3287V57.141H49.4835V57.9847H48.6388V58.8271H47.7951V59.6708H46.95V60.5144H46.1052V61.3569H45.2612V62.2005H44.4165V63.0445H43.5713V63.8866H42.7277V64.7306H41.8826V65.5731H41.039V66.4152H40.1942V67.2592H39.3502V68.1028H38.5054H37.6618V68.9453H35.9715V68.1028H35.1279V67.2592H34.2831V65.5731H35.1279V64.7306H35.9715V63.8866H36.8167V63.0445H37.6618V62.2005H38.5054V61.3569H39.3502V60.5144H40.1942V59.6708H41.039V58.8271H41.8826V57.9847H42.7277V57.141H43.5713V56.2974H44.4165V55.4549H45.2612V54.6113H46.1052V53.7677H46.95V52.9252H47.7951V52.0827H48.2022C37.9892 39.8206 31.8467 24.0577 31.8467 6.86131C31.8467 4.59597 31.9537 2.35453 32.1623 0.143433H13.9706C6.28468 0.143433 0 6.41901 0 14.0932V91.755C0 99.4291 6.28468 105.705 13.9706 105.705H91.7496C99.4355 105.705 105.721 99.4291 105.721 91.755V77.5651C104.726 77.6072 103.725 77.6277 102.72 77.6277ZM45.2616 80.7495V81.5917H44.4169H43.5717V82.4357H42.7281H41.0393V83.2793H40.1946H33.4388V82.4357H31.75H30.9052H30.0616V81.5917H29.2165H28.3713V80.7495H27.5277V79.9055H26.6841V79.0619H25.839H24.9953V78.2194H24.1506V77.3773V76.5333H23.3054V75.6912H22.4618V74.8472V74.0036H21.6167V73.1611V72.3175H20.7719V70.6314V68.9442H19.9283V63.0437H20.7719V61.3561V60.5136H21.6167V59.67V58.8264H22.4618V57.9839V57.1403H23.3054V56.2966H24.1506V55.4542H24.9953V54.6105V53.7669H25.839V52.9244H26.6841V52.082H27.5277V51.2383H28.3713V50.3958H29.2165H30.0616V49.5522H30.9052V48.7082H31.75V47.8661H32.5951V47.0221V46.1785H33.4388H34.2839V45.336V44.4924H35.1287V43.6488H35.9723H37.6626H38.5062V44.4924H39.351V45.336V47.0221H38.5062V47.8661H37.6626V48.7082H36.8174V49.5522H35.9723V50.3958V51.2383H35.1287H34.2839V52.082H33.4388V52.9244H32.5951V53.7669V54.6105H31.75V55.4542H30.9052H30.0616V56.2966V57.1403H29.2165V57.9839H28.3713H27.5277V58.8264V59.67H26.6841V60.5136H25.839V62.1997V63.0437H24.9953V64.7298V68.9445V69.7882H25.839V70.6318V71.4743V72.3179H26.6841V73.1615H27.5277V74.004V74.8476H28.3713V75.6916H29.2165H30.0616V76.5337H30.9052V77.3777H31.75H32.5951V78.2198H35.1287H40.1946H41.0393V77.3777H41.883H42.7281V76.5337H43.5717H44.4169V75.6916H45.2616V74.8476H46.1056V74.004H46.9504V73.1615H47.7955V72.3179H48.6391V71.4743H49.4839V70.6318H50.329V69.7882H51.1727V68.9445H52.0178V68.1021H52.8614V67.2584H53.7066V66.4144H54.5502V65.5723H55.3949V64.7298H56.2389V63.8858H58.7725V64.7298H59.6172V65.5723V67.2584V68.1021H58.7725V68.9445H57.9288V69.7882H57.0837V70.6318H56.2389V71.4743H55.3949V72.3179H54.5502V73.1615H53.7066V74.004H52.8614V74.8476H52.0178V75.6916H51.1727V76.5337H50.329V77.3777H49.4839V78.2198H48.6391V79.0623H47.7955V79.9059H46.9504H46.1056V80.7499L45.2616 80.7495Z" fill="#0505DD"/>
</svg>
