<svg width="219" height="33" viewBox="0 0 219 33" fill="none" xmlns="http://www.w3.org/2000/svg">
<path d="M52.722 9.23967H54.474V26.0397H52.722V9.23967ZM42.21 26.0397H40.434V9.23967H42.21V26.0397ZM52.89 18.2877H42.018V16.7277H52.89V18.2877ZM67.4934 26.0397V23.2557L67.4214 22.7997V18.1437C67.4214 17.0717 67.1174 16.2477 66.5094 15.6717C65.9174 15.0957 65.0294 14.8077 63.8454 14.8077C63.0294 14.8077 62.2534 14.9437 61.5174 15.2157C60.7814 15.4877 60.1574 15.8477 59.6454 16.2957L58.8774 15.0237C59.5174 14.4797 60.2854 14.0637 61.1814 13.7757C62.0774 13.4717 63.0214 13.3197 64.0134 13.3197C65.6454 13.3197 66.9014 13.7277 67.7814 14.5437C68.6774 15.3437 69.1254 16.5677 69.1254 18.2157V26.0397H67.4934ZM63.1494 26.1597C62.2054 26.1597 61.3814 26.0077 60.6774 25.7037C59.9894 25.3837 59.4614 24.9517 59.0934 24.4077C58.7254 23.8477 58.5414 23.2077 58.5414 22.4877C58.5414 21.8317 58.6934 21.2397 58.9974 20.7117C59.3174 20.1677 59.8294 19.7357 60.5334 19.4157C61.2534 19.0797 62.2134 18.9117 63.4134 18.9117H67.7574V20.1837H63.4614C62.2454 20.1837 61.3974 20.3997 60.9174 20.8317C60.4534 21.2637 60.2214 21.7997 60.2214 22.4397C60.2214 23.1597 60.5014 23.7357 61.0614 24.1677C61.6214 24.5997 62.4054 24.8157 63.4134 24.8157C64.3734 24.8157 65.1974 24.5997 65.8854 24.1677C66.5894 23.7197 67.1014 23.0797 67.4214 22.2477L67.8054 23.4237C67.4854 24.2557 66.9254 24.9197 66.1254 25.4157C65.3414 25.9117 64.3494 26.1597 63.1494 26.1597ZM73.7537 26.0397V13.4397H75.3857V16.8717L75.2177 16.2717C75.5697 15.3117 76.1617 14.5837 76.9937 14.0877C77.8257 13.5757 78.8577 13.3197 80.0897 13.3197V14.9757C80.0257 14.9757 79.9617 14.9757 79.8977 14.9757C79.8337 14.9597 79.7697 14.9517 79.7057 14.9517C78.3777 14.9517 77.3377 15.3597 76.5857 16.1757C75.8337 16.9757 75.4577 18.1197 75.4577 19.6077V26.0397H73.7537ZM88.0978 26.1597C86.8978 26.1597 85.8178 25.8877 84.8578 25.3437C83.9138 24.7997 83.1698 24.0477 82.6258 23.0877C82.0818 22.1117 81.8098 20.9917 81.8098 19.7277C81.8098 18.4477 82.0818 17.3277 82.6258 16.3677C83.1698 15.4077 83.9138 14.6637 84.8578 14.1357C85.8178 13.5917 86.8978 13.3197 88.0978 13.3197C89.2018 13.3197 90.1858 13.5677 91.0498 14.0637C91.9298 14.5597 92.6258 15.2877 93.1378 16.2477C93.6658 17.1917 93.9298 18.3517 93.9298 19.7277C93.9298 21.0877 93.6738 22.2477 93.1618 23.2077C92.6498 24.1677 91.9538 24.9037 91.0738 25.4157C90.2098 25.9117 89.2178 26.1597 88.0978 26.1597ZM88.2178 24.6477C89.1138 24.6477 89.9138 24.4477 90.6178 24.0477C91.3378 23.6317 91.8978 23.0557 92.2978 22.3197C92.7138 21.5677 92.9218 20.7037 92.9218 19.7277C92.9218 18.7357 92.7138 17.8717 92.2978 17.1357C91.8978 16.3997 91.3378 15.8317 90.6178 15.4317C89.9138 15.0157 89.1138 14.8077 88.2178 14.8077C87.3378 14.8077 86.5458 15.0157 85.8418 15.4317C85.1378 15.8317 84.5778 16.3997 84.1618 17.1357C83.7458 17.8717 83.5378 18.7357 83.5378 19.7277C83.5378 20.7037 83.7458 21.5677 84.1618 22.3197C84.5778 23.0557 85.1378 23.6317 85.8418 24.0477C86.5458 24.4477 87.3378 24.6477 88.2178 24.6477ZM92.9698 26.0397V22.2477L93.1378 19.7037L92.8978 17.1597V8.23167H94.6018V26.0397H92.9698ZM104.483 26.1597C103.267 26.1597 102.171 25.8877 101.195 25.3437C100.235 24.7837 99.4754 24.0237 98.9154 23.0637C98.3554 22.0877 98.0754 20.9757 98.0754 19.7277C98.0754 18.4637 98.3554 17.3517 98.9154 16.3917C99.4754 15.4317 100.235 14.6797 101.195 14.1357C102.155 13.5917 103.251 13.3197 104.483 13.3197C105.731 13.3197 106.835 13.5917 107.795 14.1357C108.771 14.6797 109.531 15.4317 110.075 16.3917C110.635 17.3517 110.915 18.4637 110.915 19.7277C110.915 20.9757 110.635 22.0877 110.075 23.0637C109.531 24.0237 108.771 24.7837 107.795 25.3437C106.819 25.8877 105.715 26.1597 104.483 26.1597ZM104.483 24.6477C105.395 24.6477 106.203 24.4477 106.907 24.0477C107.611 23.6317 108.163 23.0557 108.563 22.3197C108.979 21.5677 109.187 20.7037 109.187 19.7277C109.187 18.7357 108.979 17.8717 108.563 17.1357C108.163 16.3997 107.611 15.8317 106.907 15.4317C106.203 15.0157 105.403 14.8077 104.507 14.8077C103.611 14.8077 102.811 15.0157 102.107 15.4317C101.403 15.8317 100.843 16.3997 100.427 17.1357C100.011 17.8717 99.8034 18.7357 99.8034 19.7277C99.8034 20.7037 100.011 21.5677 100.427 22.3197C100.843 23.0557 101.403 23.6317 102.107 24.0477C102.811 24.4477 103.603 24.6477 104.483 24.6477ZM114.394 26.0397V13.4397H116.026V16.8717L115.858 16.2717C116.21 15.3117 116.802 14.5837 117.634 14.0877C118.466 13.5757 119.498 13.3197 120.73 13.3197V14.9757C120.666 14.9757 120.602 14.9757 120.538 14.9757C120.474 14.9597 120.41 14.9517 120.346 14.9517C119.018 14.9517 117.978 15.3597 117.226 16.1757C116.474 16.9757 116.098 18.1197 116.098 19.6077V26.0397H114.394ZM130.798 26.0397V23.2557L130.726 22.7997V18.1437C130.726 17.0717 130.422 16.2477 129.814 15.6717C129.222 15.0957 128.334 14.8077 127.15 14.8077C126.334 14.8077 125.558 14.9437 124.822 15.2157C124.086 15.4877 123.462 15.8477 122.95 16.2957L122.182 15.0237C122.822 14.4797 123.59 14.0637 124.486 13.7757C125.382 13.4717 126.326 13.3197 127.318 13.3197C128.95 13.3197 130.206 13.7277 131.086 14.5437C131.982 15.3437 132.43 16.5677 132.43 18.2157V26.0397H130.798ZM126.454 26.1597C125.51 26.1597 124.686 26.0077 123.982 25.7037C123.294 25.3837 122.766 24.9517 122.398 24.4077C122.03 23.8477 121.846 23.2077 121.846 22.4877C121.846 21.8317 121.998 21.2397 122.302 20.7117C122.622 20.1677 123.134 19.7357 123.838 19.4157C124.558 19.0797 125.518 18.9117 126.718 18.9117H131.062V20.1837H126.766C125.55 20.1837 124.702 20.3997 124.222 20.8317C123.758 21.2637 123.526 21.7997 123.526 22.4397C123.526 23.1597 123.806 23.7357 124.366 24.1677C124.926 24.5997 125.71 24.8157 126.718 24.8157C127.678 24.8157 128.502 24.5997 129.19 24.1677C129.894 23.7197 130.406 23.0797 130.726 22.2477L131.11 23.4237C130.79 24.2557 130.23 24.9197 129.43 25.4157C128.646 25.9117 127.654 26.1597 126.454 26.1597ZM151.044 26.1837C149.78 26.1837 148.604 25.9757 147.516 25.5597C146.444 25.1277 145.508 24.5277 144.708 23.7597C143.924 22.9757 143.308 22.0717 142.86 21.0477C142.428 20.0077 142.212 18.8717 142.212 17.6397C142.212 16.4077 142.428 15.2797 142.86 14.2557C143.308 13.2157 143.924 12.3117 144.708 11.5437C145.508 10.7597 146.444 10.1597 147.516 9.74367C148.588 9.31167 149.764 9.09567 151.044 9.09567C152.308 9.09567 153.476 9.31167 154.548 9.74367C155.62 10.1597 156.548 10.7517 157.332 11.5197C158.132 12.2877 158.748 13.1917 159.18 14.2317C159.628 15.2717 159.852 16.4077 159.852 17.6397C159.852 18.8717 159.628 20.0077 159.18 21.0477C158.748 22.0877 158.132 22.9917 157.332 23.7597C156.548 24.5277 155.62 25.1277 154.548 25.5597C153.476 25.9757 152.308 26.1837 151.044 26.1837ZM151.044 24.5997C152.052 24.5997 152.98 24.4317 153.828 24.0957C154.692 23.7437 155.436 23.2557 156.06 22.6317C156.7 21.9917 157.196 21.2557 157.548 20.4237C157.9 19.5757 158.076 18.6477 158.076 17.6397C158.076 16.6317 157.9 15.7117 157.548 14.8797C157.196 14.0317 156.7 13.2957 156.06 12.6717C155.436 12.0317 154.692 11.5437 153.828 11.2077C152.98 10.8557 152.052 10.6797 151.044 10.6797C150.036 10.6797 149.1 10.8557 148.236 11.2077C147.372 11.5437 146.62 12.0317 145.98 12.6717C145.356 13.2957 144.86 14.0317 144.492 14.8797C144.14 15.7117 143.964 16.6317 143.964 17.6397C143.964 18.6317 144.14 19.5517 144.492 20.3997C144.86 21.2477 145.356 21.9917 145.98 22.6317C146.62 23.2557 147.372 23.7437 148.236 24.0957C149.1 24.4317 150.036 24.5997 151.044 24.5997ZM163.472 26.0397V13.4397H165.104V16.8717L164.936 16.2717C165.288 15.3117 165.88 14.5837 166.712 14.0877C167.544 13.5757 168.576 13.3197 169.808 13.3197V14.9757C169.744 14.9757 169.68 14.9757 169.616 14.9757C169.552 14.9597 169.488 14.9517 169.424 14.9517C168.096 14.9517 167.056 15.3597 166.304 16.1757C165.552 16.9757 165.176 18.1197 165.176 19.6077V26.0397H163.472ZM179.876 26.0397V23.2557L179.804 22.7997V18.1437C179.804 17.0717 179.5 16.2477 178.892 15.6717C178.3 15.0957 177.412 14.8077 176.228 14.8077C175.412 14.8077 174.636 14.9437 173.9 15.2157C173.164 15.4877 172.54 15.8477 172.028 16.2957L171.26 15.0237C171.9 14.4797 172.668 14.0637 173.564 13.7757C174.46 13.4717 175.404 13.3197 176.396 13.3197C178.028 13.3197 179.284 13.7277 180.164 14.5437C181.06 15.3437 181.508 16.5677 181.508 18.2157V26.0397H179.876ZM175.532 26.1597C174.588 26.1597 173.764 26.0077 173.06 25.7037C172.372 25.3837 171.844 24.9517 171.476 24.4077C171.108 23.8477 170.924 23.2077 170.924 22.4877C170.924 21.8317 171.076 21.2397 171.38 20.7117C171.7 20.1677 172.212 19.7357 172.916 19.4157C173.636 19.0797 174.596 18.9117 175.796 18.9117H180.14V20.1837H175.844C174.628 20.1837 173.78 20.3997 173.3 20.8317C172.836 21.2637 172.604 21.7997 172.604 22.4397C172.604 23.1597 172.884 23.7357 173.444 24.1677C174.004 24.5997 174.788 24.8157 175.796 24.8157C176.756 24.8157 177.58 24.5997 178.268 24.1677C178.972 23.7197 179.484 23.0797 179.804 22.2477L180.188 23.4237C179.868 24.2557 179.308 24.9197 178.508 25.4157C177.724 25.9117 176.732 26.1597 175.532 26.1597ZM191.369 26.1597C190.121 26.1597 189.001 25.8877 188.009 25.3437C187.033 24.7837 186.265 24.0237 185.705 23.0637C185.145 22.0877 184.865 20.9757 184.865 19.7277C184.865 18.4637 185.145 17.3517 185.705 16.3917C186.265 15.4317 187.033 14.6797 188.009 14.1357C189.001 13.5917 190.121 13.3197 191.369 13.3197C192.441 13.3197 193.409 13.5277 194.273 13.9437C195.137 14.3597 195.817 14.9837 196.313 15.8157L195.041 16.6797C194.609 16.0397 194.073 15.5677 193.433 15.2637C192.793 14.9597 192.097 14.8077 191.345 14.8077C190.449 14.8077 189.641 15.0157 188.921 15.4317C188.201 15.8317 187.633 16.3997 187.217 17.1357C186.801 17.8717 186.593 18.7357 186.593 19.7277C186.593 20.7197 186.801 21.5837 187.217 22.3197C187.633 23.0557 188.201 23.6317 188.921 24.0477C189.641 24.4477 190.449 24.6477 191.345 24.6477C192.097 24.6477 192.793 24.4957 193.433 24.1917C194.073 23.8877 194.609 23.4237 195.041 22.7997L196.313 23.6637C195.817 24.4797 195.137 25.1037 194.273 25.5357C193.409 25.9517 192.441 26.1597 191.369 26.1597ZM199.472 26.0397V8.23167H201.176V26.0397H199.472ZM211.27 26.1597C209.958 26.1597 208.806 25.8877 207.814 25.3437C206.822 24.7837 206.046 24.0237 205.486 23.0637C204.926 22.0877 204.646 20.9757 204.646 19.7277C204.646 18.4797 204.91 17.3757 205.438 16.4157C205.982 15.4557 206.718 14.7037 207.646 14.1597C208.59 13.5997 209.646 13.3197 210.814 13.3197C211.998 13.3197 213.046 13.5917 213.958 14.1357C214.886 14.6637 215.614 15.4157 216.142 16.3917C216.67 17.3517 216.934 18.4637 216.934 19.7277C216.934 19.8077 216.926 19.8957 216.91 19.9917C216.91 20.0717 216.91 20.1597 216.91 20.2557H205.942V18.9837H215.998L215.326 19.4877C215.326 18.5757 215.126 17.7677 214.726 17.0637C214.342 16.3437 213.814 15.7837 213.142 15.3837C212.47 14.9837 211.694 14.7837 210.814 14.7837C209.95 14.7837 209.174 14.9837 208.486 15.3837C207.798 15.7837 207.262 16.3437 206.878 17.0637C206.494 17.7837 206.302 18.6077 206.302 19.5357V19.7997C206.302 20.7597 206.51 21.6077 206.926 22.3437C207.358 23.0637 207.95 23.6317 208.702 24.0477C209.47 24.4477 210.342 24.6477 211.318 24.6477C212.086 24.6477 212.798 24.5117 213.454 24.2397C214.126 23.9677 214.702 23.5517 215.182 22.9917L216.142 24.0957C215.582 24.7677 214.878 25.2797 214.03 25.6317C213.198 25.9837 212.278 26.1597 211.27 26.1597Z" fill="#111432"/>
<path fill-rule="evenodd" clip-rule="evenodd" d="M32.4535 4.10544C32.4535 1.84694 30.6039 0 28.3416 0H10.8045C10.7427 0.650479 10.7113 1.31042 10.7113 1.97718C10.7113 7.03789 12.5189 11.6772 15.5248 15.2863H15.6531V15.0379H15.9019V14.7899H16.1507V14.5415H16.399V14.2931H16.6478V14.0451H16.8962V13.7967H17.1449V13.5484H17.3933V13.3004H17.6421V13.052H17.8904V12.8036H18.1392V12.5556H18.388V12.3072H18.6363V12.0588H18.8851V11.8109H19.1338V11.5625H19.3818V11.3145H19.6306V11.0665H19.8794V10.8181H20.1277V10.5697H20.3765V10.3217H21.1216V10.5697H21.3704V10.8181V11.3145V11.5625H21.1216V11.8109H20.8733V12.0588H20.6245V12.3072H20.3761V12.5556H20.1274V12.8036H19.879V13.052H19.6302V13.3004H19.3815V13.5484H19.1335V13.7967H18.8847V14.0451H18.636V14.2931H18.3876V14.5415H18.1388V14.7899H17.8901V15.0379H17.6417V15.2863H17.3929V15.5343H17.1445V15.7823H16.8958V16.0306H16.6474V16.279H16.4062C20.2084 20.2974 25.5962 22.8046 31.5702 22.8046C31.8659 22.8046 32.1601 22.7986 32.4531 22.7865V4.10544H32.4535ZM25.3463 12.308V12.8044V13.0527H25.098V13.3011V13.5491H24.8492V13.7975V14.0459H24.6008V14.2939H24.3521V14.5423H24.1037V14.7906H23.8549V15.0386H23.6066V15.287H23.3578V15.535H23.109V15.783H22.8607V16.0314H22.6119V16.2798H22.3631V16.5278H22.1148V16.7761H21.866V17.0245H21.6173V17.2725H21.3689V17.5209H21.1201V17.7693H20.375V17.5209H20.1262V16.7765V16.5281H20.375V16.2801H20.6234V16.0318H20.8721V15.7834H21.1205V15.5354H21.3693V15.2874H21.6176V15.039H21.8664V14.791H22.1151V14.5426H22.3635V14.2943H22.6123V14.0463H22.861V13.7979H23.1094V13.5495H23.3582V13.3015H23.6069V13.0531V12.8047H23.8553V12.5567V12.3084H24.1041V11.812V11.5636H24.3524V10.3232H24.1041V10.0749V9.57847H23.8553V9.33009V9.08209H23.6069V8.8341H23.3582V8.58572H23.1094V8.33734H22.861V8.08934H22.6123H22.3635V7.84096H22.1151H21.8664V7.59296H21.6176H20.1266H19.6295V7.84096H19.1327H18.884V8.08934H18.6352V8.33734H18.3868V8.58572H18.1381H17.8893V8.8341V9.08209H17.6409H17.3922V9.33009H17.1438V9.57847H16.895V9.82647V10.0749H16.6467V10.3232H16.3979H16.1495V10.5712V10.8196H15.9008V11.068H15.652H15.4036V11.316H15.1549V11.564H14.9061V11.8124H14.409V11.564H14.1602V11.316H13.9118V10.8196H14.1602V10.5712H14.409V10.3232H14.6577V10.0749H14.9061V9.82647V9.57847H15.1549V9.33009H15.4036V9.08209H15.652V8.8341H15.9008H16.1495V8.58572H16.3979V8.33734H16.6467V8.08934H16.895V7.84096V7.59296H17.1438H17.3922V7.34496V7.09658H17.6409H17.8893V6.8482H18.1381V6.6002H18.3868H18.6352H18.884V6.35182H19.1327H19.6295V6.10345H19.8782H21.6176H21.8664V6.35182H22.3635H22.6123V6.6002H22.861H23.1094V6.8482H23.3582H23.6069V7.09658H23.8553V7.34496H24.1041V7.59296H24.3524V7.84096H24.6012V8.08934H24.8496V8.33734V8.58572H25.0983V8.8341V9.08209H25.3467V9.33009V9.82647H25.5955V10.3232V11.812V12.3084H25.3467L25.3463 12.308Z" fill="#FFC000"/>
<path fill-rule="evenodd" clip-rule="evenodd" d="M31.6168 23.8928C25.3691 23.8928 19.7355 21.2705 15.7588 17.0681H15.7508V17.3274H15.4911V17.5872H15.231V17.8469H14.9709V18.1063H14.7111V18.366H14.451V18.6258H14.1909V18.8855H13.9312V19.1452H13.671V19.405H13.4105V19.6643H13.1508V19.9241H12.8907V20.1834H12.631V20.4428H12.3708V20.7025H12.1111V20.9623H11.851H11.5912V21.2216H11.071V20.9623H10.8113V20.7025H10.5512V20.1834H10.8113V19.9241H11.071V19.6643H11.3311V19.405H11.5912V19.1452H11.851V18.8855H12.1111V18.6258H12.3708V18.366H12.631V18.1063H12.8907V17.8469H13.1508V17.5872H13.4105V17.3274H13.671V17.0681H13.9312V16.8084H14.1909V16.5486H14.451V16.2893H14.7111V16.0299H14.8361C11.6927 12.2558 9.80224 7.40405 9.80224 2.11124C9.80224 1.41381 9.83518 0.724336 9.89955 0.0439453H4.30005C1.9344 0.0439453 0 1.97531 0 4.33756V28.241C0 30.6032 1.9344 32.535 4.30005 32.535H28.2398C30.6055 32.535 32.5402 30.6032 32.5402 28.241V23.8735C32.2335 23.8868 31.9261 23.8928 31.6164 23.8928H31.6168ZM13.9315 24.8538V25.1131H13.6714H13.4109V25.3729H13.1512H12.6313V25.6326H12.3712H10.2918V25.3729H9.77195H9.51184H9.2521V25.1131H8.99198H8.73187V24.8538H8.47213V24.5937H8.21239V24.3339H7.95228H7.69254V24.0746H7.43242V23.8152V23.5555H7.17231V23.2961H6.91219V23.0364V22.7766H6.65207V22.5173V22.2575H6.39196V21.7384V21.219H6.13222V19.4031H6.39196V18.8836V18.6239H6.65207V18.3641V18.1044H6.91219V17.845V17.5853H7.17231V17.3256H7.43242V17.0662H7.69254V16.8065V16.5467H7.95228V16.2874H8.21239V16.028H8.47213V15.7683H8.73187V15.5089H8.99198H9.2521V15.2492H9.51184V14.9894H9.77195V14.7301H10.0321V14.4703V14.2106H10.2918H10.5523V13.9512V13.6915H10.8124V13.4318H11.0722H11.5924H11.8521V13.6915H12.1122V13.9512V14.4703H11.8521V14.7301H11.5924V14.9894H11.3323V15.2492H11.0722V15.5089V15.7683H10.8124H10.5523V16.028H10.2918V16.2874H10.0321V16.5467V16.8065H9.77195V17.0662H9.51184H9.2521V17.3256V17.5853H8.99198V17.845H8.73187H8.47213V18.1044V18.3641H8.21239V18.6239H7.95228V19.1433V19.4031H7.69254V19.9222V21.2193V21.4791H7.95228V21.7388V21.9982V22.2579H8.21239V22.5176H8.47213V22.777V23.0367H8.73187V23.2965H8.99198H9.2521V23.5558H9.51184V23.8156H9.77195H10.0321V24.0749H10.812H12.3712H12.6313V23.8156H12.8911H13.1512V23.5558H13.4109H13.6714V23.2965H13.9315V23.0367H14.1913V22.777H14.4514V22.5176H14.7115V22.2579H14.9712V21.9982H15.2314V21.7388H15.4915V21.4791H15.7512V21.2193H16.0113V20.96H16.2711V20.7002H16.5312V20.4405H16.7909V20.1812H17.0514V19.9218H17.3111V19.6621H18.0907V19.9218H18.3509V20.1812V20.7002V20.96H18.0907V21.2193H17.831V21.4791H17.5709V21.7388H17.3108V21.9982H17.051V22.2579H16.7905V22.5176H16.5308V22.777H16.2707V23.0367H16.0109V23.2965H15.7508V23.5558H15.4911V23.8156H15.231V24.0749H14.9709V24.3343H14.7111V24.594H14.451H14.1909V24.8541H13.9312L13.9315 24.8538Z" fill="#0505DD"/>
</svg>
