<svg width="310" height="327" viewBox="0 0 310 327" fill="none" xmlns="http://www.w3.org/2000/svg">
<path d="M249.465 326.176H147.033C131.669 326.176 119.17 313.69 119.17 298.342V27.8344C119.17 12.4865 131.669 0 147.033 0H249.465C264.829 0 277.328 12.4865 277.328 27.8344C279.235 136.462 282.486 258.107 277.328 298.342C277.328 313.69 264.829 326.176 249.465 326.176Z" fill="#3F3D56"/>
<path d="M278.756 99.5015C278.106 99.5015 277.578 100.03 277.578 100.679V138.36C277.578 139.009 278.106 139.538 278.756 139.538C279.406 139.538 279.935 139.009 279.935 138.36V100.679C279.935 100.03 279.406 99.5015 278.756 99.5015Z" fill="#3F3D56"/>
<path d="M274.676 27.8346V298.337C274.676 311.696 264.268 322.624 251.107 323.472H251.101C250.907 323.483 250.712 323.495 250.512 323.501C250.164 323.519 249.816 323.525 249.463 323.525C249.463 323.525 248.166 323.43 245.797 323.254C243.404 323.077 239.921 322.812 235.577 322.465C234.275 322.365 232.902 322.253 231.452 322.135C228.564 321.9 225.393 321.64 221.992 321.346C220.637 321.234 219.234 321.111 217.802 320.987C210.482 320.357 202.284 319.621 193.638 318.785C192.176 318.65 190.703 318.508 189.218 318.361C188.829 318.32 121.822 301.493 121.822 298.337V27.8346C121.822 13.9221 133.109 2.64722 147.036 2.64722H162.088C164.493 2.64722 166.426 4.51949 166.632 6.91577C166.65 7.07475 166.667 7.23369 166.697 7.39267C167.133 9.80074 169.343 11.4787 171.795 11.4787H224.703C227.155 11.4787 229.365 9.80074 229.802 7.39267C229.831 7.2337 229.849 7.07475 229.866 6.91577C230.073 4.51949 232.006 2.64722 234.41 2.64722H249.463C263.39 2.64722 274.676 13.9221 274.676 27.8346Z" fill="white"/>
<path d="M118.581 71.2407C117.931 71.2407 117.402 71.7688 117.402 72.4183V81.8385C117.402 82.4879 117.931 83.016 118.581 83.016C119.231 83.016 119.759 82.4879 119.759 81.8385V72.4183C119.759 71.7688 119.231 71.2407 118.581 71.2407Z" fill="#3F3D56"/>
<path d="M118.581 99.5015C117.931 99.5015 117.402 100.03 117.402 100.679V118.931C117.402 119.58 117.931 120.108 118.581 120.108C119.231 120.108 119.759 119.58 119.759 118.931V100.679C119.759 100.03 119.231 99.5015 118.581 99.5015Z" fill="#3F3D56"/>
<path d="M118.581 125.407C117.931 125.407 117.402 125.935 117.402 126.585V144.836C117.402 145.486 117.931 146.014 118.581 146.014C119.231 146.014 119.759 145.486 119.759 144.836V126.585C119.759 125.935 119.231 125.407 118.581 125.407Z" fill="#3F3D56"/>
<path d="M161.701 6.77087H139.112C139.003 6.77087 138.914 6.85952 138.914 6.96888V9.51669C138.914 9.62605 139.003 9.7147 139.112 9.7147H161.701C161.811 9.7147 161.899 9.62605 161.899 9.51669V6.96888C161.899 6.85952 161.811 6.77087 161.701 6.77087Z" fill="#E6E6E6"/>
<path d="M238.135 9.71476C239.437 9.71476 240.493 8.66037 240.493 7.3597C240.493 6.05904 239.437 5.00464 238.135 5.00464C236.833 5.00464 235.778 6.05904 235.778 7.3597C235.778 8.66037 236.833 9.71476 238.135 9.71476Z" fill="#E6E6E6"/>
<path d="M244.618 9.71476C245.92 9.71476 246.976 8.66037 246.976 7.3597C246.976 6.05904 245.92 5.00464 244.618 5.00464C243.316 5.00464 242.261 6.05904 242.261 7.3597C242.261 8.66037 243.316 9.71476 244.618 9.71476Z" fill="#E6E6E6"/>
<path d="M251.101 9.71476C252.403 9.71476 253.459 8.66037 253.459 7.3597C253.459 6.05904 252.403 5.00464 251.101 5.00464C249.799 5.00464 248.744 6.05904 248.744 7.3597C248.744 8.66037 249.799 9.71476 251.101 9.71476Z" fill="#E6E6E6"/>
<path d="M120.848 321.251L113.664 321.251L110.246 293.568L120.849 293.569L120.848 321.251Z" fill="#FFB6B6"/>
<path d="M96.2337 321.089C96.01 321.465 95.892 322.68 95.892 323.117C95.892 324.463 96.9836 325.553 98.3303 325.553H120.579C121.498 325.553 122.243 324.809 122.243 323.891V322.966C122.243 322.966 123.343 320.185 121.077 316.757C121.077 316.757 118.261 319.441 114.053 315.237L112.812 312.991L103.828 319.554L98.8493 320.167C97.7599 320.301 96.794 320.146 96.2337 321.089Z" fill="#2F2E41"/>
<path d="M81.1178 282.801L73.9336 282.778L70.604 255.084L81.2073 255.119L81.1178 282.801Z" fill="#FFB6B6"/>
<path d="M56.5043 282.56C56.2794 282.936 56.1575 284.15 56.1561 284.588C56.1519 285.933 57.2401 287.027 58.5867 287.032L80.8354 287.102C81.7541 287.105 82.5012 286.364 82.5042 285.446L82.5071 284.52C82.5071 284.52 83.6166 281.743 81.3615 278.308C81.3615 278.308 78.5366 280.983 74.3417 276.766L73.1079 274.516L64.1039 281.05L59.1228 281.647C58.033 281.777 57.0676 281.619 56.5043 282.56Z" fill="#2F2E41"/>
<path d="M110.37 153.193L101.424 153.831C101.424 153.831 71.1406 171.032 68.5848 174.861C66.029 178.691 62.5147 184.117 65.7095 189.861C68.9043 195.606 66.4728 265.164 66.4728 265.164L81.7392 261.714L91.5205 188.938L111.967 186.065C111.967 186.065 118.996 201.214 116.44 213.746C113.884 226.278 112.606 233.938 112.606 233.938L109.411 307.981L121.871 307.662L133.053 239.044L152.221 184.789L127.302 155.427L110.37 153.193Z" fill="#2F2E41"/>
<path d="M154.458 74.6814L135.928 76.5963L134.011 82.9793L116.12 92.5539L121.871 132.767L117.398 139.788L119.315 146.81C119.315 146.81 114.203 147.448 114.842 151.278L103.341 153.193C103.341 153.193 118.596 156.304 121.831 171.663C125.066 187.023 151.902 188.938 151.902 188.938L172.987 123.192L174.904 84.2559L160.208 80.4261L154.458 74.6814Z" fill="#E6E6E6"/>
<path d="M144.692 72.2593C152.648 72.2593 159.097 65.8167 159.097 57.8694C159.097 49.9221 152.648 43.4795 144.692 43.4795C136.737 43.4795 130.288 49.9221 130.288 57.8694C130.288 65.8167 136.737 72.2593 144.692 72.2593Z" fill="#FFB6B6"/>
<path d="M137.206 70.8517C137.206 70.8517 124.427 70.2133 125.705 60.0005C122.542 49.1249 125.341 42.0636 135.289 39.5748C135.289 39.5748 137.845 38.9365 138.484 38.9365C146.888 38.9365 151.263 41.4897 151.263 41.4897C151.263 41.4897 150.624 38.9617 151.263 39.5874C151.902 40.2131 152.541 41.4897 152.541 41.4897C152.541 41.4897 158.93 44.6812 158.93 51.0643C158.93 57.4473 158.93 54.8941 158.93 54.8941C158.93 54.8941 157.652 54.8941 156.375 51.0643C155.097 47.2345 146.823 49.7877 146.823 49.7877L147.429 51.0643L145.512 50.426L143.595 52.3409L142.317 51.7026C142.317 51.7026 137.206 51.7026 137.845 51.7026C138.484 51.7026 138.038 56.0404 138.038 56.0404L133.372 61.2771L138.484 70.8517H137.206Z" fill="#2F2E41"/>
<path d="M69.1223 147.036C65.4845 149.019 63.5597 152.502 64.8232 154.814C66.0866 157.127 70.0598 157.394 73.6976 155.41C75.29 154.542 76.5541 153.387 77.3663 152.168L92.6752 143.57L88.4836 136.48L73.8369 145.707C72.3714 145.73 70.7147 146.167 69.1223 147.036Z" fill="#FFB6B6"/>
<path d="M120.749 92.8517C120.749 92.8517 114.748 90.5692 112.68 93.3167C110.612 96.0643 96.9535 129.403 96.9535 129.403L76.9133 139.859L82.5488 149.662L108.355 141.079L125.381 109.973L120.749 92.8517Z" fill="#E6E6E6"/>
<path d="M309.989 202.341V270.001C309.989 275.984 305.116 280.852 299.127 280.852H131.72C125.731 280.852 120.858 275.984 120.858 270.001V202.341C120.858 196.357 125.731 191.49 131.72 191.49H299.127C305.116 191.49 309.989 196.357 309.989 202.341Z" fill="white"/>
<path d="M309.989 202.341V270.001C309.989 275.984 305.116 280.852 299.127 280.852H131.72C125.731 280.852 120.858 275.984 120.858 270.001V202.341C120.858 196.357 125.731 191.49 131.72 191.49H299.127C305.116 191.49 309.989 196.357 309.989 202.341ZM299.127 279.575C304.42 279.575 308.711 275.289 308.711 270.001V235.889C308.711 212.073 289.384 192.766 265.544 192.766H131.72C126.427 192.766 122.136 197.053 122.136 202.341V270.001C122.136 275.289 126.427 279.575 131.72 279.575H299.127Z" fill="#3F3D56"/>
<path d="M196.006 232.367H174.14C173.589 232.367 173.141 232.815 173.141 233.366C173.141 233.917 173.589 234.365 174.14 234.365H196.006C196.557 234.365 197.005 233.917 197.005 233.366C197.005 232.815 196.557 232.367 196.006 232.367Z" fill="#FFC000"/>
<path d="M229.232 232.367H207.366C206.815 232.367 206.366 232.815 206.366 233.366C206.366 233.917 206.815 234.365 207.366 234.365H229.232C229.783 234.365 230.231 233.917 230.231 233.366C230.231 232.815 229.783 232.367 229.232 232.367Z" fill="#FFC000"/>
<path d="M196.006 243.286H174.14C173.589 243.286 173.141 243.734 173.141 244.285C173.141 244.835 173.589 245.283 174.14 245.283H196.006C196.557 245.283 197.005 244.835 197.005 244.285C197.005 243.734 196.557 243.286 196.006 243.286Z" fill="#FFC000"/>
<path d="M229.232 243.286H207.366C206.815 243.286 206.366 243.734 206.366 244.285C206.366 244.835 206.815 245.283 207.366 245.283H229.232C229.783 245.283 230.231 244.835 230.231 244.285C230.231 243.734 229.783 243.286 229.232 243.286Z" fill="#FFC000"/>
<path d="M263.457 244.285C263.457 243.734 263.009 243.286 262.457 243.286H240.592C240.041 243.286 239.592 243.734 239.592 244.285C239.592 244.835 240.041 245.283 240.592 245.283H262.457C263.009 245.283 263.457 244.835 263.457 244.285Z" fill="#FFC000"/>
<path d="M183.227 223.649C183.778 223.649 184.226 223.201 184.226 222.65C184.226 222.099 183.778 221.652 183.227 221.652H161.361C160.81 221.652 160.362 222.099 160.362 222.65C160.362 223.201 160.81 223.649 161.361 223.649H183.227Z" fill="#FFC000"/>
<path d="M247.62 223.243H269.486C270.037 223.243 270.485 222.795 270.485 222.244C270.485 221.693 270.037 221.245 269.486 221.245H247.62C247.069 221.245 246.621 221.693 246.621 222.244C246.621 222.795 247.069 223.243 247.62 223.243Z" fill="#FFC000"/>
<path d="M192.438 223.453H237.77C238.321 223.453 238.77 223.005 238.77 222.454C238.77 221.903 238.321 221.455 237.77 221.455H192.438C191.887 221.455 191.438 221.903 191.438 222.454C191.438 223.005 191.887 223.453 192.438 223.453Z" fill="#FFC000"/>
<path d="M210.274 253.206H188.409C187.857 253.206 187.409 253.654 187.409 254.205C187.409 254.756 187.857 255.204 188.409 255.204H210.274C210.825 255.204 211.274 254.756 211.274 254.205C211.274 253.654 210.825 253.206 210.274 253.206Z" fill="#FFC000"/>
<path d="M280.892 201.831V269.491C280.892 275.474 276.019 280.342 270.03 280.342H202.301C196.311 280.342 191.438 275.474 191.438 269.491V201.831C191.438 195.847 196.311 190.979 202.301 190.979H270.03C276.019 190.979 280.892 195.847 280.892 201.831Z" fill="white"/>
<path d="M280.892 201.831V269.491C280.892 275.474 276.019 280.342 270.03 280.342H202.301C196.311 280.342 191.438 275.474 191.438 269.491V201.831C191.438 195.847 196.311 190.979 202.301 190.979H270.03C276.019 190.979 280.892 195.847 280.892 201.831ZM265.828 279.065C273.442 279.065 279.614 272.899 279.614 265.293V235.379C279.614 211.563 260.288 192.256 236.447 192.256H202.301C197.007 192.256 192.716 196.543 192.716 201.831V260.05C192.716 270.552 201.238 279.065 211.75 279.065L265.828 279.065Z" fill="#3F3D56"/>
<path d="M245.181 218.613H223.316C222.765 218.613 222.316 218.165 222.316 217.614C222.316 217.063 222.765 216.616 223.316 216.616H245.181C245.733 216.616 246.181 217.063 246.181 217.614C246.181 218.165 245.733 218.613 245.181 218.613Z" fill="#FFC000"/>
<path d="M245.181 239.909H223.316C222.765 239.909 222.316 239.461 222.316 238.91C222.316 238.359 222.765 237.912 223.316 237.912H245.181C245.733 237.912 246.181 238.359 246.181 238.91C246.181 239.461 245.733 239.909 245.181 239.909Z" fill="#FFC000"/>
<path d="M234.319 269.271H212.454C211.902 269.271 211.454 268.823 211.454 268.272C211.454 267.721 211.902 267.274 212.454 267.274H234.319C234.87 267.274 235.319 267.721 235.319 268.272C235.319 268.823 234.87 269.271 234.319 269.271Z" fill="#FFC000"/>
<path d="M256.914 229.268H211.583C211.031 229.268 210.583 228.82 210.583 228.269C210.583 227.719 211.031 227.271 211.583 227.271H256.914C257.466 227.271 257.914 227.719 257.914 228.269C257.914 228.82 257.466 229.268 256.914 229.268Z" fill="#FFC000"/>
<path d="M268.148 164.338C268.148 143.232 250.291 131.62 229.892 126.121C203.739 119.07 184.585 133.338 191.635 164.338C193.233 171.364 197.055 179.57 201.786 186.59H239.327C251.868 178.434 268.148 180.721 268.148 164.338Z" fill="#FFC000"/>
<path d="M229.33 204.239C231.466 200.172 234.173 197.238 237.157 195.004H201.995C211.044 207.918 223.046 216.207 229.33 204.239Z" fill="#FFC000"/>
<path d="M225.273 141.743C227.53 141.743 229.36 143.571 229.36 145.826V153.992H221.186V145.826C221.186 143.571 223.016 141.743 225.273 141.743ZM231.404 153.992V145.826C231.404 142.443 228.659 139.701 225.273 139.701C221.887 139.701 219.142 142.443 219.142 145.826V153.992C216.885 153.992 215.055 155.82 215.055 158.075V168.283C215.055 170.538 216.885 172.366 219.142 172.366H231.404C233.661 172.366 235.491 170.538 235.491 168.283V158.075C235.491 155.82 233.661 153.992 231.404 153.992ZM219.142 156.034H231.404C232.533 156.034 233.448 156.948 233.448 158.075V168.283C233.448 169.41 232.533 170.324 231.404 170.324H219.142C218.013 170.324 217.098 169.41 217.098 168.283V158.075C217.098 156.948 218.013 156.034 219.142 156.034Z" fill="white"/>
<path d="M166.864 189.284C166.371 193.395 168.094 196.981 170.713 197.295C173.331 197.608 175.854 194.53 176.346 190.419C176.562 188.62 176.353 186.921 175.83 185.553L177.7 168.108L169.486 167.406L168.515 184.678C167.684 185.883 167.079 187.485 166.864 189.284Z" fill="#FFB6B6"/>
<path d="M168.834 85.2133C168.834 85.2133 177.78 82.6601 179.696 86.4899C181.613 90.3198 186.086 140.746 186.086 140.746L177.46 180.996L167.556 178.406L172.668 137.554L165.639 106.916L168.834 85.2133Z" fill="#E6E6E6"/>
<path d="M37.3789 207.665C58.0227 207.665 74.7578 190.947 74.7578 170.324C74.7578 149.702 58.0227 132.984 37.3789 132.984C16.7351 132.984 0 149.702 0 170.324C0 190.947 16.7351 207.665 37.3789 207.665Z" fill="#FFC000"/>
<path d="M37.379 153.608C40.0195 153.608 42.16 155.746 42.16 158.384V167.936H32.5979V158.384C32.5979 155.746 34.7385 153.608 37.379 153.608ZM44.5505 167.936V158.384C44.5505 154.427 41.3397 151.22 37.379 151.22C33.4182 151.22 30.2074 154.427 30.2074 158.384V167.936C27.5669 167.936 25.4264 170.075 25.4264 172.712V184.653C25.4264 187.291 27.5669 189.429 30.2074 189.429H44.5505C47.191 189.429 49.3315 187.291 49.3315 184.653V172.712C49.3315 170.075 47.191 167.936 44.5505 167.936ZM30.2074 170.324H44.5505C45.8707 170.324 46.941 171.394 46.941 172.712V184.653C46.941 185.972 45.8707 187.041 44.5505 187.041H30.2074C28.8872 187.041 27.8169 185.972 27.8169 184.653V172.712C27.8169 171.394 28.8872 170.324 30.2074 170.324Z" fill="white"/>
</svg>
