<svg width="377" height="609" viewBox="0 0 377 609" fill="none" xmlns="http://www.w3.org/2000/svg">
<ellipse cx="20" cy="463.416" rx="6" ry="6.04534" fill="#AEC1AF"/>
<g filter="url(#filter0_f_193_1011)">
<ellipse cx="20" cy="463.416" rx="6" ry="6.04534" fill="#FFC000"/>
</g>
<path d="M57 608V499.184L106 449.814V243.768M106 608V482.055L43.5 419.083V277.521V264.423V95.6575M20 608V468.453M129.5 608V582.307L172 539.486V175.758M153.5 608V388.353M236 608L199 570.72V369.713L236 332.433V117.824M288.5 608V419.083L199 328.907V31.1738M376 608V524.373L351 499.184V258.882M305.5 311.778L276 282.055V77.0177M319 419.083V608" stroke="#AEC1AF"/>
<g filter="url(#filter1_f_193_1011)">
<ellipse cx="106" cy="240.746" rx="6" ry="6.04534" fill="#FFC000"/>
</g>
<ellipse cx="106" cy="240.746" rx="6" ry="6.04534" fill="#FFC000"/>
<g filter="url(#filter2_f_193_1011)">
<path d="M117.5 240.746C117.5 247.15 112.348 252.336 106 252.336C99.6523 252.336 94.5 247.15 94.5 240.746C94.5 234.341 99.6523 229.155 106 229.155C112.348 229.155 117.5 234.341 117.5 240.746Z" stroke="#FFC000"/>
</g>
<g filter="url(#filter3_f_193_1011)">
<ellipse cx="171" cy="164.171" rx="6" ry="6.04534" fill="#AEC1AF"/>
</g>
<ellipse cx="171" cy="164.171" rx="6" ry="6.04534" fill="#AEC1AF"/>
<g filter="url(#filter4_f_193_1011)">
<path d="M182.5 164.171C182.5 170.576 177.348 175.762 171 175.762C164.652 175.762 159.5 170.576 159.5 164.171C159.5 157.766 164.652 152.581 171 152.581C177.348 152.581 182.5 157.766 182.5 164.171Z" stroke="#AEC1AF"/>
</g>
<path d="M182.5 164.171C182.5 170.576 177.348 175.762 171 175.762C164.652 175.762 159.5 170.576 159.5 164.171C159.5 157.766 164.652 152.581 171 152.581C177.348 152.581 182.5 157.766 182.5 164.171Z" stroke="#AEC1AF"/>
<g filter="url(#filter5_f_193_1011)">
<ellipse cx="43" cy="84.5743" rx="6" ry="6.04534" fill="#AEC1AF"/>
</g>
<ellipse cx="43" cy="84.5743" rx="6" ry="6.04534" fill="#AEC1AF"/>
<g filter="url(#filter6_f_193_1011)">
<path d="M54.5 84.5743C54.5 90.9792 49.3477 96.165 43 96.165C36.6523 96.165 31.5 90.9792 31.5 84.5743C31.5 78.1694 36.6523 72.9836 43 72.9836C49.3477 72.9836 54.5 78.1694 54.5 84.5743Z" stroke="#AEC1AF"/>
</g>
<path d="M54.5 84.5743C54.5 90.9792 49.3477 96.165 43 96.165C36.6523 96.165 31.5 90.9792 31.5 84.5743C31.5 78.1694 36.6523 72.9836 43 72.9836C49.3477 72.9836 54.5 78.1694 54.5 84.5743Z" stroke="#AEC1AF"/>
<g filter="url(#filter7_f_193_1011)">
<ellipse cx="198" cy="20.0906" rx="6" ry="6.04534" fill="#AEC1AF"/>
</g>
<ellipse cx="198" cy="20.0906" rx="6" ry="6.04534" fill="#AEC1AF"/>
<g filter="url(#filter8_f_193_1011)">
<path d="M209.5 20.0907C209.5 26.4956 204.348 31.6814 198 31.6814C191.652 31.6814 186.5 26.4956 186.5 20.0907C186.5 13.6858 191.652 8.5 198 8.5C204.348 8.5 209.5 13.6858 209.5 20.0907Z" stroke="#AEC1AF"/>
</g>
<path d="M209.5 20.0907C209.5 26.4956 204.348 31.6814 198 31.6814C191.652 31.6814 186.5 26.4956 186.5 20.0907C186.5 13.6858 191.652 8.5 198 8.5C204.348 8.5 209.5 13.6858 209.5 20.0907Z" stroke="#AEC1AF"/>
<g filter="url(#filter9_f_193_1011)">
<ellipse cx="275" cy="65.4308" rx="6" ry="6.04534" fill="#AEC1AF"/>
</g>
<ellipse cx="275" cy="65.4308" rx="6" ry="6.04534" fill="#AEC1AF"/>
<g filter="url(#filter10_f_193_1011)">
<path d="M286.5 65.4308C286.5 71.8357 281.348 77.0214 275 77.0214C268.652 77.0214 263.5 71.8357 263.5 65.4308C263.5 59.0259 268.652 53.8401 275 53.8401C281.348 53.8401 286.5 59.0259 286.5 65.4308Z" stroke="#AEC1AF"/>
</g>
<path d="M286.5 65.4308C286.5 71.8357 281.348 77.0214 275 77.0214C268.652 77.0214 263.5 71.8357 263.5 65.4308C263.5 59.0259 268.652 53.8401 275 53.8401C281.348 53.8401 286.5 59.0259 286.5 65.4308Z" stroke="#AEC1AF"/>
<g filter="url(#filter11_f_193_1011)">
<ellipse cx="153" cy="381.804" rx="6" ry="6.04534" fill="#FFC000"/>
</g>
<ellipse cx="153" cy="381.804" rx="6" ry="6.04534" fill="#FFC000"/>
<g filter="url(#filter12_f_193_1011)">
<path d="M164.5 381.804C164.5 388.208 159.348 393.394 153 393.394C146.652 393.394 141.5 388.208 141.5 381.804C141.5 375.399 146.652 370.213 153 370.213C159.348 370.213 164.5 375.399 164.5 381.804Z" stroke="#FFC000"/>
</g>
<g filter="url(#filter13_f_193_1011)">
<ellipse cx="318" cy="413.038" rx="6" ry="6.04534" fill="#FFC000"/>
</g>
<ellipse cx="318" cy="413.038" rx="6" ry="6.04534" fill="#FFC000"/>
<g filter="url(#filter14_f_193_1011)">
<path d="M329.5 413.038C329.5 419.443 324.348 424.629 318 424.629C311.652 424.629 306.5 419.443 306.5 413.038C306.5 406.633 311.652 401.447 318 401.447C324.348 401.447 329.5 406.633 329.5 413.038Z" stroke="#FFC000"/>
</g>
<g filter="url(#filter15_f_193_1011)">
<ellipse cx="236" cy="112.786" rx="6" ry="6.04534" fill="#FFC000"/>
</g>
<ellipse cx="236" cy="112.786" rx="6" ry="6.04534" fill="#FFC000"/>
<g filter="url(#filter16_f_193_1011)">
<path d="M247.5 112.786C247.5 119.191 242.348 124.377 236 124.377C229.652 124.377 224.5 119.191 224.5 112.786C224.5 106.381 229.652 101.195 236 101.195C242.348 101.195 247.5 106.381 247.5 112.786Z" stroke="#AEC1AF"/>
</g>
<g filter="url(#filter17_f_193_1011)">
<ellipse cx="351" cy="252.836" rx="6" ry="6.04534" fill="#FFC000"/>
</g>
<ellipse cx="351" cy="252.836" rx="6" ry="6.04534" fill="#FFC000"/>
<g filter="url(#filter18_f_193_1011)">
<path d="M362.5 252.836C362.5 259.241 357.348 264.427 351 264.427C344.652 264.427 339.5 259.241 339.5 252.836C339.5 246.431 344.652 241.246 351 241.246C357.348 241.246 362.5 246.431 362.5 252.836Z" stroke="#FFC000"/>
</g>
<g filter="url(#filter19_f_193_1011)">
<path d="M31.5 463.416C31.5 469.821 26.3477 475.006 20 475.006C13.6523 475.006 8.5 469.821 8.5 463.416C8.5 457.011 13.6523 451.825 20 451.825C26.3477 451.825 31.5 457.011 31.5 463.416Z" stroke="#FFC000"/>
</g>
<defs>
<filter id="filter0_f_193_1011" x="4" y="447.37" width="32" height="32.0907" filterUnits="userSpaceOnUse" color-interpolation-filters="sRGB">
<feFlood flood-opacity="0" result="BackgroundImageFix"/>
<feBlend mode="normal" in="SourceGraphic" in2="BackgroundImageFix" result="shape"/>
<feGaussianBlur stdDeviation="5" result="effect1_foregroundBlur_193_1011"/>
</filter>
<filter id="filter1_f_193_1011" x="90" y="224.7" width="32" height="32.0907" filterUnits="userSpaceOnUse" color-interpolation-filters="sRGB">
<feFlood flood-opacity="0" result="BackgroundImageFix"/>
<feBlend mode="normal" in="SourceGraphic" in2="BackgroundImageFix" result="shape"/>
<feGaussianBlur stdDeviation="5" result="effect1_foregroundBlur_193_1011"/>
</filter>
<filter id="filter2_f_193_1011" x="86" y="220.655" width="40" height="40.1814" filterUnits="userSpaceOnUse" color-interpolation-filters="sRGB">
<feFlood flood-opacity="0" result="BackgroundImageFix"/>
<feBlend mode="normal" in="SourceGraphic" in2="BackgroundImageFix" result="shape"/>
<feGaussianBlur stdDeviation="4" result="effect1_foregroundBlur_193_1011"/>
</filter>
<filter id="filter3_f_193_1011" x="155" y="148.126" width="32" height="32.0907" filterUnits="userSpaceOnUse" color-interpolation-filters="sRGB">
<feFlood flood-opacity="0" result="BackgroundImageFix"/>
<feBlend mode="normal" in="SourceGraphic" in2="BackgroundImageFix" result="shape"/>
<feGaussianBlur stdDeviation="5" result="effect1_foregroundBlur_193_1011"/>
</filter>
<filter id="filter4_f_193_1011" x="151" y="144.081" width="40" height="40.1814" filterUnits="userSpaceOnUse" color-interpolation-filters="sRGB">
<feFlood flood-opacity="0" result="BackgroundImageFix"/>
<feBlend mode="normal" in="SourceGraphic" in2="BackgroundImageFix" result="shape"/>
<feGaussianBlur stdDeviation="4" result="effect1_foregroundBlur_193_1011"/>
</filter>
<filter id="filter5_f_193_1011" x="27" y="68.5289" width="32" height="32.0907" filterUnits="userSpaceOnUse" color-interpolation-filters="sRGB">
<feFlood flood-opacity="0" result="BackgroundImageFix"/>
<feBlend mode="normal" in="SourceGraphic" in2="BackgroundImageFix" result="shape"/>
<feGaussianBlur stdDeviation="5" result="effect1_foregroundBlur_193_1011"/>
</filter>
<filter id="filter6_f_193_1011" x="23" y="64.4836" width="40" height="40.1814" filterUnits="userSpaceOnUse" color-interpolation-filters="sRGB">
<feFlood flood-opacity="0" result="BackgroundImageFix"/>
<feBlend mode="normal" in="SourceGraphic" in2="BackgroundImageFix" result="shape"/>
<feGaussianBlur stdDeviation="4" result="effect1_foregroundBlur_193_1011"/>
</filter>
<filter id="filter7_f_193_1011" x="182" y="4.04529" width="32" height="32.0907" filterUnits="userSpaceOnUse" color-interpolation-filters="sRGB">
<feFlood flood-opacity="0" result="BackgroundImageFix"/>
<feBlend mode="normal" in="SourceGraphic" in2="BackgroundImageFix" result="shape"/>
<feGaussianBlur stdDeviation="5" result="effect1_foregroundBlur_193_1011"/>
</filter>
<filter id="filter8_f_193_1011" x="178" y="0" width="40" height="40.1814" filterUnits="userSpaceOnUse" color-interpolation-filters="sRGB">
<feFlood flood-opacity="0" result="BackgroundImageFix"/>
<feBlend mode="normal" in="SourceGraphic" in2="BackgroundImageFix" result="shape"/>
<feGaussianBlur stdDeviation="4" result="effect1_foregroundBlur_193_1011"/>
</filter>
<filter id="filter9_f_193_1011" x="259" y="49.3855" width="32" height="32.0907" filterUnits="userSpaceOnUse" color-interpolation-filters="sRGB">
<feFlood flood-opacity="0" result="BackgroundImageFix"/>
<feBlend mode="normal" in="SourceGraphic" in2="BackgroundImageFix" result="shape"/>
<feGaussianBlur stdDeviation="5" result="effect1_foregroundBlur_193_1011"/>
</filter>
<filter id="filter10_f_193_1011" x="255" y="45.3401" width="40" height="40.1814" filterUnits="userSpaceOnUse" color-interpolation-filters="sRGB">
<feFlood flood-opacity="0" result="BackgroundImageFix"/>
<feBlend mode="normal" in="SourceGraphic" in2="BackgroundImageFix" result="shape"/>
<feGaussianBlur stdDeviation="4" result="effect1_foregroundBlur_193_1011"/>
</filter>
<filter id="filter11_f_193_1011" x="137" y="365.758" width="32" height="32.0907" filterUnits="userSpaceOnUse" color-interpolation-filters="sRGB">
<feFlood flood-opacity="0" result="BackgroundImageFix"/>
<feBlend mode="normal" in="SourceGraphic" in2="BackgroundImageFix" result="shape"/>
<feGaussianBlur stdDeviation="5" result="effect1_foregroundBlur_193_1011"/>
</filter>
<filter id="filter12_f_193_1011" x="133" y="361.713" width="40" height="40.1814" filterUnits="userSpaceOnUse" color-interpolation-filters="sRGB">
<feFlood flood-opacity="0" result="BackgroundImageFix"/>
<feBlend mode="normal" in="SourceGraphic" in2="BackgroundImageFix" result="shape"/>
<feGaussianBlur stdDeviation="4" result="effect1_foregroundBlur_193_1011"/>
</filter>
<filter id="filter13_f_193_1011" x="302" y="396.992" width="32" height="32.0907" filterUnits="userSpaceOnUse" color-interpolation-filters="sRGB">
<feFlood flood-opacity="0" result="BackgroundImageFix"/>
<feBlend mode="normal" in="SourceGraphic" in2="BackgroundImageFix" result="shape"/>
<feGaussianBlur stdDeviation="5" result="effect1_foregroundBlur_193_1011"/>
</filter>
<filter id="filter14_f_193_1011" x="298" y="392.947" width="40" height="40.1814" filterUnits="userSpaceOnUse" color-interpolation-filters="sRGB">
<feFlood flood-opacity="0" result="BackgroundImageFix"/>
<feBlend mode="normal" in="SourceGraphic" in2="BackgroundImageFix" result="shape"/>
<feGaussianBlur stdDeviation="4" result="effect1_foregroundBlur_193_1011"/>
</filter>
<filter id="filter15_f_193_1011" x="220" y="96.7405" width="32" height="32.0907" filterUnits="userSpaceOnUse" color-interpolation-filters="sRGB">
<feFlood flood-opacity="0" result="BackgroundImageFix"/>
<feBlend mode="normal" in="SourceGraphic" in2="BackgroundImageFix" result="shape"/>
<feGaussianBlur stdDeviation="5" result="effect1_foregroundBlur_193_1011"/>
</filter>
<filter id="filter16_f_193_1011" x="216" y="92.6952" width="40" height="40.1814" filterUnits="userSpaceOnUse" color-interpolation-filters="sRGB">
<feFlood flood-opacity="0" result="BackgroundImageFix"/>
<feBlend mode="normal" in="SourceGraphic" in2="BackgroundImageFix" result="shape"/>
<feGaussianBlur stdDeviation="4" result="effect1_foregroundBlur_193_1011"/>
</filter>
<filter id="filter17_f_193_1011" x="335" y="236.791" width="32" height="32.0907" filterUnits="userSpaceOnUse" color-interpolation-filters="sRGB">
<feFlood flood-opacity="0" result="BackgroundImageFix"/>
<feBlend mode="normal" in="SourceGraphic" in2="BackgroundImageFix" result="shape"/>
<feGaussianBlur stdDeviation="5" result="effect1_foregroundBlur_193_1011"/>
</filter>
<filter id="filter18_f_193_1011" x="331" y="232.746" width="40" height="40.1814" filterUnits="userSpaceOnUse" color-interpolation-filters="sRGB">
<feFlood flood-opacity="0" result="BackgroundImageFix"/>
<feBlend mode="normal" in="SourceGraphic" in2="BackgroundImageFix" result="shape"/>
<feGaussianBlur stdDeviation="4" result="effect1_foregroundBlur_193_1011"/>
</filter>
<filter id="filter19_f_193_1011" x="0" y="443.325" width="40" height="40.1814" filterUnits="userSpaceOnUse" color-interpolation-filters="sRGB">
<feFlood flood-opacity="0" result="BackgroundImageFix"/>
<feBlend mode="normal" in="SourceGraphic" in2="BackgroundImageFix" result="shape"/>
<feGaussianBlur stdDeviation="4" result="effect1_foregroundBlur_193_1011"/>
</filter>
</defs>
</svg>
