<svg width="326" height="298" viewBox="0 0 326 298" fill="none" xmlns="http://www.w3.org/2000/svg">
<g clip-path="url(#clip0_193_1193)">
<path d="M208.861 237.984L211.993 244.997C209.447 244.592 207.079 246.763 207.026 249.552C206.972 252.34 209.244 255.241 211.79 255.638C211.304 257.803 209.203 258.757 207.38 259.632C205.557 260.507 203.592 261.958 203.728 264.265C203.837 266.117 205.371 267.753 207 268.41C208.629 269.068 210.339 268.967 211.989 268.856C209.488 271.467 209.245 276.376 211.44 279.897C213.636 283.418 218.021 285.152 221.304 283.796C218.985 286.678 219.489 291.954 222.368 294.928C225.27 297.926 229.476 298.216 233.154 297.9C242.518 297.109 251.441 293.579 258.805 287.75C261.616 285.52 264.242 282.897 265.846 279.476C267.449 276.054 267.922 271.723 266.428 267.829C266.831 272.706 271.72 276.559 276.119 276.774C280.517 276.99 284.358 274.516 287.621 271.695C291.961 267.944 295.98 262.686 295.384 256.198C295.089 252.986 293.684 249.897 292.306 246.905L289.634 241.104C288.556 238.762 287.453 236.381 285.829 234.416C284.206 232.45 281.953 230.929 279.698 230.943C280.213 228.592 280.731 226.152 280.299 223.654C279.867 221.155 278.213 218.568 275.963 217.983C273.099 217.238 270.672 219.876 267.793 219.628C265.022 219.388 262.731 216.612 260.041 215.511C258.933 215.033 257.709 214.888 256.52 215.093C255.33 215.298 254.227 215.846 253.344 216.668C251.638 218.33 250.927 221.14 251.539 223.798C252.075 226.126 253.503 228.18 254.369 230.425C255.235 232.671 255.369 235.558 253.706 236.784C251.698 238.264 248.643 236.251 247.075 233.814C245.506 231.378 244.606 228.428 242.623 226.379C240.282 223.961 236.618 223.394 234.208 225.078C231.798 226.761 230.877 230.531 232.092 233.735C233.085 236.356 235.361 239.006 234.571 241.474C233.737 244.081 230.087 243.751 227.886 241.908C225.684 240.065 224.222 237.289 222.047 235.405C219.839 233.491 216.954 232.653 214.422 233.188C213.138 233.486 211.949 234.102 210.966 234.979C209.983 235.856 209.237 236.966 208.797 238.207" fill="#FFC000"/>
<path d="M239.917 226.461L233.418 229.476C232.44 229.958 231.332 230.107 230.262 229.901C229.319 229.678 228.681 229.102 228.514 228.32L227.001 221.267C226.716 219.936 227.819 218.362 229.625 217.524L233.215 215.859C235.021 215.021 236.937 215.195 237.772 216.271L242.195 221.973C242.686 222.605 242.715 223.463 242.277 224.327C241.745 225.277 240.916 226.026 239.917 226.461Z" fill="#3F3D56"/>
<path d="M219.933 236.36L213.434 239.375C212.457 239.857 211.348 240.006 210.278 239.8C209.335 239.577 208.697 239.001 208.53 238.219L207.017 231.166C206.732 229.836 207.835 228.261 209.641 227.424L213.231 225.759C215.037 224.921 216.954 225.094 217.788 226.17L222.211 231.872C222.702 232.505 222.731 233.363 222.293 234.226C221.761 235.176 220.932 235.925 219.933 236.36Z" fill="#3F3D56"/>
<path d="M307.579 243.765C309.714 243.765 311.445 242.036 311.445 239.904C311.445 237.772 309.714 236.044 307.579 236.044C305.443 236.044 303.712 237.772 303.712 239.904C303.712 242.036 305.443 243.765 307.579 243.765Z" fill="#F2F2F2"/>
<path d="M175.722 267.268C179.885 267.268 183.26 263.898 183.26 259.742C183.26 255.585 179.885 252.216 175.722 252.216C171.559 252.216 168.184 255.585 168.184 259.742C168.184 263.898 171.559 267.268 175.722 267.268Z" fill="#F2F2F2"/>
<path d="M259.579 218.275L253.08 221.29C252.103 221.772 250.994 221.921 249.924 221.715C248.981 221.492 248.343 220.916 248.176 220.134L246.663 213.081C246.378 211.751 247.481 210.177 249.287 209.339L252.877 207.674C254.683 206.836 256.6 207.009 257.434 208.085L261.857 213.788C262.348 214.42 262.377 215.278 261.939 216.142C261.407 217.091 260.578 217.84 259.579 218.275Z" fill="#3F3D56"/>
<path d="M58.0312 87.9213C64.1419 71.2227 73.6779 55.9822 86.0287 43.1759C96.5073 32.3151 112.816 32.7664 112.816 32.7664L112.909 32.6509C116.834 27.8184 122.101 24.2507 128.049 22.3955C133.997 20.5403 140.361 20.4801 146.344 22.2226C147.899 22.6681 149.095 22.8656 149.663 22.6672C160.034 19.0434 159.547 10.8641 168.494 4.27488C184.16 -7.2624 236.124 5.95332 243.452 27.1833C249.39 44.3897 275.899 52.7295 285.803 65.891C287.352 67.949 288.871 70.0308 290.361 72.1365C291.06 73.1147 291.751 74.1003 292.434 75.0933C299.451 85.2389 305.746 95.8638 311.272 106.89C314.896 114.093 318.046 121.525 320.701 129.138C331.03 159.285 327.498 181.746 299.019 176.197C295.647 175.538 292.357 174.949 289.148 174.429C284.501 173.672 280.016 173.05 275.693 172.562C269.871 171.901 264.333 171.468 259.077 171.263C257.31 171.192 255.576 171.144 253.873 171.12C228.705 170.772 210.036 175.501 195.813 182.843C193.402 184.085 191.118 185.398 188.959 186.783C185.662 188.887 182.514 191.215 179.538 193.751C175.419 197.281 171.62 201.167 168.186 205.364L167.998 205.595C151.363 225.911 145.888 248.401 134.317 252.361C84.8519 269.292 53.5675 207.918 50.3592 147.88C50.1972 144.855 50.1077 141.838 50.0907 138.83C50.0807 137.486 50.0873 136.145 50.1106 134.807C50.1613 131.318 50.3154 127.852 50.5734 124.427C50.6697 123.118 50.7815 121.815 50.9087 120.52C51.0488 119.123 51.2012 117.734 51.3774 116.354C52.6358 106.238 54.8371 96.6135 58.0312 87.9213Z" fill="#6C63FF"/>
<path d="M211.347 120.953C207.397 122.79 207.332 131.015 208.571 133.68L210.815 138.503L225.124 131.866L222.88 127.042C221.639 124.378 215.301 119.123 211.347 120.953Z" fill="#3F3D56"/>
<path d="M172.896 190.21C172.644 190.21 172.396 190.15 172.173 190.034C171.949 189.917 171.757 189.749 171.613 189.543C171.469 189.337 171.376 189.1 171.344 188.85C171.311 188.601 171.339 188.348 171.426 188.111C171.496 187.918 171.603 187.741 171.742 187.59C171.881 187.439 172.049 187.317 172.236 187.231L246.131 152.952C246.318 152.866 246.519 152.817 246.724 152.808C246.93 152.8 247.134 152.831 247.327 152.902C247.52 152.972 247.698 153.08 247.849 153.219C248 153.357 248.123 153.524 248.209 153.71C248.383 154.086 248.401 154.516 248.259 154.905C248.117 155.293 247.826 155.61 247.45 155.785L173.554 190.064C173.348 190.16 173.123 190.21 172.896 190.21Z" fill="#3F3D56"/>
<path d="M230.698 134.942L209.576 144.741L242.71 215.945L263.833 206.146L230.698 134.942Z" fill="#E6E6E6"/>
<path d="M151.406 45.3083C147.455 47.1446 147.39 55.3696 148.629 58.0347L150.874 62.8585L165.183 56.2209L162.938 51.397C161.697 48.733 155.359 43.4783 151.406 45.3083Z" fill="#3F3D56"/>
<path d="M176.393 71.4091L155.27 81.2076L222.247 225.138L243.37 215.34L176.393 71.4091Z" fill="#E6E6E6"/>
<path d="M198.309 145.605L195.939 140.398L197.304 139.77L199.667 144.96L233.883 220.706L232.52 221.338" fill="#3F3D56"/>
<path d="M225.042 141.277L222.672 136.07L224.036 135.441L226.399 140.632L260.615 216.378L259.252 217.01" fill="#3F3D56"/>
<path d="M186.363 82.9276L157.742 96.2041C155.92 93.3737 150.427 78.8695 151.66 74.5662L150.735 70.4624L170.496 61.2953L173.141 64.5441C177.068 65.7469 184.712 79.3703 186.363 82.9276Z" fill="#E6E6E6"/>
<path d="M171.322 61.4708L150.929 70.9308C150.176 71.2799 149.375 71.1516 149.139 70.6441C149.105 70.5709 149.084 70.4925 149.076 70.4122L148.021 59.1704C147.976 58.689 148.388 58.1435 149.018 57.8512L162.543 51.5776C163.173 51.2853 163.856 51.3223 164.196 51.6673L172.12 59.7227C172.525 60.1347 172.305 60.8399 171.628 61.2979C171.531 61.3636 171.429 61.4214 171.322 61.4708Z" fill="#E6E6E6"/>
<path d="M187.317 149.546C187.096 149.547 186.876 149.521 186.662 149.469C186.359 149.406 186.075 149.275 185.831 149.086C185.587 148.897 185.39 148.655 185.254 148.378L172.786 121.585C172.27 120.476 172.963 119.057 174.33 118.423L192.587 109.954C193.954 109.32 195.487 109.706 196.003 110.815L208.471 137.608C208.595 137.89 208.653 138.197 208.641 138.505C208.628 138.813 208.545 139.115 208.398 139.386C208.078 140 207.559 140.488 206.926 140.77L188.67 149.239C188.247 149.438 187.785 149.543 187.317 149.546Z" fill="#3F3D56"/>
<path d="M189.814 153.602L168.691 163.4L201.825 234.604L222.948 224.806L189.814 153.602Z" fill="#E6E6E6"/>
<path d="M163.791 62.6454L157.596 65.5188C156.401 66.0733 154.788 65.1493 154.002 63.4594C153.216 61.7695 153.548 59.9431 154.744 59.3886L160.938 56.5151C162.133 55.9607 163.746 56.8846 164.532 58.5745C165.319 60.2645 164.986 62.0909 163.791 62.6454Z" fill="#3F3D56"/>
<path d="M170.875 139.421C166.925 141.258 166.86 149.483 168.098 152.148L170.343 156.972L184.652 150.334L182.407 145.51C181.166 142.846 174.828 137.591 170.875 139.421Z" fill="#3F3D56"/>
<path d="M105.255 123.004C103.86 123.932 102.432 121.723 103.854 120.836C105.249 119.908 106.677 122.117 105.255 123.004Z" fill="#E6E6E6"/>
<path d="M250.478 91.2634C249.082 92.1915 247.655 89.9825 249.076 89.0956C250.472 88.1675 251.899 90.3765 250.478 91.2634Z" fill="#E6E6E6"/>
<path d="M151.495 116.511C150.1 117.439 148.672 115.23 150.094 114.344C151.489 113.415 152.917 115.624 151.495 116.511Z" fill="#E6E6E6"/>
<path d="M105.255 203.076C103.86 204.004 102.432 201.795 103.854 200.908C105.249 199.98 106.677 202.189 105.255 203.076Z" fill="#E6E6E6"/>
<path d="M176.421 22.3726C175.026 23.3007 173.598 21.0917 175.02 20.2048C176.415 19.2768 177.843 21.4858 176.421 22.3726Z" fill="#E6E6E6"/>
<path d="M107.783 64.9334C106.388 65.8615 104.96 63.6525 106.382 62.7656C107.777 61.8376 109.205 64.0466 107.783 64.9334Z" fill="#E6E6E6"/>
<path d="M206.506 52.7321L205.618 52.5377L205.812 51.6511L205.221 51.5216L205.026 52.4082L204.138 52.2141L204.009 52.8049L204.896 52.9993L204.702 53.8855L205.294 54.015L205.488 53.1285L206.376 53.3229L206.506 52.7321Z" fill="#E6E6E6"/>
<path d="M61.9697 126.592L61.0822 126.398L61.2765 125.512L60.6848 125.382L60.4901 126.268L59.6021 126.074L59.4724 126.665L60.3604 126.86L60.166 127.746L60.7577 127.875L60.9525 126.989L61.8401 127.183L61.9697 126.592Z" fill="#E6E6E6"/>
<path d="M244 164.269C243.261 164.611 242.417 164.646 241.652 164.367C240.888 164.088 240.265 163.517 239.921 162.78L236.268 154.93C235.926 154.193 235.891 153.35 236.171 152.587C236.451 151.824 237.023 151.203 237.761 150.861C238.499 150.519 239.343 150.483 240.107 150.761C240.871 151.04 241.494 151.61 241.838 152.346L245.491 160.197C245.833 160.934 245.868 161.777 245.589 162.541C245.309 163.304 244.738 163.926 244 164.269Z" fill="#3F3D56"/>
<path d="M181.865 193.124C181.126 193.465 180.282 193.5 179.517 193.221C178.752 192.942 178.13 192.372 177.786 191.635L174.133 183.785C173.791 183.047 173.756 182.205 174.036 181.442C174.316 180.679 174.887 180.058 175.625 179.716C176.363 179.374 177.207 179.338 177.972 179.616C178.736 179.895 179.359 180.465 179.702 181.201L183.356 189.051C183.698 189.789 183.733 190.632 183.453 191.395C183.174 192.159 182.603 192.78 181.865 193.124Z" fill="#3F3D56"/>
<path d="M238.372 147.117L213.877 158.479C212.318 156.057 207.617 143.644 208.672 139.96L209.19 135.84L223.816 128.676L227.057 131.383C231.623 129.842 238.335 141.139 238.372 147.117Z" fill="#E6E6E6"/>
<path d="M227 146.329L220.806 149.202C219.61 149.757 217.792 148.39 216.752 146.155C215.712 143.921 215.839 141.652 217.034 141.097L223.228 138.224C224.424 137.669 226.243 139.036 227.282 141.27C228.322 143.505 228.195 145.774 227 146.329Z" fill="#3F3D56"/>
<path d="M174.467 161.115L172.097 155.907L173.461 155.279L175.824 160.47L210.04 236.216L208.677 236.848" fill="#3F3D56"/>
<path d="M197.9 165.585L173.405 176.948C169.791 175.085 164.268 162.895 168.199 158.429L168.718 154.309L183.343 147.144L186.584 149.851C189.945 150.881 196.487 162.54 197.9 165.585Z" fill="#E6E6E6"/>
<path d="M186.023 163.714L179.829 166.587C178.634 167.141 176.928 166.018 176.027 164.082C175.126 162.146 175.366 160.12 176.562 159.565L182.756 156.692C183.951 156.137 185.657 157.261 186.558 159.197C187.458 161.133 187.219 163.159 186.023 163.714Z" fill="#3F3D56"/>
<path d="M61.8793 111.035C82.4292 111.035 99.0882 94.402 99.0882 73.8844C99.0882 53.3667 82.4292 36.7339 61.8793 36.7339C41.3294 36.7339 24.6704 53.3667 24.6704 73.8844C24.6704 94.402 41.3294 111.035 61.8793 111.035Z" fill="#F5F5F5"/>
<path opacity="0.3" d="M214.441 112.578L237.053 46.6418L212.223 111.789C212.101 111.944 212.017 112.125 211.978 112.319C211.94 112.512 211.948 112.712 212.002 112.902C212.057 113.092 212.156 113.266 212.291 113.41C212.426 113.554 212.594 113.663 212.78 113.729C212.966 113.796 213.166 113.817 213.362 113.791C213.557 113.765 213.744 113.692 213.907 113.58C214.069 113.467 214.202 113.318 214.295 113.144C214.388 112.969 214.438 112.776 214.441 112.578Z" fill="#F0F0F0"/>
<path d="M272.08 73.276C267.653 74.7448 262.746 76.1876 257.358 77.6045C229.49 84.9304 192.135 90.6448 152.174 93.6956C112.214 96.7464 74.4232 96.7685 45.7629 93.7585C31.8016 92.292 20.7589 90.183 12.9419 87.4894C4.66583 84.6381 0.317159 81.202 0.0164971 77.2771C-0.568998 69.6307 14.5433 62.9008 27.3242 58.6016L27.6703 59.6269C10.1189 65.5309 0.681741 71.77 1.09725 77.1947C1.62623 84.1039 17.9476 89.7488 45.8763 92.6823C74.4736 95.6858 112.195 95.6627 152.092 92.6169C191.989 89.5708 229.275 83.8676 257.083 76.558C284.239 69.4199 299.512 61.3627 298.983 54.4533C298.543 48.7168 287.218 43.8094 267.092 40.6346L267.261 39.5659C281.885 41.8728 299.446 46.3137 300.063 54.3708C300.364 58.2958 296.589 62.3518 288.843 66.4264C284.428 68.7489 278.818 71.0403 272.08 73.276Z" fill="#3F3D56"/>
<path d="M283.013 139.166C285.149 139.166 286.88 137.438 286.88 135.306C286.88 133.174 285.149 131.446 283.013 131.446C280.878 131.446 279.147 133.174 279.147 135.306C279.147 137.438 280.878 139.166 283.013 139.166Z" fill="#FF6584"/>
<path d="M118.283 167.66C120.418 167.66 122.149 165.932 122.149 163.8C122.149 161.668 120.418 159.94 118.283 159.94C116.148 159.94 114.417 161.668 114.417 163.8C114.417 165.932 116.148 167.66 118.283 167.66Z" fill="#3F3D56"/>
<path d="M248.261 172.684L264.943 176.995L275.174 197.06L257.877 197.737L248.261 172.684Z" fill="#E6E6E6"/>
<path d="M209.759 143.76L218.94 152.931L242.257 203.266L237.964 206.969L209.759 143.76Z" fill="#CCCCCC"/>
<path d="M189.796 152.073L190.517 165.02L212.526 215.94L218.152 215.216L189.796 152.073Z" fill="#CCCCCC"/>
<path d="M189.196 204.377L180.212 219.058L186.834 240.579L199.736 229.057L189.196 204.377Z" fill="#E6E6E6"/>
<path d="M268.556 213.398C263.892 213.398 258.779 213.222 253.219 212.87C224.458 211.046 187.204 204.707 148.32 195.019C109.436 185.331 73.566 173.452 47.3192 161.571C34.5336 155.783 24.7207 150.305 18.1534 145.287C11.2004 139.975 8.15906 135.345 9.11351 131.526C10.9732 124.085 27.4402 122.458 40.9268 122.402L40.9313 123.484C22.4107 123.56 11.4844 126.509 10.1652 131.788C8.48468 138.511 22.19 149.007 47.7667 160.585C73.9559 172.441 109.759 184.297 148.582 193.969C187.405 203.641 224.59 209.97 253.287 211.79C281.313 213.567 298.351 210.73 300.031 204.007C301.426 198.425 292.229 190.202 274.133 180.852L274.632 179.891C287.78 186.685 303.042 196.429 301.083 204.269C300.128 208.088 295.265 210.749 286.627 212.176C281.704 212.99 275.656 213.398 268.556 213.398Z" fill="#3F3D56"/>
</g>
<defs>
<clipPath id="clip0_193_1193">
<rect width="326" height="298" fill="white"/>
</clipPath>
</defs>
</svg>
